<?xml version="1.0" standalone="no"?>
<!DOCTYPE svg PUBLIC "-//W3C//DTD SVG 1.1//EN" "http://www.w3.org/Graphics/SVG/1.1/DTD/svg11.dtd" >
<svg>
<metadata>
Created by FontForge 20090914 at Sun Jul  5 08:10:41 2020
 By www-data
Copyright 2015 Google Inc. All Rights Reserved.
</metadata>
<defs>
<font id="NotoSans-ExtraBold" horiz-adv-x="0" >
  <font-face 
    font-family="Noto Sans ExtBd"
    font-weight="800"
    font-stretch="normal"
    units-per-em="1000"
    panose-1="2 11 9 2 4 5 4 2 2 4"
    ascent="800"
    descent="-200"
    x-height="549"
    cap-height="714"
    bbox="-669 -389 2801 1094"
    underline-thickness="50"
    underline-position="-75"
    unicode-range="U+000D-U+FFFD"
  />
<missing-glyph horiz-adv-x="592" 
d="M90 0v714h411v-714h-411zM141 51h309v612h-309v-612z" />
    <glyph glyph-name=".notdef" horiz-adv-x="592" 
d="M90 0v714h411v-714h-411zM141 51h309v612h-309v-612z" />
    <glyph glyph-name="NULL" 
 />
    <glyph glyph-name="NULL" 
 />
    <glyph glyph-name="CR" unicode="&#xd;" horiz-adv-x="260" 
 />
    <glyph glyph-name="space" unicode=" " horiz-adv-x="260" 
 />
    <glyph glyph-name="exclam" unicode="!" horiz-adv-x="288" 
d="M214 244h-139l-25 470h189zM50 75c0 32.667 9.16699 55.5 27.5 68.5s40.5 19.5 66.5 19.5c25.333 0 47 -6.5 65 -19.5s27 -35.833 27 -68.5c0 -31.333 -9 -53.833 -27 -67.5s-39.667 -20.5 -65 -20.5c-26 0 -48.167 6.83301 -66.5 20.5s-27.5 36.167 -27.5 67.5z" />
    <glyph glyph-name="quotedbl" unicode="&#x22;" horiz-adv-x="496" 
d="M216 714l-20 -258h-114l-20 258h154zM434 714l-20 -258h-114l-20 258h154z" />
    <glyph glyph-name="numbersign" unicode="#" horiz-adv-x="653" 
d="M498 405l-20 -99h123v-111h-143l-38 -195h-118l37 195h-89l-36 -195h-116l35 195h-113v111h135l19 99h-120v114h141l36 194h118l-37 -194h90l37 194h117l-37 -194h114v-114h-135zM272 306h89l19 99h-89z" />
    <glyph glyph-name="dollar" unicode="$" horiz-adv-x="574" 
d="M248 -58l0.00292969 89.999c-43.333 1.33301 -81.333 5.5 -114 12.5s-63 16.5 -91 28.5v140c29.333 -13.333 62.5 -24.833 99.5 -34.5s72.167 -15.834 105.5 -18.501v138c-46.667 16 -85.834 33.167 -117.501 51.5s-55.5 40 -71.5 65s-24 55.833 -24 92.5
c0 55.333 19.667 98 59 128s90.666 47.333 153.999 52v72h78v-70c38.667 -2 74.667 -7 108 -15s64.666 -18.333 93.999 -31l-45 -123c-25.333 10.667 -51.5 19.167 -78.5 25.5s-53.167 10.833 -78.5 13.5v-134c41.333 -14 78.333 -28.667 111 -44s58.5 -35.166 77.5 -59.499
s28.5 -56.166 28.5 -95.499c0 -50.667 -17.667 -93.667 -53 -129s-90 -56.333 -164 -63v-92h-78zM248.003 451.999v105c-39.333 -5.33301 -59 -20.666 -59 -45.999c0 -13.333 4.5 -24.333 13.5 -33s24.167 -17.334 45.5 -26.001zM326.003 162.999
c41.333 6.66699 62 23.999 62 51.999c0 12.667 -4.83301 23.334 -14.5 32.001s-25.5 17.667 -47.5 27v-111z" />
    <glyph glyph-name="percent" unicode="%" horiz-adv-x="923" 
d="M199 724c56 0 99.667 -19.5 131 -58.5s47 -93.833 47 -164.5s-14.667 -125.834 -44 -165.501s-74 -59.5 -134 -59.5c-54.667 0 -97.334 19.833 -128.001 59.5s-46 94.834 -46 165.501s14.333 125.5 43 164.5s72.334 58.5 131.001 58.5zM723 714l-396 -714h-130l396 714
h130zM201 614c-15.333 0 -26.166 -9.66699 -32.499 -29s-9.5 -47.666 -9.5 -84.999s3.16699 -66 9.5 -86s17.166 -30 32.499 -30s26.166 10 32.499 30s9.5 48.667 9.5 86s-3.16699 65.666 -9.5 84.999s-17.166 29 -32.499 29zM719 439c56 0 99.667 -19.5 131 -58.5
s47 -93.833 47 -164.5s-14.667 -125.834 -44 -165.501s-74 -59.5 -134 -59.5c-54.667 0 -97.334 19.833 -128.001 59.5s-46 94.834 -46 165.501s14.333 125.5 43 164.5s72.334 58.5 131.001 58.5zM721 330c-15.333 0 -26.166 -10 -32.499 -30s-9.5 -48.333 -9.5 -85
s3.16699 -65 9.5 -85s17.166 -30 32.499 -30c28 0 42 38.333 42 115s-14 115 -42 115z" />
    <glyph glyph-name="ampersand" unicode="&#x26;" horiz-adv-x="773" 
d="M319 724c62 0 112.33 -14.3311 150.997 -42.998s58 -68.334 58 -119.001c0 -44 -13 -81.333 -39 -112s-58.667 -57.667 -98 -81l120 -115c12.667 20 23.5 41.667 32.5 65s16.5 47.333 22.5 72h175c-10 -42.667 -25.167 -85.667 -45.5 -129s-44.166 -82 -71.499 -116
l151 -146h-213l-52 53c-28.667 -19.333 -59 -34.666 -91 -45.999s-72.667 -17 -122 -17c-55.333 0 -102.166 8.83301 -140.499 26.5s-67.666 42 -87.999 73s-30.5 66.167 -30.5 105.5c0 47.333 11.5 86.666 34.5 117.999s55.5 58.666 97.5 81.999
c-23.333 26.667 -40.5 52.5 -51.5 77.5s-16.5 52.833 -16.5 83.5c0 50 19.333 90.5 58 121.5s91.667 46.5 159 46.5zM316.997 604.002c-15.333 0 -29.333 -4.16895 -42 -12.502s-19 -22.833 -19 -43.5c0 -15.333 4.33301 -30.166 13 -44.499s19.334 -28.166 32.001 -41.499
c23.333 13.333 41.333 27.5 54 42.5s19 31.167 19 48.5c0 18 -5.83301 31 -17.5 39s-24.834 12 -39.501 12zM263.997 298c-16.667 -12.667 -29.333 -26.167 -38 -40.5s-13 -30.5 -13 -48.5c0 -24.667 9.16699 -44.5 27.5 -59.5s41.5 -22.5 69.5 -22.5
c20.667 0 39.167 2.66699 55.5 8s30.5 12 42.5 20z" />
    <glyph glyph-name="quotesingle" unicode="'" horiz-adv-x="278" 
d="M216 714l-20 -258h-114l-20 258h154z" />
    <glyph glyph-name="parenleft" unicode="(" horiz-adv-x="348" 
d="M38 279c0 81.333 11.167 160.5 33.5 237.5s58.833 145.833 109.5 206.5h139c-45.333 -62.667 -79 -132.5 -101 -209.5s-33 -154.833 -33 -233.5c0 -77.333 11 -154.333 33 -231s55.333 -145.667 100 -207h-138c-50.667 58.667 -87.167 126 -109.5 202
s-33.5 154.333 -33.5 235z" />
    <glyph glyph-name="parenright" unicode=")" horiz-adv-x="348" 
d="M310 279c0 -80.667 -11 -159 -33 -235s-58.333 -143.333 -109 -202h-138c44.667 61.333 78 130.333 100 207s33 153.667 33 231c0 78.667 -11.167 156.5 -33.5 233.5s-55.833 146.833 -100.5 209.5h139c50.667 -60.667 87 -129.5 109 -206.5s33 -156.167 33 -237.5z" />
    <glyph glyph-name="asterisk" unicode="*" horiz-adv-x="541" 
d="M339 760l-19 -176l178 50l17 -133l-160 -11l105 -141l-118 -63l-73 147l-64 -146l-123 62l104 141l-159 13l20 131l175 -50l-20 176h137z" />
    <glyph glyph-name="plus" unicode="+" horiz-adv-x="578" 
d="M348 412h186v-119h-186v-182h-118v182h-186v119h186v184h118v-184z" />
    <glyph glyph-name="comma" unicode="," horiz-adv-x="296" 
d="M229 130l7 -11c-6 -24 -13.667 -51 -23 -81s-19.5 -60 -30.5 -90s-21.833 -57.333 -32.5 -82h-120c9.33301 42.667 18.5 88 27.5 136s15.833 90.667 20.5 128h151z" />
    <glyph glyph-name="hyphen" unicode="-" horiz-adv-x="320" 
d="M26 200v136h268v-136h-268z" />
    <glyph glyph-name="period" unicode="." horiz-adv-x="287" 
d="M50 75c0 32.667 9.16699 55.5 27.5 68.5s40.5 19.5 66.5 19.5c25.333 0 47 -6.5 65 -19.5s27 -35.833 27 -68.5c0 -31.333 -9 -53.833 -27 -67.5s-39.667 -20.5 -65 -20.5c-26 0 -48.167 6.83301 -66.5 20.5s-27.5 36.167 -27.5 67.5z" />
    <glyph glyph-name="slash" unicode="/" horiz-adv-x="426" 
d="M423 719l-266 -724h-151l266 724h151z" />
    <glyph glyph-name="zero" unicode="0" horiz-adv-x="578" 
d="M542 357c0 -76.667 -8.16699 -142.333 -24.5 -197s-43 -96.667 -80 -126s-86.5 -44 -148.5 -44c-88 0 -152.167 32.333 -192.5 97s-60.5 154.667 -60.5 270c0 76.667 8.16699 142.5 24.5 197.5s43 97.167 80 126.5s86.5 44 148.5 44c87.333 0 151.333 -32.333 192 -97
s61 -155 61 -271zM205 357.001c0 -76.667 5.83301 -134.167 17.5 -172.5s33.834 -57.5 66.501 -57.5s54.834 19.167 66.501 57.5s17.5 95.833 17.5 172.5c0 76 -5.83301 133.5 -17.5 172.5s-33.834 58.5 -66.501 58.5s-54.834 -19.5 -66.501 -58.5s-17.5 -96.5 -17.5 -172.5
z" />
    <glyph glyph-name="one" unicode="1" horiz-adv-x="578" 
d="M435 0l-172 0.00195312v385c0 8.66699 0.166992 21.667 0.5 39s0.666016 35.666 0.999023 54.999s0.833008 36.666 1.5 51.999c-5.33301 -6.66699 -12.666 -14.5 -21.999 -23.5s-18 -16.833 -26 -23.5l-82 -67l-85 106l237 191h147v-714z" />
    <glyph glyph-name="two" unicode="2" horiz-adv-x="578" 
d="M543 0l-508.003 0.000976562v115l177 179c36 37.333 64.667 68 86 92s36.5 45.167 45.5 63.5s13.5 37.833 13.5 58.5c0 25.333 -7.5 43.833 -22.5 55.5s-33.833 17.5 -56.5 17.5c-25.333 0 -50.166 -6.33301 -74.499 -19s-50.833 -31 -79.5 -55l-93 109
c20.667 18.667 42.667 36.167 66 52.5s50.833 29.666 82.5 39.999s69.834 15.5 114.501 15.5c48 0 89.333 -8.5 124 -25.5s61.334 -40 80.001 -69s28 -62.167 28 -99.5c0 -40 -7.66699 -76.333 -23 -109s-38 -65 -68 -97s-66.667 -68 -110 -108l-74 -68v-6h292v-142z" />
    <glyph glyph-name="three" unicode="3" horiz-adv-x="578" 
d="M517 556c0 -33.333 -6.99902 -62.002 -20.999 -86.002s-32.833 -43.833 -56.5 -59.5s-49.834 -27.167 -78.501 -34.5v-3c56.667 -7.33301 100.334 -24.833 131.001 -52.5s46 -65.834 46 -114.501c0 -40 -10.333 -76.333 -31 -109s-52.5 -58.667 -95.5 -78
s-98.5 -29 -166.5 -29c-42.667 0 -80.5 3.33301 -113.5 10s-64.833 16.334 -95.5 29.001v143c30.667 -16 62.667 -27.833 96 -35.5s64 -11.5 92 -11.5c50.667 0 85.834 8.16699 105.501 24.5s29.5 38.833 29.5 67.5c0 18 -4.66699 33.333 -14 46
s-25.833 22.334 -49.5 29.001s-56.834 10 -99.501 10h-49v129h50c40.667 0 72 3.66699 94 11s37.5 17.5 46.5 30.5s13.5 27.833 13.5 44.5c0 46.667 -30.667 70 -92 70c-32.667 0 -61.834 -6 -87.501 -18s-45.5 -22.333 -59.5 -31l-75 115c28.667 20 62 36.833 100 50.5
s85.333 20.5 142 20.5c73.333 0 131.333 -14.667 174 -44s64 -70.666 64 -123.999z" />
    <glyph glyph-name="four" unicode="4" horiz-adv-x="578" 
d="M562 143h-82v-143h-167v143h-296v122l306 449h157v-441h82v-130zM313 273l-0.00195312 103.001c0 13.333 0.333008 29.666 1 48.999s1.33398 37 2.00098 53s1.33398 26 2.00098 30h-5c-6 -14 -12 -26.5 -18 -37.5s-13.333 -23.167 -22 -36.5l-107 -161h147z" />
    <glyph glyph-name="five" unicode="5" horiz-adv-x="578" 
d="M311 462c42 0 79.666 -8.6709 112.999 -26.0039s59.666 -42.666 78.999 -75.999s29 -73.666 29 -120.999c0 -79.333 -24 -140.666 -72 -183.999s-119.667 -65 -215 -65c-39.333 0 -75.666 3.33301 -108.999 10s-62.666 16.334 -87.999 29.001v143
c24.667 -12.667 54.5 -23.5 89.5 -32.5s67.5 -13.5 97.5 -13.5c40.667 0 71.834 8.5 93.501 25.5s32.5 42.833 32.5 77.5c0 31.333 -10.833 55.5 -32.5 72.5s-54.834 25.5 -99.501 25.5c-18 0 -36.333 -1.83301 -55 -5.5s-34.667 -7.16699 -48 -10.5l-65 33l27 370h396v-143
h-250l-11 -119l35 6.5c12 2.33301 29.667 3.5 53 3.5z" />
    <glyph glyph-name="six" unicode="6" horiz-adv-x="578" 
d="M35 303c0 40.667 3 81.333 9 122s16.5 78.834 31.5 114.501s36.167 67.334 63.5 95.001s62.333 49.334 105 65.001s94.667 23.5 156 23.5c14 0 30.833 -0.666992 50.5 -2s35.834 -3.33301 48.501 -6v-134c-13.333 2.66699 -27.833 4.83398 -43.5 6.50098
s-33.167 2.5 -52.5 2.5c-54 0 -96 -8.33301 -126 -25s-51.5 -40.334 -64.5 -71.001s-20.5 -66.334 -22.5 -107.001h6c13.333 23.333 31.666 43 54.999 59s54.333 24 93 24c62.667 0 112 -20 148 -60s54 -96.333 54 -169c0 -79.333 -22.167 -141 -66.5 -185
s-104.5 -66 -180.5 -66c-50 0 -94.833 11.167 -134.5 33.5s-71.167 56.666 -94.5 102.999s-35 105.166 -35 176.499zM296 125.999c25.333 0 45.8311 9 61.498 27s23.5 46.333 23.5 85c0 30.667 -6.66699 55 -20 73s-34.333 27 -63 27c-29.333 0 -52.333 -9.33301 -69 -28
s-25 -39 -25 -61c0 -19.333 3.33301 -38.5 10 -57.5s16.834 -34.667 30.501 -47s30.834 -18.5 51.501 -18.5z" />
    <glyph glyph-name="seven" unicode="7" horiz-adv-x="578" 
d="M107 0l257 572h-332v142h513v-104l-261 -610h-177z" />
    <glyph glyph-name="eight" unicode="8" horiz-adv-x="578" 
d="M290 723c44 0 83.502 -6.33398 118.502 -19.001s62.833 -31.834 83.5 -57.501s31 -57.5 31 -95.5c0 -43.333 -11.833 -78.833 -35.5 -106.5s-53.834 -50.167 -90.501 -67.5c24 -13.333 47.167 -28.666 69.5 -45.999s40.833 -37.833 55.5 -61.5s22 -51.167 22 -82.5
c0 -58.667 -22.167 -106.167 -66.5 -142.5s-107.166 -54.5 -188.499 -54.5c-84.667 0 -148.334 17.667 -191.001 53s-64 82.333 -64 141c0 49.333 12.833 88.5 38.5 117.5s57.5 52.833 95.5 71.5c-30.667 20 -57 44.167 -79 72.5s-33 63.833 -33 106.5
c0 37.333 10.5 68.833 31.5 94.5s49.167 44.834 84.5 57.501s74.666 19 117.999 19zM289.002 599.999c-20.667 0 -38 -5.66602 -52 -16.999s-21 -26.666 -21 -45.999c0 -20.667 7.16699 -38 21.5 -52s31.5 -26 51.5 -36c18.667 8.66699 35.667 19.667 51 33
s23 31.666 23 54.999c0 19.333 -7.16699 34.666 -21.5 45.999s-31.833 17 -52.5 17zM191.002 193c0 -23.333 8.16797 -42.334 24.501 -57.001s40.166 -22 71.499 -22c34 0 59.167 7 75.5 21s24.5 32.333 24.5 55c0 16.667 -4.83301 31.5 -14.5 44.5s-21.5 24.333 -35.5 34
s-27 18.167 -39 25.5l-13 8c-27.333 -13.333 -49.833 -28.666 -67.5 -45.999s-26.5 -38.333 -26.5 -63z" />
    <glyph glyph-name="nine" unicode="9" horiz-adv-x="578" 
d="M543 405c0 -56.667 -5.83105 -110.167 -17.498 -160.5s-31.334 -94.5 -59.001 -132.5s-65 -67.833 -112 -89.5s-105.833 -32.5 -176.5 -32.5c-14 0 -30.5 0.5 -49.5 1.5s-34.833 2.5 -47.5 4.5v136c27.333 -6 56.666 -9 87.999 -9c56.667 0 100.5 8.5 131.5 25.5
s52.833 40.833 65.5 71.5s20 66 22 106h-6c-13.333 -23.333 -31 -43 -53 -59s-54.667 -24 -98 -24c-60.667 0 -109 20 -145 60s-54 96.667 -54 170c0 78 22 139.167 66 183.5s104.333 66.5 181 66.5c49.333 0 94 -11.333 134 -34s71.667 -57.5 95 -104.5
s35 -106.833 35 -179.5zM283.002 587c-26 0 -46.999 -9 -62.999 -27s-24 -46.333 -24 -85c0 -31.333 7 -56 21 -74s35.333 -27 64 -27c27.333 0 49.666 9.5 66.999 28.5s26 39.167 26 60.5c0 20 -3.33301 39.5 -10 58.5s-16.667 34.667 -30 47s-30.333 18.5 -51 18.5z" />
    <glyph glyph-name="colon" unicode=":" horiz-adv-x="287" 
d="M50 470c0 32 9.16699 54.667 27.5 68s40.5 20 66.5 20c25.333 0 47 -6.66699 65 -20s27 -36 27 -68c0 -30.667 -9 -53 -27 -67s-39.667 -21 -65 -21c-26 0 -48.167 7 -66.5 21s-27.5 36.333 -27.5 67zM50 75c0 32.667 9.16699 55.5 27.5 68.5s40.5 19.5 66.5 19.5
c25.333 0 47 -6.5 65 -19.5s27 -35.833 27 -68.5c0 -31.333 -9 -53.833 -27 -67.5s-39.667 -20.5 -65 -20.5c-26 0 -48.167 6.83301 -66.5 20.5s-27.5 36.167 -27.5 67.5z" />
    <glyph glyph-name="semicolon" unicode=";" horiz-adv-x="291" 
d="M51 470c0 32 9.16699 54.667 27.5 68s40.5 20 66.5 20c24.667 0 46.334 -6.66699 65.001 -20s28 -36 28 -68c0 -30.667 -9.33301 -53 -28 -67s-40.334 -21 -65.001 -21c-26 0 -48.167 7 -66.5 21s-27.5 36.333 -27.5 67zM229 130l7 -11c-6 -24 -13.667 -51 -23 -81
s-19.5 -60 -30.5 -90s-21.833 -57.333 -32.5 -82h-120c9.33301 42.667 18.5 88 27.5 136s15.833 90.667 20.5 128h151z" />
    <glyph glyph-name="less" unicode="&#x3c;" horiz-adv-x="578" 
d="M533 93l-489 217v76l489 245v-130l-320 -148l320 -130v-130z" />
    <glyph glyph-name="equal" unicode="=" horiz-adv-x="578" 
d="M44 396v117h490v-117h-490zM44 191v118h490v-118h-490z" />
    <glyph glyph-name="greater" unicode="&#x3e;" horiz-adv-x="578" 
d="M44 223l320 130l-320 148v130l489 -245v-76l-489 -217v130z" />
    <glyph glyph-name="question" unicode="?" horiz-adv-x="490" 
d="M139 244v39.001c0 31.333 6.5 58.333 19.5 81s36.833 45.667 71.5 69c31.333 21.333 52.5 39.166 63.5 53.499s16.5 30.5 16.5 48.5c0 17.333 -7.16699 30.833 -21.5 40.5s-33.5 14.5 -57.5 14.5c-26.667 0 -54 -4.33301 -82 -13s-57 -21 -87 -37l-60 119
c34 19.333 70.833 35 110.5 47s83.167 18 130.5 18c71.333 0 126.833 -16.5 166.5 -49.5s59.5 -75.5 59.5 -127.5c0 -40 -9.5 -73.667 -28.5 -101s-48.5 -54.666 -88.5 -81.999c-29.333 -20.667 -49 -36.834 -59 -48.501s-15 -26.5 -15 -44.5v-27h-139zM121 75.001
c0 32.667 9.16699 55.5 27.5 68.5s40.5 19.5 66.5 19.5c24.667 0 46.167 -6.5 64.5 -19.5s27.5 -35.833 27.5 -68.5c0 -31.333 -9.16699 -53.833 -27.5 -67.5s-39.833 -20.5 -64.5 -20.5c-26 0 -48.167 6.83301 -66.5 20.5s-27.5 36.167 -27.5 67.5z" />
    <glyph glyph-name="at" unicode="@" horiz-adv-x="897" 
d="M852 363c0 -31.333 -3.83203 -62 -11.499 -92s-19.167 -57.167 -34.5 -81.5s-34.5 -43.833 -57.5 -58.5s-49.5 -22 -79.5 -22c-24.667 0 -47 5.5 -67 16.5s-34.667 25.833 -44 44.5h-8c-14 -16.667 -31.833 -31 -53.5 -43s-47.167 -18 -76.5 -18
c-61.333 0 -107.666 18 -138.999 54s-47 83.333 -47 142c0 44.667 9.5 84.167 28.5 118.5s46.667 61.5 83 81.5s79.833 30 130.5 30c32 0 64.333 -2.83301 97 -8.5s59 -12.167 79 -19.5l-10 -205c-0.666992 -5.33301 -1 -12 -1 -20v-20c0 -22 3 -36.833 9 -44.5
s13.333 -11.5 22 -11.5c13.333 0 24.666 7.16699 33.999 21.5s16.333 33.5 21 57.5s7 50.333 7 79c0 79.333 -23 141.5 -69 186.5s-108.333 67.5 -187 67.5c-68 0 -125.333 -14 -172 -42s-81.834 -66.667 -105.501 -116s-35.5 -105.333 -35.5 -168
c0 -85.333 23.167 -151.833 69.5 -199.5s114.5 -71.5 204.5 -71.5c38 0 78.667 4.33301 122 13s83.666 19.667 120.999 33v-102c-33.333 -14 -70.166 -25 -110.499 -33s-82.833 -12 -127.5 -12c-84 0 -155.667 14.833 -215 44.5s-104.833 72.167 -136.5 127.5
s-47.5 121.666 -47.5 198.999c0 60 10 116 30 168s48.833 97.333 86.5 136s83 68.834 136 90.501s112.5 32.5 178.5 32.5c74 0 139.167 -14.333 195.5 -43s100.5 -69.5 132.5 -122.5s48 -116.167 48 -189.5zM358.001 304c0 -34.667 6.83203 -59.668 20.499 -75.001
s31.834 -23 54.501 -23c30.667 0 52.167 11.5 64.5 34.5s19.833 56.5 22.5 100.5l6 93c-12.667 2.66699 -27.667 4 -45 4c-29.333 0 -53 -6.33301 -71 -19s-31.167 -29.167 -39.5 -49.5s-12.5 -42.166 -12.5 -65.499z" />
    <glyph glyph-name="A" unicode="A" horiz-adv-x="707" 
d="M521 0l-44 153h-247l-44 -153h-186l243 717h218l246 -717h-186zM439 295l-42.001 142.999l-13.5 48.5l-17 62.5c-5.66699 21.333 -10.167 39.333 -13.5 54l-13 -54.5l-16 -63c-5.33301 -20.333 -9.66602 -36.166 -12.999 -47.499l-42 -143h170z" />
    <glyph glyph-name="B" unicode="B" horiz-adv-x="673" 
d="M84 714h234.002c98.667 0 171.5 -14.333 218.5 -43s70.5 -74.334 70.5 -137.001c0 -43.333 -10.833 -78.5 -32.5 -105.5s-47.834 -43.5 -78.501 -49.5v-5c21.333 -5.33301 41.833 -13.666 61.5 -24.999s35.5 -28.333 47.5 -51s18 -52.667 18 -90
c0 -65.333 -23.833 -116.333 -71.5 -153s-112.834 -55 -195.501 -55h-272v714zM254.002 435h75c38 0 64.667 6.83301 80 20.5s23 32.167 23 55.5c0 46 -36.667 69 -110 69h-68v-145zM254.002 305v-169h85c40 0 67.833 8 83.5 24s23.5 37 23.5 63
c0 23.333 -8 42.833 -24 58.5s-45 23.5 -87 23.5h-81z" />
    <glyph glyph-name="C" unicode="C" horiz-adv-x="643" 
d="M394 583c-52.667 0 -93.167 -20.1689 -121.5 -60.502s-42.5 -96.166 -42.5 -167.499c0 -72.667 13.667 -128.167 41 -166.5s70 -57.5 128 -57.5c30 0 59.667 3.83301 89 11.5s60.333 17.5 93 29.5v-144c-31.333 -13.333 -63 -23 -95 -29s-66.667 -9 -104 -9
c-76 0 -138 15.333 -186 46s-83.5 73.334 -106.5 128.001s-34.5 118.667 -34.5 192c0 72 13.167 135.667 39.5 191s64.833 98.666 115.5 129.999s112.334 47 185.001 47c35.333 0 71.333 -4.16699 108 -12.5s72 -20.833 106 -37.5l-53 -136
c-26.667 12.667 -53.334 23.334 -80.001 32.001s-54 13 -82 13z" />
    <glyph glyph-name="D" unicode="D" horiz-adv-x="737" 
d="M682 368c0 -122.667 -34.001 -214.667 -102.001 -276s-161.667 -92 -281 -92h-215v714h235c112.667 0 201.334 -29.5 266.001 -88.5s97 -144.833 97 -257.5zM505.999 362c0 72.667 -15.5 126.333 -46.5 161s-76.167 52 -135.5 52h-70v-435h55c67.333 0 117 18.5 149 55.5
s48 92.5 48 166.5z" />
    <glyph glyph-name="E" unicode="E" horiz-adv-x="555" 
d="M501 0h-417v714h417v-138h-247v-137h229v-138h-229v-161h247v-140z" />
    <glyph glyph-name="F" unicode="F" horiz-adv-x="544" 
d="M252 0h-168v714h415v-138h-247v-162h229v-138h-229v-276z" />
    <glyph glyph-name="G" unicode="G" horiz-adv-x="731" 
d="M362 409h294.998v-377c-37.333 -12.667 -77.833 -22.834 -121.5 -30.501s-91.167 -11.5 -142.5 -11.5c-104.667 0 -187.167 30.833 -247.5 92.5s-90.5 153.5 -90.5 275.5c0 74.667 14.333 139.334 43 194.001s70.834 97 126.501 127s123.834 45 204.501 45
c40.667 0 80.167 -4 118.5 -12s72.166 -18.667 101.499 -32l-55 -135c-23.333 11.333 -48.833 20.5 -76.5 27.5s-57.167 10.5 -88.5 10.5c-43.333 0 -79.833 -9.83301 -109.5 -29.5s-51.834 -46.667 -66.501 -81s-22 -73.5 -22 -117.5
c0 -68.667 14.167 -123.167 42.5 -163.5s72.5 -60.5 132.5 -60.5c16.667 0 32.834 1 48.501 3s28.834 4 39.501 6v132h-132v137z" />
    <glyph glyph-name="H" unicode="H" horiz-adv-x="765" 
d="M681 0h-170v300h-256v-300h-171v714h171v-273h256v273h170v-714z" />
    <glyph glyph-name="I" unicode="I" horiz-adv-x="413" 
d="M380 0h-347v97l88 37v446l-88 37v97h347v-97l-88 -37v-446l88 -37v-97z" />
    <glyph glyph-name="J" unicode="J" horiz-adv-x="341" 
d="M18 -216c-21.333 0 -39.667 1 -55 3s-28.333 4.33301 -39 7v137l33.5 -6.5c11.667 -2.33301 24.167 -3.5 37.5 -3.5c30 0 52.667 9.33301 68 28s23 52 23 100v665h171v-657c0 -66 -10.167 -119 -30.5 -159s-48.5 -69 -84.5 -87s-77.333 -27 -124 -27z" />
    <glyph glyph-name="K" unicode="K" horiz-adv-x="675" 
d="M675 0l-194 -0.000976562l-165 288l-61 -40v-248h-171v714h171v-319c8.66699 14.667 18.167 29.334 28.5 44.001l30.5 43l174 232h187l-238 -318z" />
    <glyph glyph-name="L" unicode="L" horiz-adv-x="573" 
d="M84 0v714h170v-575h283v-139h-453z" />
    <glyph glyph-name="M" unicode="M" horiz-adv-x="954" 
d="M390 0l-159.998 538.999h-4c1.33301 -13.333 2.66602 -32.5 3.99902 -57.5s2.66602 -51.833 3.99902 -80.5s2 -55 2 -79v-322h-152v714h230l159 -528h4l164 528h229v-714h-158v326c0 22.667 0.5 47.834 1.5 75.501s2 54 3 79s1.83301 44.167 2.5 57.5h-4l-165 -538h-160z
" />
    <glyph glyph-name="N" unicode="N" horiz-adv-x="823" 
d="M739 0h-220l-288 523h-4c0.666992 -12.667 1.5 -29.667 2.5 -51s2.16699 -44.5 3.5 -69.5s2.33301 -49.167 3 -72.5v-330h-152v714h219l287 -517h3c-0.666992 12 -1.5 28.333 -2.5 49s-2 43.167 -3 67.5s-1.5 47.5 -1.5 69.5v331h153v-714z" />
    <glyph glyph-name="O" unicode="O" horiz-adv-x="796" 
d="M741 358c0 -74 -11.998 -138.5 -35.998 -193.5s-61.167 -97.833 -111.5 -128.5s-115.5 -46 -195.5 -46c-78.667 0 -143.334 15.333 -194.001 46s-88.167 73.667 -112.5 129s-36.5 120 -36.5 194s12.167 138.333 36.5 193s61.833 97.167 112.5 127.5
s115.667 45.5 195 45.5s144.166 -15.167 194.499 -45.5s87.5 -73 111.5 -128s36 -119.5 36 -193.5zM234.002 358c0 -70 12.834 -125 38.501 -165s67.5 -60 125.5 -60c58.667 0 100.667 20 126 60s38 95 38 165s-12.5 125.167 -37.5 165.5s-66.833 60.5 -125.5 60.5
s-100.834 -20.167 -126.501 -60.5s-38.5 -95.5 -38.5 -165.5z" />
    <glyph glyph-name="P" unicode="P" horiz-adv-x="630" 
d="M321 714c91.333 0 158.833 -19.668 202.5 -59.001s65.5 -94.666 65.5 -165.999c0 -42 -8.66699 -81.5 -26 -118.5s-46 -67 -86 -90s-94.333 -34.5 -163 -34.5h-60v-246h-170v714h237zM315 574.999l-61 0.000976562v-190h45c34.667 0 63 7.66699 85 23
s33 40.666 33 75.999c0 60.667 -34 91 -102 91z" />
    <glyph glyph-name="Q" unicode="Q" horiz-adv-x="796" 
d="M741 358c0 -77.333 -13.3311 -144.832 -39.998 -202.499s-68.667 -100.834 -126 -129.501l173 -196h-215l-126 160h-9c-78.667 0 -143.334 15.333 -194.001 46s-88.167 73.667 -112.5 129s-36.5 120 -36.5 194s12.167 138.333 36.5 193s61.833 97.167 112.5 127.5
s115.667 45.5 195 45.5s144.166 -15.167 194.499 -45.5s87.5 -73 111.5 -128s36 -119.5 36 -193.5zM234.002 358.001c0 -70 12.834 -125 38.501 -165s67.5 -60 125.5 -60c58.667 0 100.667 20 126 60s38 95 38 165s-12.5 125.167 -37.5 165.5s-66.833 60.5 -125.5 60.5
s-100.834 -20.167 -126.501 -60.5s-38.5 -95.5 -38.5 -165.5z" />
    <glyph glyph-name="R" unicode="R" horiz-adv-x="668" 
d="M304 714c192 0 288 -70.998 288 -212.998c0 -46.667 -12.167 -85.334 -36.5 -116.001s-54.833 -55.334 -91.5 -74.001l209 -311h-191l-161 268h-67v-268h-170v714h220zM297 580.002h-43v-179h43c40.667 0 71.167 7.5 91.5 22.5s30.5 38.833 30.5 71.5
c0 28.667 -9.66699 50 -29 64s-50.333 21 -93 21z" />
    <glyph glyph-name="S" unicode="S" horiz-adv-x="563" 
d="M526 207c0 -40.667 -9.99902 -77.501 -29.999 -110.501s-50 -59 -90 -78s-90.333 -28.5 -151 -28.5c-42.667 0 -80.5 3.66699 -113.5 11s-65.167 18.333 -96.5 33v155c36 -16.667 72.833 -30.667 110.5 -42s73.834 -17 108.501 -17c33.333 0 57.166 6 71.499 18
s21.5 27.667 21.5 47c0 23.333 -11.5 42 -34.5 56s-56.167 31 -99.5 51c-28 13.333 -55.167 28.5 -81.5 45.5s-47.833 39 -64.5 66s-25 61.833 -25 104.5c0 66.667 23 117.667 69 153s107.667 53 185 53c41.333 0 79.833 -4.66699 115.5 -14s70.167 -21.333 103.5 -36
l-54 -133c-32 14 -61.833 24.833 -89.5 32.5s-54.5 11.5 -80.5 11.5c-27.333 0 -47.666 -5.66699 -60.999 -17s-20 -25.666 -20 -42.999c0 -14 4.66699 -26.167 14 -36.5s24 -20.833 44 -31.5s46.333 -23.667 79 -39c35.333 -16 65.666 -33.333 90.999 -52
s44.666 -40.667 57.999 -66s20 -56.333 20 -93z" />
    <glyph glyph-name="T" unicode="T" horiz-adv-x="585" 
d="M377 0h-170v573h-185v141h540v-141h-185v-573z" />
    <glyph glyph-name="U" unicode="U" horiz-adv-x="756" 
d="M677 714l-0.000976562 -446.997c0 -54 -11 -101.833 -33 -143.5s-55.5 -74.334 -100.5 -98.001s-101.167 -35.5 -168.5 -35.5c-96 0 -169.333 24.667 -220 74s-76 116.666 -76 201.999v448h171v-429c0 -55.333 10.833 -94.5 32.5 -117.5s53.834 -34.5 96.501 -34.5
c44.667 0 77.167 12.167 97.5 36.5s30.5 63.166 30.5 116.499v428h170z" />
    <glyph glyph-name="V" unicode="V" horiz-adv-x="670" 
d="M670 714l-239 -713.999h-193l-238 714h183l116 -396c3.33301 -10.667 7.5 -26 12.5 -46s9.83301 -40.833 14.5 -62.5s7.66699 -39.5 9 -53.5c2 14 5.16699 31.667 9.5 53s9 42.166 14 62.499s8.83301 35.5 11.5 45.5l118 397h182z" />
    <glyph glyph-name="W" unicode="W" horiz-adv-x="1000" 
d="M993 714l-179.003 -714.002h-198l-83 345c-1.33301 6.66699 -3.66602 17.334 -6.99902 32.001s-6.66602 30.667 -9.99902 48l-9.5 50.5c-3 16.333 -4.83301 29.833 -5.5 40.5c-1.33301 -10.667 -3.5 -24.167 -6.5 -40.5l-9.5 -50.5l-9.5 -47.5
c-3 -14.333 -5.5 -25.166 -7.5 -32.499l-84 -345h-197l-180 714h166l85 -375c3.33301 -14 7.33301 -32.667 12 -56s9.16699 -47.333 13.5 -72s7.5 -44.667 9.5 -60c2.66699 21.333 6.66699 46.5 12 75.5s10.833 57 16.5 84s10.5 48.167 14.5 63.5l85 340h159l85 -340
c2.66699 -11.333 5.83398 -26.333 9.50098 -45l12 -60.5c4.33301 -21.667 8.33301 -42.834 12 -63.501s6.5 -38.667 8.5 -54c2 16.667 5.16699 36.834 9.5 60.501l13.5 70.5c4.66699 23.333 8.66699 42 12 56l85 376h166z" />
    <glyph glyph-name="X" unicode="X" horiz-adv-x="693" 
d="M691 0h-196l-153 248l-153 -248h-188l237 367l-223 347h189l143 -240l138 240h189l-224 -359z" />
    <glyph glyph-name="Y" unicode="Y" horiz-adv-x="642" 
d="M321 433l137 281h184l-236 -436v-278h-170v273l-236 441h185z" />
    <glyph glyph-name="Z" unicode="Z" horiz-adv-x="594" 
d="M569 0h-542v108l327 467h-319v139h526v-108l-327 -467h335v-139z" />
    <glyph glyph-name="bracketleft" unicode="[" horiz-adv-x="328" 
d="M304 -163h-240v886h240v-112h-100v-661h100v-113z" />
    <glyph glyph-name="backslash" unicode="\" horiz-adv-x="426" 
d="M155 719l266 -724h-150l-266 724h150z" />
    <glyph glyph-name="bracketright" unicode="]" horiz-adv-x="328" 
d="M24 -50h100v661h-100v112h240v-886h-240v113z" />
    <glyph glyph-name="asciicircum" unicode="^" horiz-adv-x="550" 
d="M9 250l214 468h76l245 -468h-130l-149 299l-130 -299h-126z" />
    <glyph glyph-name="underscore" unicode="_" horiz-adv-x="452" 
d="M454 -170h-456v92h456v-92z" />
    <glyph glyph-name="grave" unicode="`" horiz-adv-x="388" 
d="M227 766c10 -14.667 22.501 -31.166 37.501 -49.499l45 -53l38.5 -44.5v-13h-112c-13.333 8.66699 -28.833 19.5 -46.5 32.5l-55 41.5l-53.5 42c-16.667 13.333 -30.334 24.666 -41.001 33.999v10h187z" />
    <glyph glyph-name="a" unicode="a" horiz-adv-x="613" 
d="M318 560c71.333 0 126.669 -16.501 166.002 -49.501s59 -81.833 59 -146.5v-364h-117l-33 74h-4c-23.333 -29.333 -48 -50.666 -74 -63.999s-61.667 -20 -107 -20c-48.667 0 -89 14.333 -121 43s-48 73 -48 133c0 58.667 20.5 102 61.5 130s101.167 43.667 180.5 47l94 3
v16c0 26.667 -6.83301 46 -20.5 58s-32.5 18 -56.5 18c-24.667 0 -49.834 -3.83301 -75.501 -11.5s-51.834 -17.167 -78.501 -28.5l-51 112c30 16 64 28.333 102 37s79 13 123 13zM375.003 249.999l-51 -2c-42 -1.33301 -71.333 -8.83301 -88 -22.5s-25 -32.167 -25 -55.5
c0 -21.333 5.83301 -36.5 17.5 -45.5s27.167 -13.5 46.5 -13.5c28 0 51.667 8.5 71 25.5s29 40.167 29 69.5v44z" />
    <glyph glyph-name="b" unicode="b" horiz-adv-x="638" 
d="M241 760l-0.000976562 -175.001c0 -20 -0.666992 -39.5 -2 -58.5s-3 -35.167 -5 -48.5h7c14 22.667 33 41.834 57 57.501s55.333 23.5 94 23.5c59.333 0 107.833 -24 145.5 -72s56.5 -118.333 56.5 -211c0 -94 -19.167 -165.167 -57.5 -213.5
s-88.166 -72.5 -149.499 -72.5c-39.333 0 -70 7 -92 21s-40 29.333 -54 46h-11l-27 -57h-131v760h169zM333.999 425.999c-33.333 0 -57 -10.8311 -71 -32.498s-21.333 -54.834 -22 -99.501v-21c0 -48.667 6.83301 -85.334 20.5 -110.001s38.5 -37 74.5 -37
c26.667 0 47.667 13 63 39s23 63.667 23 113c0 98.667 -29.333 148 -88 148z" />
    <glyph glyph-name="c" unicode="c" horiz-adv-x="526" 
d="M308 -10c-82.667 0 -147.333 22.499 -194 67.499s-70 116.5 -70 214.5c0 66.667 12 121.167 36 163.5s56.833 73.5 98.5 93.5s89.5 30 143.5 30c36 0 68.333 -3.66699 97 -11s54.667 -16.666 78 -27.999l-49 -127c-23.333 9.33301 -45 17 -65 23s-40.333 9 -61 9
c-34.667 0 -61.167 -12.5 -79.5 -37.5s-27.5 -63.167 -27.5 -114.5s9.66699 -88.833 29 -112.5s45.666 -35.5 78.999 -35.5c28.667 0 56 4.16699 82 12.5s50.667 20.166 74 35.499v-138c-23.333 -15.333 -48.166 -26.666 -74.499 -33.999s-58.5 -11 -96.5 -11z" />
    <glyph glyph-name="d" unicode="d" horiz-adv-x="638" 
d="M245 -10c-59.333 0 -107.667 24.001 -145 72.001s-56 118.667 -56 212c0 94 19 165 57 213s87.667 72 149 72c38.667 0 70 -7.66699 94 -23s43.333 -34.333 58 -57h4c-2 12 -4.16699 29.167 -6.5 51.5s-3.5 44.5 -3.5 66.5v163h169v-760h-128l-34 71h-7
c-14 -22.667 -32.833 -41.834 -56.5 -57.501s-55.167 -23.5 -94.5 -23.5zM308.999 124.001c36 0 61.5 11 76.5 33s22.833 55.333 23.5 100v15c0 49.333 -7.16699 86.833 -21.5 112.5s-41.166 38.5 -80.499 38.5c-28.667 0 -51.334 -12.667 -68.001 -38s-25 -63.333 -25 -114
c0 -50 8.5 -87 25.5 -111s40.167 -36 69.5 -36z" />
    <glyph glyph-name="e" unicode="e" horiz-adv-x="603" 
d="M309 559c77.333 0 138.668 -21.167 184.001 -63.5s68 -104.5 68 -186.5v-78h-347c1.33301 -36 13 -64.667 35 -86s53.333 -32 94 -32c35.333 0 67.333 3.33301 96 10s58.334 17.334 89.001 32.001v-125c-26.667 -14 -55.334 -24.167 -86.001 -30.5
s-68.334 -9.5 -113.001 -9.5c-55.333 0 -104.5 10 -147.5 30s-76.667 50.667 -101 92s-36.5 94.333 -36.5 159c0 97.333 24.333 169.666 73 216.999s112.667 71 192 71zM312.002 442c-26 0 -47.498 -8.33105 -64.498 -24.998s-27.167 -42.334 -30.5 -77.001h189
c-0.666992 29.333 -8.83398 53.666 -24.501 72.999s-38.834 29 -69.501 29z" />
    <glyph glyph-name="f" unicode="f" horiz-adv-x="399" 
d="M391 423h-124.002v-423h-168v423h-78v82l80 43v26c0 70.667 16 120.167 48 148.5s79.333 42.5 142 42.5c28.667 0 54.834 -2.16699 78.501 -6.5s45.5 -10.166 65.5 -17.499l-40 -116c-10.667 3.33301 -22.167 6.16602 -34.5 8.49902s-26.166 3.5 -41.499 3.5
c-34.667 0 -52 -21 -52 -63v-25h124v-126z" />
    <glyph glyph-name="g" unicode="g" horiz-adv-x="638" 
d="M249 559c36 0 66.5 -7 91.5 -21s46.167 -33.333 63.5 -58h4l13 69h144v-550c0 -78 -23.5 -137.333 -70.5 -178s-117.833 -61 -212.5 -61c-41.333 0 -78.833 2.33301 -112.5 7s-66.167 13 -97.5 25v137c33.333 -14 66.5 -24.5 99.5 -31.5s69.833 -10.5 110.5 -10.5
c76.667 0 115 35 115 105v11c0 20 1.66699 42.667 5 68h-5c-16 -25.333 -36.5 -45.166 -61.5 -59.499s-54.833 -21.5 -89.5 -21.5c-62 0 -111.167 24.667 -147.5 74s-54.5 119.333 -54.5 210c0 91.333 18.5 161.666 55.5 210.999s86.833 74 149.5 74zM308 426
c-62 0 -93.001 -51.668 -93.001 -155.001c0 -51.333 7.66699 -89.166 23 -113.499s39.333 -36.5 72 -36.5c34.667 0 59.834 10.5 75.501 31.5s23.5 54.833 23.5 101.5v21c0 51.333 -7.5 89.333 -22.5 114s-41.167 37 -78.5 37z" />
    <glyph glyph-name="h" unicode="h" horiz-adv-x="663" 
d="M241 760l-0.000976562 -133c0 -33.333 -1 -63.166 -3 -89.499s-3.66699 -45.5 -5 -57.5h9c17.333 28.667 39.333 49 66 61s56.334 18 89.001 18c38 0 71.667 -7 101 -21s52.5 -35.833 69.5 -65.5s25.5 -67.834 25.5 -114.501v-358h-169v311c0 76.667 -26 115 -78 115
c-40 0 -67.5 -15.167 -82.5 -45.5s-22.5 -73.5 -22.5 -129.5v-251h-169v760h169z" />
    <glyph glyph-name="i" unicode="i" horiz-adv-x="314" 
d="M158 767c24.667 0 45.834 -5.33301 63.501 -16s26.5 -31.334 26.5 -62.001c0 -30 -8.83301 -50.5 -26.5 -61.5s-38.834 -16.5 -63.501 -16.5c-25.333 0 -46.833 5.5 -64.5 16.5s-26.5 31.5 -26.5 61.5c0 30.667 8.83301 51.334 26.5 62.001s39.167 16 64.5 16zM241 549
v-549h-168v549h168z" />
    <glyph glyph-name="j" unicode="j" horiz-adv-x="314" 
d="M67 689c0 30.667 8.83301 51.334 26.5 62.001s38.834 16 63.501 16s46 -5.33301 64 -16s27 -31.334 27 -62.001c0 -30 -9 -50.5 -27 -61.5s-39.333 -16.5 -64 -16.5s-45.834 5.5 -63.501 16.5s-26.5 31.5 -26.5 61.5zM42 -240c-16 0 -33.501 1.16699 -52.501 3.5
s-34.833 5.16602 -47.5 8.49902v132c11.333 -2.66699 21.833 -4.83398 31.5 -6.50098s20.834 -2.5 33.501 -2.5c18 0 33.333 5.5 46 16.5s19 33.167 19 66.5v571h169v-602c0 -33.333 -6.5 -64.166 -19.5 -92.499s-34 -51.166 -63 -68.499s-67.833 -26 -116.5 -26z" />
    <glyph glyph-name="k" unicode="k" horiz-adv-x="638" 
d="M241 760l0.000976562 -321c0 -21.333 -0.833008 -44 -2.5 -68s-3.83398 -46.667 -6.50098 -68h3l26 37.5c12 17 24 32.833 36 47.5l140 161h188l-205 -236l218 -313h-193l-141 210l-63 -49v-161h-169v760h169z" />
    <glyph glyph-name="l" unicode="l" horiz-adv-x="313" 
d="M241 0h-169v760h169v-760z" />
    <glyph glyph-name="m" unicode="m" horiz-adv-x="990" 
d="M729 559c62.667 0 110.168 -15.833 142.501 -47.5s48.5 -82.834 48.5 -153.501v-358h-168v311c0 40 -6.33301 69.167 -19 87.5s-31.334 27.5 -56.001 27.5c-35.333 0 -60.333 -13.667 -75 -41s-22 -66.666 -22 -117.999v-267h-168v311c0 39.333 -6 68.333 -18 87
s-30.667 28 -56 28c-37.333 0 -62.833 -15.167 -76.5 -45.5s-20.5 -73.833 -20.5 -130.5v-250h-169v549h128l24 -69h7c15.333 25.333 37.166 44.833 65.499 58.5s60.5 20.5 96.5 20.5c78.667 0 133.667 -26 165 -78h10c17.333 26 40.333 45.5 69 58.5
s59.334 19.5 92.001 19.5z" />
    <glyph glyph-name="n" unicode="n" horiz-adv-x="663" 
d="M399 559c58 0 104.832 -15.833 140.499 -47.5s53.5 -82.834 53.5 -153.501v-358h-168v311c0 38 -6.33301 66.667 -19 86s-32.667 29 -60 29c-41.333 0 -69.166 -15.167 -83.499 -45.5s-21.5 -73.833 -21.5 -130.5v-250h-169v549h128l23 -71h8
c17.333 26.667 40.5 46.834 69.5 60.501s61.833 20.5 98.5 20.5z" />
    <glyph glyph-name="o" unicode="o" horiz-adv-x="627" 
d="M583 276c0 -92 -24.167 -162.667 -72.5 -212s-114.5 -74 -198.5 -74c-52 0 -98.167 11 -138.5 33s-72 54.333 -95 97s-34.5 94.667 -34.5 156c0 90.667 24 160.5 72 209.5s114.333 73.5 199 73.5c52 0 98.167 -11 138.5 -33s72 -54 95 -96s34.5 -93.333 34.5 -154z
M215 276c0 -50.667 7.66699 -89.334 23 -116.001s40.666 -40 75.999 -40c34.667 0 59.667 13.333 75 40s23 65.334 23 116.001s-7.66699 88.834 -23 114.501s-40.666 38.5 -75.999 38.5c-34.667 0 -59.667 -12.833 -75 -38.5s-23 -63.834 -23 -114.501z" />
    <glyph glyph-name="p" unicode="p" horiz-adv-x="638" 
d="M392 559c61.333 0 110.331 -24.167 146.998 -72.5s55 -118.5 55 -210.5c0 -62.667 -9 -115.167 -27 -157.5s-42.5 -74.333 -73.5 -96s-66.5 -32.5 -106.5 -32.5c-39.333 0 -70.166 7 -92.499 21s-40.166 29.333 -53.499 46h-7c2 -12.667 3.66699 -26 5 -40s2 -29 2 -45
v-212h-169v789h137l24 -70h8c14 21.333 33 40 57 56s55.333 24 94 24zM332.998 426c-34 0 -57.667 -11 -71 -33s-20.333 -55.667 -21 -101v-15c0 -48.667 6.66699 -86 20 -112s38 -39 74 -39c58 0 87 50.667 87 152c0 50.667 -7.33301 88 -22 112s-37 36 -67 36z" />
    <glyph glyph-name="q" unicode="q" horiz-adv-x="638" 
d="M397 -240l-0.00195312 229.003c0 27.333 2 54.666 6 81.999h-6c-13.333 -22.667 -32.166 -41.834 -56.499 -57.501s-55.833 -23.5 -94.5 -23.5c-60.667 0 -109.5 24 -146.5 72s-55.5 118.667 -55.5 212s19 164.166 57 212.499s87.333 72.5 148 72.5
c39.333 0 71.333 -7.5 96 -22.5s44.334 -33.833 59.001 -56.5h4l13 69h144v-789h-168zM309.998 121.003c36.667 0 62.166 10.999 76.499 32.999s21.833 55.333 22.5 100v21c0 48 -7.16699 85.167 -21.5 111.5s-40.833 39.5 -79.5 39.5
c-31.333 0 -54.666 -13.167 -69.999 -39.5s-23 -64.833 -23 -115.5c0 -51.333 7.66699 -89.166 23 -113.499s39.333 -36.5 72 -36.5z" />
    <glyph glyph-name="r" unicode="r" horiz-adv-x="461" 
d="M391 559c8.66699 0 18.332 -0.5 28.999 -1.5s19 -2.16699 25 -3.5l-14 -158c-13.333 3.33301 -31.333 5 -54 5c-21.333 0 -42.5 -3.5 -63.5 -10.5s-38.333 -19.5 -52 -37.5s-20.5 -44 -20.5 -78v-275h-169v549h127l26 -90h7c16 27.333 37.833 50.833 65.5 70.5
s58.834 29.5 93.501 29.5z" />
    <glyph glyph-name="s" unicode="s" horiz-adv-x="506" 
d="M467 166c0 -54.667 -18.8291 -97.667 -56.4961 -129s-96.5 -47 -176.5 -47c-38.667 0 -72.5 2.33301 -101.5 7s-58.167 13 -87.5 25v136c32 -14.667 65.333 -25.834 100 -33.501s64 -11.5 88 -11.5c25.333 0 43.666 3.33301 54.999 10s17 16 17 28
c0 8.66699 -2.83301 16.334 -8.5 23.001s-17 14.167 -34 22.5s-42.167 19.5 -75.5 33.5c-32.667 13.333 -59.5 27.5 -80.5 42.5s-36.667 32.667 -47 53s-15.5 45.833 -15.5 76.5c0 52 20 91.167 60 117.5s93.667 39.5 161 39.5c35.333 0 68.666 -3.66699 99.999 -11
s63.666 -18.666 96.999 -33.999l-48 -114c-26.667 12 -53 21.667 -79 29s-49.333 11 -70 11c-38.667 0 -58 -10 -58 -30c0 -8 2.83301 -14.833 8.5 -20.5s16.667 -12.334 33 -20.001s40.166 -18.167 71.499 -31.5c31.333 -12.667 58 -26 80 -40s38.667 -31.5 50 -52.5
s17 -47.5 17 -79.5z" />
    <glyph glyph-name="t" unicode="t" horiz-adv-x="446" 
d="M321 124c16.667 0 32.5 1.66797 47.5 5.00098s30.167 7.66602 45.5 12.999v-124c-18 -8 -38.667 -14.667 -62 -20s-51 -8 -83 -8c-34 0 -64.167 5.5 -90.5 16.5s-47 30 -62 57s-22.5 64.5 -22.5 112.5v247h-70v70l84 54l46 116h108v-114h146v-126h-146v-241
c0 -19.333 5.33301 -33.833 16 -43.5s25 -14.5 43 -14.5z" />
    <glyph glyph-name="u" unicode="u" horiz-adv-x="663" 
d="M591 549v-549.002h-128l-22 70h-10c-17.333 -28 -41 -48.333 -71 -61s-62 -19 -96 -19c-56.667 0 -103.167 15.833 -139.5 47.5s-54.5 82.834 -54.5 153.501v358h169v-311c0 -37.333 6.16699 -65.666 18.5 -84.999s32.166 -29 59.499 -29c40.667 0 68.334 15 83.001 45
s22 73.333 22 130v250h169z" />
    <glyph glyph-name="v" unicode="v" horiz-adv-x="588" 
d="M209 0l-209 548.998h176l100 -318c3.33301 -11.333 6.5 -25.166 9.5 -41.499s4.83301 -31.166 5.5 -44.499h4c0.666992 14 2.5 28.5 5.5 43.5s6.5 28.833 10.5 41.5l102 319h175l-209 -549h-170z" />
    <glyph glyph-name="w" unicode="w" horiz-adv-x="881" 
d="M534 0l-49.002 214.999l-10.5 46.5c-4.33301 19 -8.66602 39.167 -12.999 60.5l-12 58.5c-3.66699 17.667 -6.5 30.834 -8.5 39.501h-4c-1.33301 -8.66699 -3.83301 -22 -7.5 -40l-12.5 -59l-13.5 -61.5c-4.33301 -19.667 -7.83301 -36.167 -10.5 -49.5l-50 -210h-179
l-153 549h166l55 -228c4 -16.667 7.83301 -36.167 11.5 -58.5s7 -44.333 10 -66s5.16699 -40.167 6.5 -55.5h3c0.666992 11.333 2.16699 25.166 4.5 41.499s5 33 8 50s5.83301 32.167 8.5 45.5s4.33398 22.333 5.00098 27l60 244h186l56 -245l9 -46.5
c4 -20.333 7.66699 -41.166 11 -62.499s5.33301 -39.333 6 -54h3c1.33301 14 3.5 32.167 6.5 54.5s6.5 45 10.5 68s8 42.167 12 57.5l57 228h164l-155 -549h-181z" />
    <glyph glyph-name="x" unicode="x" horiz-adv-x="602" 
d="M187 280l-173 269h191l96 -165l97 165h191l-175 -269l183 -280h-191l-105 178l-105 -178h-191z" />
    <glyph glyph-name="y" unicode="y" horiz-adv-x="588" 
d="M0 549l179.999 -0.00195312l99 -311c7.33301 -24 12 -50.333 14 -79h3c2 15.333 4.5 29.333 7.5 42s6.16699 24.667 9.5 36l99 312h176l-226 -603c-22.667 -61.333 -53.667 -107.666 -93 -138.999s-89.666 -47 -150.999 -47c-17.333 0 -32.166 0.833008 -44.499 2.5
s-23.166 3.5 -32.499 5.5v133c7.33301 -1.33301 16.166 -2.66602 26.499 -3.99902s21.166 -2 32.499 -2c31.333 0 55.5 9.33301 72.5 28s29.833 40.667 38.5 66l6 17z" />
    <glyph glyph-name="z" unicode="z" horiz-adv-x="497" 
d="M469 0h-443v98l242 322h-228v129h419v-106l-233 -314h243v-129z" />
    <glyph glyph-name="braceleft" unicode="{" horiz-adv-x="412" 
d="M376 -163c-62.667 0 -110.501 5.1709 -143.501 15.5039s-55.833 26.666 -68.5 48.999s-19 51.166 -19 86.499v139c0 31.333 -11.667 53.333 -35 66s-52.666 19 -87.999 19v131c36 0 65.5 6.5 88.5 19.5s34.5 34.833 34.5 65.5v141c0 34.667 6.16699 63 18.5 85
s35.166 38.333 68.499 49s81.333 16 144 16v-122c-16 -0.666992 -30.667 -2.33398 -44 -5.00098s-24.166 -8.33398 -32.499 -17.001s-12.5 -22 -12.5 -40v-139c0 -34.667 -9.83301 -61.167 -29.5 -79.5s-48.167 -30.166 -85.5 -35.499v-6
c37.333 -5.33301 65.833 -17.166 85.5 -35.499s29.5 -44.5 29.5 -78.5v-140c0 -18 4.16699 -31.333 12.5 -40s19.333 -14.334 33 -17.001s28.167 -4.33398 43.5 -5.00098v-122z" />
    <glyph glyph-name="bar" unicode="|" horiz-adv-x="532" 
d="M207 758h118v-981h-118v981z" />
    <glyph glyph-name="braceright" unicode="}" horiz-adv-x="412" 
d="M36 -163l-0.000976562 121.996c15.333 0.666992 29.833 2.33398 43.5 5.00098s24.667 8.33398 33 17.001s12.5 22 12.5 40v140c0 34 9.83301 60.167 29.5 78.5s48.167 30.166 85.5 35.499v6c-37.333 5.33301 -65.833 17.166 -85.5 35.499s-29.5 44.833 -29.5 79.5v139
c0 18 -4.16699 31.333 -12.5 40s-19.166 14.334 -32.499 17.001s-28 4.33398 -44 5.00098v122c62.667 0 110.667 -5.33301 144 -16s56.166 -27 68.499 -49s18.5 -50.333 18.5 -85v-141c0 -30.667 11.5 -52.5 34.5 -65.5s52.5 -19.5 88.5 -19.5v-131
c-35.333 0 -64.666 -6.33301 -87.999 -19s-35 -34.667 -35 -66v-139c0 -35.333 -6.33301 -64.166 -19 -86.499s-35.5 -38.666 -68.5 -48.999s-80.833 -15.5 -143.5 -15.5z" />
    <glyph glyph-name="asciitilde" unicode="~" horiz-adv-x="578" 
d="M271 295c-24.667 10.667 -45.999 17.834 -63.999 21.501s-34.333 5.5 -49 5.5c-19.333 0 -39 -5.66699 -59 -17s-38.333 -25.333 -55 -42v125c33.333 35.333 75.666 53 126.999 53c19.333 0 38.833 -1.83301 58.5 -5.5s45.5 -12.167 77.5 -25.5
c24.667 -10.667 46 -17.834 64 -21.501s34.333 -5.5 49 -5.5c18.667 0 38 5.66699 58 17s38.667 25.333 56 42v-125c-34 -35.333 -76.333 -53 -127 -53c-19.333 0 -38.833 2 -58.5 6s-45.5 12.333 -77.5 25z" />
    <glyph glyph-name="uni00A0" unicode="&#xa0;" horiz-adv-x="260" 
 />
    <glyph glyph-name="exclamdown" unicode="&#xa1;" horiz-adv-x="288" 
d="M238 466c0 -32 -9.16699 -54.667 -27.5 -68s-40.5 -20 -66.5 -20c-25.333 0 -47.166 6.66699 -65.499 20s-27.5 36 -27.5 68c0 30.667 9.16699 53 27.5 67s40.166 21 65.499 21c26 0 48.167 -7 66.5 -21s27.5 -36.333 27.5 -67zM74 297h139l25 -469h-189z" />
    <glyph glyph-name="cent" unicode="&#xa2;" horiz-adv-x="578" 
d="M369 724l0.000976562 -75.999c30.667 -1.33301 58.334 -5.5 83.001 -12.5s47.334 -15.5 68.001 -25.5l-49 -127c-23.333 9.33301 -45 17 -65 23s-40.333 9 -61 9c-34 0 -60.333 -12.5 -79 -37.5s-28 -63.167 -28 -114.5s9.66699 -88.833 29 -112.5
s45.666 -35.5 78.999 -35.5c29.333 0 56.5 3.83301 81.5 11.5s50.167 18.167 75.5 31.5v-137c-20.667 -11.333 -41.667 -20.333 -63 -27s-45 -11.334 -71 -14.001v-90h-94v94c-64.667 9.33301 -115.5 36.333 -152.5 81s-55.5 110.334 -55.5 197.001
c0 59.333 8.66699 108.5 26 147.5s41.666 69.167 72.999 90.5s67.666 35.666 108.999 42.999v81h94z" />
    <glyph glyph-name="sterling" unicode="&#xa3;" horiz-adv-x="578" 
d="M347 724c36 0 70.5 -3.83105 103.5 -11.498s63.167 -17.167 90.5 -28.5l-49 -125c-48.667 19.333 -91.667 29 -129 29c-18.667 0 -34.667 -5.33301 -48 -16s-20 -30.667 -20 -60v-75h176v-119h-176v-60c0 -34 -8.33301 -59.667 -25 -77s-33.667 -30.333 -51 -39h341v-142
h-515v136c18 9.33301 33.167 18.666 45.5 27.999s21.833 21.166 28.5 35.499s10 33.5 10 57.5v61h-84v119h84v78c0 50 9.5 90.333 28.5 121s45 53 78 67s70.167 21 111.5 21z" />
    <glyph glyph-name="currency" unicode="&#xa4;" horiz-adv-x="569" 
d="M90 353c0 16.667 2.00195 32.6699 6.00195 48.0029s9.66699 29.666 17 42.999l-62 61l80 79l61 -61c13.333 7.33301 28 13.166 44 17.499s31.333 6.5 46 6.5c16.667 0 32.5 -2.16699 47.5 -6.5s29.833 -10.5 44.5 -18.5l60 62l81 -77l-62 -62
c7.33301 -12.667 13 -27 17 -43s6 -32.333 6 -49c0 -32.667 -7.66699 -63.334 -23 -92.001l60 -60l-79 -78l-60 60c-13.333 -6.66699 -27.833 -12.167 -43.5 -16.5s-31.834 -6.5 -48.501 -6.5s-32.834 1.83301 -48.501 5.5s-30.167 9.16699 -43.5 16.5l-59 -58l-79 78l61 60
c-15.333 28.667 -23 59 -23 91zM202.002 353.003c0 -22.667 7.83301 -41.667 23.5 -57s34.5 -23 56.5 -23c22.667 0 42.167 7.66699 58.5 23s24.5 34.333 24.5 57c0 23.333 -8.16699 42.666 -24.5 57.999s-35.833 23 -58.5 23c-22 0 -40.833 -7.66699 -56.5 -23
s-23.5 -34.666 -23.5 -57.999z" />
    <glyph glyph-name="yen" unicode="&#xa5;" horiz-adv-x="578" 
d="M289 442l113 272h172l-182 -357h95v-95h-120v-62h120v-94h-120v-106h-157v106h-121v94h121v62h-121v95h93l-179 357h173z" />
    <glyph glyph-name="brokenbar" unicode="&#xa6;" horiz-adv-x="532" 
d="M207 758h118v-403h-118v403zM207 181h118v-404h-118v404z" />
    <glyph glyph-name="section" unicode="&#xa7;" horiz-adv-x="492" 
d="M56 391c0 27.333 7.33398 50.835 22.001 70.502s31.334 35.5 50.001 47.5c-21.333 14.667 -37.833 31.5 -49.5 50.5s-17.5 40.833 -17.5 65.5c0 42 17.667 76.167 53 102.5s83.666 39.5 144.999 39.5c32.667 0 64 -3.83301 94 -11.5s58.333 -17.5 85 -29.5l-44 -100
c-22 10.667 -44.5 20.167 -67.5 28.5s-46.167 12.5 -69.5 12.5c-44 0 -66 -13.333 -66 -40c0 -14 7.16699 -26.833 21.5 -38.5s39.166 -24.834 74.499 -39.501c51.333 -20.667 90.333 -44 117 -70s40 -57 40 -93c0 -33.333 -6.5 -59.5 -19.5 -78.5
s-28.5 -34.833 -46.5 -47.5c18.667 -13.333 33.5 -29.166 44.5 -47.499s16.5 -39.833 16.5 -64.5c0 -46.667 -18.667 -84.834 -56 -114.501s-90 -44.5 -158 -44.5c-34.667 0 -66 3.5 -94 10.5s-53.667 16.833 -77 29.5v110c26.667 -14.667 56 -26.834 88 -36.501
s60 -14.5 84 -14.5c31.333 0 52.833 5 64.5 15s17.5 22.667 17.5 38c0 10 -2.33301 18.833 -7 26.5s-13.5 15.667 -26.5 24s-32.5 17.833 -58.5 28.5c-33.333 14 -61.833 28.5 -85.5 43.5s-42 32.5 -55 52.5s-19.5 45 -19.5 75zM180.001 404.002
c0 -18 8.00098 -34.1689 24.001 -48.502s41.333 -29.166 76 -44.499l9 -5c7.33301 6 14.166 14 20.499 24s9.5 22.667 9.5 38c0 18.667 -7 35.334 -21 50.001s-41 29.667 -81 45c-9.33301 -4 -17.833 -11.167 -25.5 -21.5s-11.5 -22.833 -11.5 -37.5z" />
    <glyph glyph-name="dieresis" unicode="&#xa8;" horiz-adv-x="605" 
d="M124 688c0 24.667 7 42.667 21 54s31.667 17 53 17c20.667 0 38.5 -5.66699 53.5 -17s22.5 -29.333 22.5 -54c0 -24 -7.5 -41.667 -22.5 -53s-32.833 -17 -53.5 -17c-21.333 0 -39 5.66699 -53 17s-21 29 -21 53zM338 688c0 24.667 7.16699 42.667 21.5 54
s32.5 17 54.5 17c20 0 37.5 -5.66699 52.5 -17s22.5 -29.333 22.5 -54c0 -24 -7.5 -41.667 -22.5 -53s-32.5 -17 -52.5 -17c-22 0 -40.167 5.66699 -54.5 17s-21.5 29 -21.5 53z" />
    <glyph glyph-name="copyright" unicode="&#xa9;" horiz-adv-x="828" 
d="M414 -10c-53.333 0 -102.334 9 -147.001 27s-83.5 43.5 -116.5 76.5s-58.5 71.833 -76.5 116.5s-27 93.667 -27 147c0 52 9.16699 100.333 27.5 145s44 83.5 77 116.5s71.833 58.833 116.5 77.5s93.334 28 146.001 28c52 0 100.333 -9 145 -27s83.5 -43.5 116.5 -76.5
s58.833 -71.833 77.5 -116.5s28 -93.667 28 -147s-9 -102.333 -27 -147s-43.5 -83.5 -76.5 -116.5s-71.833 -58.5 -116.5 -76.5s-93.667 -27 -147 -27zM413.999 61c54.667 0 103.665 12.666 146.998 37.999s77.666 60.166 102.999 104.499s38 95.5 38 153.5
c0 56 -12.5 106.333 -37.5 151s-59.167 80 -102.5 106s-92.666 39 -147.999 39c-56 0 -105.833 -12.667 -149.5 -38s-78 -60.166 -103 -104.499s-37.5 -95.5 -37.5 -153.5s12.333 -109.167 37 -153.5s58.834 -79.166 102.501 -104.499s93.834 -38 150.501 -38z
M422.997 127.999c-70 0 -122.498 21.002 -157.498 63.002s-52.5 97.667 -52.5 167c0 44.667 7.83301 84.167 23.5 118.5s39.167 61.166 70.5 80.499s70 29 116 29c24.667 0 48.667 -3 72 -9s45.333 -14.333 66 -25l-36 -82c-16.667 8.66699 -33 15.167 -49 19.5
s-32.333 6.5 -49 6.5c-32.667 0 -58.334 -12.167 -77.001 -36.5s-28 -58.5 -28 -102.5c0 -46.667 8.33301 -81.667 25 -105s43.667 -35 81 -35c18 0 37.167 2.5 57.5 7.5s39.5 11.833 57.5 20.5v-90c-18 -8.66699 -36.333 -15.334 -55 -20.001s-40.334 -7 -65.001 -7z" />
    <glyph glyph-name="ordfeminine" unicode="&#xaa;" horiz-adv-x="389" 
d="M206 722c45.333 0 80.333 -12 105 -36s37 -57.667 37 -101v-217h-72l-18 58c-14 -21.333 -30.5 -37.333 -49.5 -48s-41.833 -16 -68.5 -16c-34 0 -62 9.16699 -84 27.5s-33 46.5 -33 84.5c0 40.667 14.833 69 44.5 85s71.5 25.333 125.5 28l46 2v6
c0 28.667 -19 43 -57 43c-16 0 -32.333 -2.33301 -49 -7s-35 -11.667 -55 -21l-35 72c23.333 11.333 47.5 20.833 72.5 28.5s55.167 11.5 90.5 11.5zM239 527l-45.002 -3.00098c-25.333 -2 -41.666 -7.5 -48.999 -16.5s-11 -19.167 -11 -30.5s3.33301 -19.833 10 -25.5
s15.334 -8.5 26.001 -8.5c22 0 39 6.83301 51 20.5s18 29.834 18 48.501v15z" />
    <glyph glyph-name="guillemotleft" unicode="&#xab;" horiz-adv-x="645" 
d="M38 283l185 229l121 -65l-134 -170l134 -170l-121 -64l-185 227v13zM301 283l185 229l121 -65l-135 -170l135 -170l-121 -64l-185 227v13z" />
    <glyph glyph-name="logicalnot" unicode="&#xac;" horiz-adv-x="578" 
d="M534 412v-293h-119v174h-371v119h490z" />
    <glyph glyph-name="uni00AD" unicode="&#xad;" horiz-adv-x="320" 
d="M26 200v136h268v-136h-268z" />
    <glyph glyph-name="registered" unicode="&#xae;" horiz-adv-x="828" 
d="M414 -10c-53.333 0 -102.334 9 -147.001 27s-83.5 43.5 -116.5 76.5s-58.5 71.833 -76.5 116.5s-27 93.667 -27 147c0 52 9.16699 100.333 27.5 145s44 83.5 77 116.5s71.833 58.833 116.5 77.5s93.334 28 146.001 28c52 0 100.333 -9 145 -27s83.5 -43.5 116.5 -76.5
s58.833 -71.833 77.5 -116.5s28 -93.667 28 -147s-9 -102.333 -27 -147s-43.5 -83.5 -76.5 -116.5s-71.833 -58.5 -116.5 -76.5s-93.667 -27 -147 -27zM413.999 61c54.667 0 103.665 12.666 146.998 37.999s77.666 60.166 102.999 104.499s38 95.5 38 153.5
c0 56 -12.5 106.333 -37.5 151s-59.167 80 -102.5 106s-92.666 39 -147.999 39c-56 0 -105.833 -12.667 -149.5 -38s-78 -60.166 -103 -104.499s-37.5 -95.5 -37.5 -153.5s12.333 -109.167 37 -153.5s58.834 -79.166 102.501 -104.499s93.834 -38 150.501 -38z
M263.997 144.999l0.000976562 435h135c61.333 0 105.666 -11.5 132.999 -34.5s41 -55.833 41 -98.5c0 -32.667 -7.33301 -58 -22 -76s-32 -31.333 -52 -40l106 -186h-111l-84 162h-42v-162h-104zM367.998 382.999h30c46.667 0 70 20.333 70 61c0 20.667 -5.66699 35 -17 43
s-29 12 -53 12h-30v-116z" />
    <glyph glyph-name="overscore" unicode="&#xaf;" horiz-adv-x="500" 
d="M503 760h-506v108h506v-108z" />
    <glyph glyph-name="degree" unicode="&#xb0;" horiz-adv-x="425" 
d="M213 377c-34.667 0 -65.334 7.33301 -92.001 22s-47.667 35 -63 61s-23 56 -23 90c0 33.333 7.66699 63.166 23 89.499s36.333 47 63 62s57.334 22.5 92.001 22.5s65.167 -7.5 91.5 -22.5s47 -35.667 62 -62s22.5 -56.166 22.5 -89.499c0 -34 -7.5 -64 -22.5 -90
s-35.667 -46.333 -62 -61s-56.833 -22 -91.5 -22zM213 481c20 0 36.667 6.16699 50 18.5s20 29.166 20 50.499c0 22 -6.66699 39.333 -20 52s-30 19 -50 19c-20.667 0 -37.667 -6.33301 -51 -19s-20 -30 -20 -52c0 -21.333 6.66699 -38.166 20 -50.499
s30.333 -18.5 51 -18.5z" />
    <glyph glyph-name="plusminus" unicode="&#xb1;" horiz-adv-x="578" 
d="M348 448h186v-119h-186v-182h-118v182h-186v119h186v184h118v-184zM44 0v118h490v-118h-490z" />
    <glyph glyph-name="uni00B2" unicode="&#xb2;" horiz-adv-x="388" 
d="M354 416h-321.999v91l107 105c28.667 28.667 48.334 50.667 59.001 66s16 30 16 44c0 22.667 -12.333 34 -37 34c-12.667 0 -25.834 -3.16699 -39.501 -9.5s-29.5 -17.5 -47.5 -33.5l-64 77c21.333 18.667 45.666 34 72.999 46s60.333 18 99 18
c45.333 0 80.833 -10.5 106.5 -31.5s38.5 -50.167 38.5 -87.5c0 -34 -10.5 -64.167 -31.5 -90.5s-49.833 -55.5 -86.5 -87.5l-42 -37h171v-104z" />
    <glyph glyph-name="uni00B3" unicode="&#xb3;" horiz-adv-x="388" 
d="M190 853c45.333 0 81.333 -9.83203 108 -29.499s40 -46.167 40 -79.5c0 -24 -6.33301 -44.5 -19 -61.5s-33.334 -30.5 -62.001 -40.5v-5c32.667 -7.33301 56.667 -20 72 -38s23 -39.667 23 -65c0 -40 -15.167 -71 -45.5 -93s-74.833 -33 -133.5 -33
c-54 0 -101.333 11.333 -142 34v103c43.333 -28 89.333 -42 138 -42c42.667 0 64 14.333 64 43c0 11.333 -4.66699 21.5 -14 30.5s-29.333 13.5 -60 13.5h-53v86h42c30.667 0 50.834 4.66699 60.501 14s14.5 20 14.5 32c0 10.667 -3.66699 19.667 -11 27s-19.333 11 -36 11
c-16 0 -31 -3 -45 -9s-30 -15.333 -48 -28l-53 76c20 15.333 43.167 28.166 69.5 38.499s56.5 15.5 90.5 15.5z" />
    <glyph glyph-name="acute" unicode="&#xb4;" horiz-adv-x="388" 
d="M348 766l0.000976562 -10.001c-10.667 -9.33301 -24.334 -20.666 -41.001 -33.999l-53.5 -42l-55 -41.5c-17.667 -13 -33.167 -23.833 -46.5 -32.5h-112v13l39 44.5c15.333 17 30.333 34.667 45 53s27 34.833 37 49.5h187z" />
    <glyph glyph-name="uni00B5" unicode="&#xb5;" horiz-adv-x="666" 
d="M593 549v-548.999h-127l-23 73h-8c-24 -55.333 -61.667 -83 -113 -83c-18.667 0 -34.834 3.66699 -48.501 11s-25.5 18 -35.5 32h-3c1.33301 -12.667 2.66602 -30.834 3.99902 -54.501s2 -44.5 2 -62.5v-156h-169v789h169v-310c0 -38.667 6.33301 -67.5 19 -86.5
s33.334 -28.5 62.001 -28.5c38.667 0 65.334 15 80.001 45s22 73.333 22 130v250h169z" />
    <glyph glyph-name="paragraph" unicode="&#xb6;" horiz-adv-x="649" 
d="M574 -127l-84.998 -0.000976562v783h-79v-783h-86v400c-10 -3.33301 -20 -5.66602 -30 -6.99902s-22 -2 -36 -2c-41.333 0 -77.333 7.66699 -108 23s-54.5 41 -71.5 77s-25.5 84.333 -25.5 145c0 63.333 9.16699 113.333 27.5 150s44.166 62.667 77.499 78
s71.666 23 114.999 23h301v-887z" />
    <glyph glyph-name="periodcentered" unicode="&#xb7;" horiz-adv-x="287" 
d="M50 352c0 32.667 9.16699 55.5 27.5 68.5s40.5 19.5 66.5 19.5c25.333 0 47 -6.5 65 -19.5s27 -35.833 27 -68.5c0 -31.333 -9 -53.833 -27 -67.5s-39.667 -20.5 -65 -20.5c-26 0 -48.167 6.83301 -66.5 20.5s-27.5 36.167 -27.5 67.5z" />
    <glyph glyph-name="cedilla" unicode="&#xb8;" horiz-adv-x="243" 
d="M232 -122c0 -37.333 -11.667 -66.335 -35 -87.002s-59.333 -31 -108 -31c-18.667 0 -35.5 1.33301 -50.5 4s-27.833 5.66699 -38.5 9v88c10.667 -3.33301 22 -6 34 -8s23.333 -3 34 -3s19.5 2.33301 26.5 7s10.5 12 10.5 22c0 12 -5.66699 22 -17 30s-31 14.333 -59 19
l34 72h95l-11 -30c20 -5.33301 39.167 -15.166 57.5 -29.499s27.5 -35.166 27.5 -62.499z" />
    <glyph glyph-name="uni00B9" unicode="&#xb9;" horiz-adv-x="388" 
d="M292 844l-0.00195312 -428.002h-126v198c0 8 0.333008 19.167 1 33.5l2 42c0.666992 13.667 1.33398 22.834 2.00098 27.501c-3.33301 -5.33301 -8.66602 -11.666 -15.999 -18.999l-18 -18l-39 -31l-61 71l156 124h99z" />
    <glyph glyph-name="ordmasculine" unicode="&#xba;" horiz-adv-x="390" 
d="M364 542c0 -57.333 -15.334 -101.667 -46.001 -133s-72 -47 -124 -47c-49.333 0 -89.666 15.833 -120.999 47.5s-47 75.834 -47 132.501c0 57.333 15.167 101.666 45.5 132.999s71.833 47 124.5 47c32 0 60.667 -7 86 -21s45.333 -34.5 60 -61.5s22 -59.5 22 -97.5z
M135.999 541.999c0 -60.667 19.667 -91 59 -91c38.667 0 58 30.333 58 91c0 61.333 -19.333 92 -58 92c-39.333 0 -59 -30.667 -59 -92z" />
    <glyph glyph-name="guillemotright" unicode="&#xbb;" horiz-adv-x="645" 
d="M607 270l-184 -227l-122 64l135 170l-135 170l122 65l184 -229v-13zM345 270l-185 -227l-121 64l134 170l-134 170l121 65l185 -229v-13z" />
    <glyph glyph-name="onequarter" unicode="&#xbc;" horiz-adv-x="856" 
d="M164 0l383 714h131l-383 -714h-131zM138 286l-0.000976562 198c0 7.33301 0.166992 17.5 0.5 30.5s1 26.167 2 39.5l2.5 33c-3.33301 -4.66699 -8.16602 -10.5 -14.499 -17.5s-12.5 -13.167 -18.5 -18.5l-40 -32l-61 71l156 124h99v-428h-126zM661.999 0v71h-184v83
l180 277h128v-270h61v-90h-61v-71h-124zM573.999 161l88.002 0.000976562v80c0 26 1 52.333 3 79c-4.66699 -12.667 -10.334 -25.834 -17.001 -39.501s-12.334 -24.167 -17.001 -31.5z" />
    <glyph glyph-name="onehalf" unicode="&#xbd;" horiz-adv-x="898" 
d="M170 0l383 714h131l-383 -714h-131zM138 286l-0.000976562 198c0 6.66699 0.333008 17.5 1 32.5l2 44c0.666992 14.333 1.33398 23.166 2.00098 26.499c-3.33301 -4.66699 -8.5 -10.667 -15.5 -18s-13.5 -13.666 -19.5 -18.999l-38 -31l-61 71l156 124h99v-428h-126z
M540.999 0v91.002l108 105c28.667 28.667 48.334 50.5 59.001 65.5s16 29.833 16 44.5c0 22.667 -12.667 34 -38 34c-26 0 -54.667 -14.333 -86 -43l-64 77c23.333 21.333 48.666 37.333 75.999 48s59.333 16 96 16c44.667 0 79.834 -10.333 105.501 -31s38.5 -50 38.5 -88
c0 -28.667 -7.33301 -54.334 -22 -77.001s-36.334 -47.334 -65.001 -74.001l-72 -64h170v-104h-322z" />
    <glyph glyph-name="threequarters" unicode="&#xbe;" horiz-adv-x="881" 
d="M185 278c-52.667 0 -99.667 11.3301 -141 33.9971v103c20.667 -13.333 42.167 -23.666 64.5 -30.999s46.833 -11 73.5 -11c42.667 0 64 14.333 64 43c0 13.333 -5.5 24 -16.5 32s-30.167 12 -57.5 12h-53v86h42c28.667 0 48.167 4.33301 58.5 13s15.5 19.667 15.5 33
c0 10.667 -3.66699 19.667 -11 27s-19.333 11 -36 11c-15.333 0 -30 -2.83301 -44 -8.5s-30 -15.167 -48 -28.5l-53 76c22 16.667 46 29.834 72 39.501s55.333 14.5 88 14.5c44 0 79.667 -9.83301 107 -29.5s41 -46.167 41 -79.5c0 -24 -6.33301 -44.5 -19 -61.5
s-33.334 -30.5 -62.001 -40.5v-5c32.667 -7.33301 56.667 -20 72 -38s23 -39.667 23 -65c0 -39.333 -15.167 -70.166 -45.5 -92.499s-75.166 -33.5 -134.499 -33.5zM208 -0.00292969l383 714h131l-384 -714h-130zM686 -0.00292969v71h-184v83l180 277h129v-270h61v-90h-61
v-71h-125zM598 160.997l88.002 0.000976562v80c0 26 1 52.333 3 79c-4.66699 -12.667 -10.334 -25.834 -17.001 -39.501s-12.334 -24.167 -17.001 -31.5z" />
    <glyph glyph-name="questiondown" unicode="&#xbf;" horiz-adv-x="490" 
d="M353 297v-39.001c0 -31.333 -6.5 -58.333 -19.5 -81s-36.833 -45.667 -71.5 -69c-31.333 -21.333 -52.5 -39.166 -63.5 -53.499s-16.5 -30.5 -16.5 -48.5c0 -17.333 7.16699 -30.833 21.5 -40.5s33.5 -14.5 57.5 -14.5c26.667 0 54 4.33301 82 13s57 21 87 37l60 -119
c-34 -19.333 -70.833 -35 -110.5 -47s-83.167 -18 -130.5 -18c-71.333 0 -126.833 16.5 -166.5 49.5s-59.5 75.5 -59.5 127.5c0 40 9.5 73.667 28.5 101s48.5 54.666 88.5 81.999c29.333 20.667 49 36.834 59 48.501s15 26.5 15 44.5v27h139zM371 465.999
c0 -32.667 -9.16699 -55.5 -27.5 -68.5s-40.5 -19.5 -66.5 -19.5c-24.667 0 -46.167 6.5 -64.5 19.5s-27.5 35.833 -27.5 68.5c0 31.333 9.16699 53.833 27.5 67.5s39.833 20.5 64.5 20.5c26 0 48.167 -6.83301 66.5 -20.5s27.5 -36.167 27.5 -67.5z" />
    <glyph glyph-name="Agrave" unicode="&#xc0;" horiz-adv-x="707" 
d="M521 0l-44 153h-247l-44 -153h-186l243 717h218l246 -717h-186zM439 295l-42.001 142.999l-13.5 48.5l-17 62.5c-5.66699 21.333 -10.167 39.333 -13.5 54l-13 -54.5l-16 -63c-5.33301 -20.333 -9.66602 -36.166 -12.999 -47.499l-42 -143h170zM339.999 930.999
c10 -14.667 22.501 -31.166 37.501 -49.499l45 -53l38.5 -44.5v-13h-112c-13.333 8.66699 -28.833 19.5 -46.5 32.5l-55 41.5l-53.5 42c-16.667 13.333 -30.334 24.666 -41.001 33.999v10h187z" />
    <glyph glyph-name="Aacute" unicode="&#xc1;" horiz-adv-x="707" 
d="M521 0l-44 153h-247l-44 -153h-186l243 717h218l246 -717h-186zM439 295l-42.001 142.999l-13.5 48.5l-17 62.5c-5.66699 21.333 -10.167 39.333 -13.5 54l-13 -54.5l-16 -63c-5.33301 -20.333 -9.66602 -36.166 -12.999 -47.499l-42 -143h170zM566.999 930.999
l0.000976562 -10.001c-10.667 -9.33301 -24.334 -20.666 -41.001 -33.999l-53.5 -42l-55 -41.5c-17.667 -13 -33.167 -23.833 -46.5 -32.5h-112v13l39 44.5c15.333 17 30.333 34.667 45 53s27 34.833 37 49.5h187z" />
    <glyph glyph-name="Acircumflex" unicode="&#xc2;" horiz-adv-x="707" 
d="M521 0l-44 153h-247l-44 -153h-186l243 717h218l246 -717h-186zM439 295l-42.001 142.999l-13.5 48.5l-17 62.5c-5.66699 21.333 -10.167 39.333 -13.5 54l-13 -54.5l-16 -63c-5.33301 -20.333 -9.66602 -36.166 -12.999 -47.499l-42 -143h170zM445.999 930.999
c9.33301 -14.667 21.667 -31.168 37 -49.501s31 -36.166 47 -53.499l41 -44v-13h-111c-17.333 10.667 -35 22.5 -53 35.5s-35.667 27.833 -53 44.5c-17.333 -16.667 -34.833 -31.5 -52.5 -44.5s-35.167 -24.833 -52.5 -35.5h-111v13l42 44.5c16 17 31.5 34.667 46.5 53
s27.167 34.833 36.5 49.5h183z" />
    <glyph glyph-name="Atilde" unicode="&#xc3;" horiz-adv-x="707" 
d="M521 0l-44 153h-247l-44 -153h-186l243 717h218l246 -717h-186zM439 295l-42.001 142.999l-13.5 48.5l-17 62.5c-5.66699 21.333 -10.167 39.333 -13.5 54l-13 -54.5l-16 -63c-5.33301 -20.333 -9.66602 -36.166 -12.999 -47.499l-42 -143h170zM147.999 769.999
c4 56 17.668 96.333 41.001 121s52.333 37 87 37c17.333 0 35 -4.16699 53 -12.5l53 -24.5c17.333 -8 34.333 -12 51 -12c8 0 16.167 3.66699 24.5 11s14.166 20.333 17.499 39h81c-4 -55.333 -18 -95.5 -42 -120.5s-52.333 -37.5 -85 -37.5c-18.667 0 -37.167 4 -55.5 12
l-53.5 24.5c-17.333 8.33301 -34 12.5 -50 12.5c-8 0 -16 -3.5 -24 -10.5s-14 -20.167 -18 -39.5h-80z" />
    <glyph glyph-name="Adieresis" unicode="&#xc4;" horiz-adv-x="707" 
d="M521 0l-44 153h-247l-44 -153h-186l243 717h218l246 -717h-186zM439 295l-42.001 142.999l-13.5 48.5l-17 62.5c-5.66699 21.333 -10.167 39.333 -13.5 54l-13 -54.5l-16 -63c-5.33301 -20.333 -9.66602 -36.166 -12.999 -47.499l-42 -143h170zM170.999 852.999
c0 24.667 7 42.667 21 54s31.667 17 53 17c20.667 0 38.5 -5.66699 53.5 -17s22.5 -29.333 22.5 -54c0 -24 -7.5 -41.667 -22.5 -53s-32.833 -17 -53.5 -17c-21.333 0 -39 5.66699 -53 17s-21 29 -21 53zM384.999 852.999c0 24.667 7.16699 42.667 21.5 54s32.5 17 54.5 17
c20 0 37.5 -5.66699 52.5 -17s22.5 -29.333 22.5 -54c0 -24 -7.5 -41.667 -22.5 -53s-32.5 -17 -52.5 -17c-22 0 -40.167 5.66699 -54.5 17s-21.5 29 -21.5 53z" />
    <glyph glyph-name="Aring" unicode="&#xc5;" horiz-adv-x="707" 
d="M521 0l-44 153h-247l-44 -153h-186l243 717h218l246 -717h-186zM439 295l-42.001 142.999l-13.5 48.5l-17 62.5c-5.66699 21.333 -10.167 39.333 -13.5 54l-13 -54.5l-16 -63c-5.33301 -20.333 -9.66602 -36.166 -12.999 -47.499l-42 -143h170zM351.999 642.999
c-37.333 0 -67.5 10.499 -90.5 31.499s-34.5 50.167 -34.5 87.5s11.5 66.5 34.5 87.5s53.167 31.5 90.5 31.5c35.333 0 65.5 -10.5 90.5 -31.5s37.5 -49.833 37.5 -86.5c0 -37.333 -12.333 -66.666 -37 -87.999s-55 -32 -91 -32zM351.999 717.998c12.667 0 23.167 4 31.5 12
s12.5 18.667 12.5 32s-4.16699 24 -12.5 32s-18.833 12 -31.5 12s-23.334 -4 -32.001 -12s-13 -18.667 -13 -32s3.83301 -24 11.5 -32s18.834 -12 33.501 -12z" />
    <glyph glyph-name="AE" unicode="&#xc6;" horiz-adv-x="949" 
d="M895 0h-425v153h-228l-62 -153h-182l314 714h583v-138h-254v-137h237v-138h-237v-161h254v-140zM299 296h171v273h-59z" />
    <glyph glyph-name="Ccedilla" unicode="&#xc7;" horiz-adv-x="643" 
d="M394 583c-52.667 0 -93.167 -20.1689 -121.5 -60.502s-42.5 -96.166 -42.5 -167.499c0 -72.667 13.667 -128.167 41 -166.5s70 -57.5 128 -57.5c30 0 59.667 3.83301 89 11.5s60.333 17.5 93 29.5v-144c-31.333 -13.333 -63 -23 -95 -29s-66.667 -9 -104 -9
c-76 0 -138 15.333 -186 46s-83.5 73.334 -106.5 128.001s-34.5 118.667 -34.5 192c0 72 13.167 135.667 39.5 191s64.833 98.666 115.5 129.999s112.334 47 185.001 47c35.333 0 71.333 -4.16699 108 -12.5s72 -20.833 106 -37.5l-53 -136
c-26.667 12.667 -53.334 23.334 -80.001 32.001s-54 13 -82 13zM490 -122.002c0 -37.333 -11.667 -66.335 -35 -87.002s-59.333 -31 -108 -31c-18.667 0 -35.5 1.33301 -50.5 4s-27.833 5.66699 -38.5 9v88c10.667 -3.33301 22 -6 34 -8s23.333 -3 34 -3
s19.5 2.33301 26.5 7s10.5 12 10.5 22c0 12 -5.66699 22 -17 30s-31 14.333 -59 19l34 72h95l-11 -30c20 -5.33301 39.167 -15.166 57.5 -29.499s27.5 -35.166 27.5 -62.499z" />
    <glyph glyph-name="Egrave" unicode="&#xc8;" horiz-adv-x="555" 
d="M501 0h-417v714h417v-138h-247v-137h229v-138h-229v-161h247v-140zM282 931c10 -14.667 22.501 -31.166 37.501 -49.499l45 -53l38.5 -44.5v-13h-112c-13.333 8.66699 -28.833 19.5 -46.5 32.5l-55 41.5l-53.5 42c-16.667 13.333 -30.334 24.666 -41.001 33.999v10h187z
" />
    <glyph glyph-name="Eacute" unicode="&#xc9;" horiz-adv-x="555" 
d="M501 0h-417v714h417v-138h-247v-137h229v-138h-229v-161h247v-140zM509 931l0.000976562 -10.001c-10.667 -9.33301 -24.334 -20.666 -41.001 -33.999l-53.5 -42l-55 -41.5c-17.667 -13 -33.167 -23.833 -46.5 -32.5h-112v13l39 44.5c15.333 17 30.333 34.667 45 53
s27 34.833 37 49.5h187z" />
    <glyph glyph-name="Ecircumflex" unicode="&#xca;" horiz-adv-x="555" 
d="M501 0h-417v714h417v-138h-247v-137h229v-138h-229v-161h247v-140zM388 931c9.33301 -14.667 21.667 -31.168 37 -49.501s31 -36.166 47 -53.499l41 -44v-13h-111c-17.333 10.667 -35 22.5 -53 35.5s-35.667 27.833 -53 44.5c-17.333 -16.667 -34.833 -31.5 -52.5 -44.5
s-35.167 -24.833 -52.5 -35.5h-111v13l42 44.5c16 17 31.5 34.667 46.5 53s27.167 34.833 36.5 49.5h183z" />
    <glyph glyph-name="Edieresis" unicode="&#xcb;" horiz-adv-x="555" 
d="M501 0h-417v714h417v-138h-247v-137h229v-138h-229v-161h247v-140zM113 853c0 24.667 7 42.667 21 54s31.667 17 53 17c20.667 0 38.5 -5.66699 53.5 -17s22.5 -29.333 22.5 -54c0 -24 -7.5 -41.667 -22.5 -53s-32.833 -17 -53.5 -17c-21.333 0 -39 5.66699 -53 17
s-21 29 -21 53zM327 853c0 24.667 7.16699 42.667 21.5 54s32.5 17 54.5 17c20 0 37.5 -5.66699 52.5 -17s22.5 -29.333 22.5 -54c0 -24 -7.5 -41.667 -22.5 -53s-32.5 -17 -52.5 -17c-22 0 -40.167 5.66699 -54.5 17s-21.5 29 -21.5 53z" />
    <glyph glyph-name="Igrave" unicode="&#xcc;" horiz-adv-x="413" 
d="M380 0h-347v97l88 37v446l-88 37v97h347v-97l-88 -37v-446l88 -37v-97zM193 931c10 -14.667 22.501 -31.166 37.501 -49.499l45 -53l38.5 -44.5v-13h-112c-13.333 8.66699 -28.833 19.5 -46.5 32.5l-55 41.5l-53.5 42c-16.667 13.333 -30.334 24.666 -41.001 33.999v10
h187z" />
    <glyph glyph-name="Iacute" unicode="&#xcd;" horiz-adv-x="413" 
d="M380 0h-347v97l88 37v446l-88 37v97h347v-97l-88 -37v-446l88 -37v-97zM420 931l0.000976562 -10.001c-10.667 -9.33301 -24.334 -20.666 -41.001 -33.999l-53.5 -42l-55 -41.5c-17.667 -13 -33.167 -23.833 -46.5 -32.5h-112v13l39 44.5c15.333 17 30.333 34.667 45 53
s27 34.833 37 49.5h187z" />
    <glyph glyph-name="Icircumflex" unicode="&#xce;" horiz-adv-x="413" 
d="M380 0h-347v97l88 37v446l-88 37v97h347v-97l-88 -37v-446l88 -37v-97zM299 931c9.33301 -14.667 21.667 -31.168 37 -49.501s31 -36.166 47 -53.499l41 -44v-13h-111c-17.333 10.667 -35 22.5 -53 35.5s-35.667 27.833 -53 44.5
c-17.333 -16.667 -34.833 -31.5 -52.5 -44.5s-35.167 -24.833 -52.5 -35.5h-111v13l42 44.5c16 17 31.5 34.667 46.5 53s27.167 34.833 36.5 49.5h183z" />
    <glyph glyph-name="Idieresis" unicode="&#xcf;" horiz-adv-x="413" 
d="M380 0h-347v97l88 37v446l-88 37v97h347v-97l-88 -37v-446l88 -37v-97zM24 853c0 24.667 7 42.667 21 54s31.667 17 53 17c20.667 0 38.5 -5.66699 53.5 -17s22.5 -29.333 22.5 -54c0 -24 -7.5 -41.667 -22.5 -53s-32.833 -17 -53.5 -17c-21.333 0 -39 5.66699 -53 17
s-21 29 -21 53zM238 853c0 24.667 7.16699 42.667 21.5 54s32.5 17 54.5 17c20 0 37.5 -5.66699 52.5 -17s22.5 -29.333 22.5 -54c0 -24 -7.5 -41.667 -22.5 -53s-32.5 -17 -52.5 -17c-22 0 -40.167 5.66699 -54.5 17s-21.5 29 -21.5 53z" />
    <glyph glyph-name="Eth" unicode="&#xd0;" horiz-adv-x="737" 
d="M319 714c112.667 0 201.333 -29.5 266 -88.5s97 -144.833 97 -257.5c0 -122.667 -34 -214.667 -102 -276s-161.667 -92 -281 -92h-215v284h-65v138h65v292h235zM322.999 575l-69.001 -0.000976562v-153h110v-138h-110v-144h55c131.333 0 197 74 197 222
c0 72.667 -15.667 126.334 -47 161.001s-76.666 52 -135.999 52z" />
    <glyph glyph-name="Ntilde" unicode="&#xd1;" horiz-adv-x="823" 
d="M739 0h-220l-288 523h-4c0.666992 -12.667 1.5 -29.667 2.5 -51s2.16699 -44.5 3.5 -69.5s2.33301 -49.167 3 -72.5v-330h-152v714h219l287 -517h3c-0.666992 12 -1.5 28.333 -2.5 49s-2 43.167 -3 67.5s-1.5 47.5 -1.5 69.5v331h153v-714zM207 770
c4 56 17.668 96.333 41.001 121s52.333 37 87 37c17.333 0 35 -4.16699 53 -12.5l53 -24.5c17.333 -8 34.333 -12 51 -12c8 0 16.167 3.66699 24.5 11s14.166 20.333 17.499 39h81c-4 -55.333 -18 -95.5 -42 -120.5s-52.333 -37.5 -85 -37.5c-18.667 0 -37.167 4 -55.5 12
l-53.5 24.5c-17.333 8.33301 -34 12.5 -50 12.5c-8 0 -16 -3.5 -24 -10.5s-14 -20.167 -18 -39.5h-80z" />
    <glyph glyph-name="Ograve" unicode="&#xd2;" horiz-adv-x="796" 
d="M741 358c0 -74 -11.998 -138.5 -35.998 -193.5s-61.167 -97.833 -111.5 -128.5s-115.5 -46 -195.5 -46c-78.667 0 -143.334 15.333 -194.001 46s-88.167 73.667 -112.5 129s-36.5 120 -36.5 194s12.167 138.333 36.5 193s61.833 97.167 112.5 127.5
s115.667 45.5 195 45.5s144.166 -15.167 194.499 -45.5s87.5 -73 111.5 -128s36 -119.5 36 -193.5zM234.002 358c0 -70 12.834 -125 38.501 -165s67.5 -60 125.5 -60c58.667 0 100.667 20 126 60s38 95 38 165s-12.5 125.167 -37.5 165.5s-66.833 60.5 -125.5 60.5
s-100.834 -20.167 -126.501 -60.5s-38.5 -95.5 -38.5 -165.5zM385.003 931c10 -14.667 22.501 -31.166 37.501 -49.499l45 -53l38.5 -44.5v-13h-112c-13.333 8.66699 -28.833 19.5 -46.5 32.5l-55 41.5l-53.5 42c-16.667 13.333 -30.334 24.666 -41.001 33.999v10h187z" />
    <glyph glyph-name="Oacute" unicode="&#xd3;" horiz-adv-x="796" 
d="M741 358c0 -74 -11.998 -138.5 -35.998 -193.5s-61.167 -97.833 -111.5 -128.5s-115.5 -46 -195.5 -46c-78.667 0 -143.334 15.333 -194.001 46s-88.167 73.667 -112.5 129s-36.5 120 -36.5 194s12.167 138.333 36.5 193s61.833 97.167 112.5 127.5
s115.667 45.5 195 45.5s144.166 -15.167 194.499 -45.5s87.5 -73 111.5 -128s36 -119.5 36 -193.5zM234.002 358c0 -70 12.834 -125 38.501 -165s67.5 -60 125.5 -60c58.667 0 100.667 20 126 60s38 95 38 165s-12.5 125.167 -37.5 165.5s-66.833 60.5 -125.5 60.5
s-100.834 -20.167 -126.501 -60.5s-38.5 -95.5 -38.5 -165.5zM612.003 931l0.000976562 -10.001c-10.667 -9.33301 -24.334 -20.666 -41.001 -33.999l-53.5 -42l-55 -41.5c-17.667 -13 -33.167 -23.833 -46.5 -32.5h-112v13l39 44.5c15.333 17 30.333 34.667 45 53
s27 34.833 37 49.5h187z" />
    <glyph glyph-name="Ocircumflex" unicode="&#xd4;" horiz-adv-x="796" 
d="M741 358c0 -74 -11.998 -138.5 -35.998 -193.5s-61.167 -97.833 -111.5 -128.5s-115.5 -46 -195.5 -46c-78.667 0 -143.334 15.333 -194.001 46s-88.167 73.667 -112.5 129s-36.5 120 -36.5 194s12.167 138.333 36.5 193s61.833 97.167 112.5 127.5
s115.667 45.5 195 45.5s144.166 -15.167 194.499 -45.5s87.5 -73 111.5 -128s36 -119.5 36 -193.5zM234.002 358c0 -70 12.834 -125 38.501 -165s67.5 -60 125.5 -60c58.667 0 100.667 20 126 60s38 95 38 165s-12.5 125.167 -37.5 165.5s-66.833 60.5 -125.5 60.5
s-100.834 -20.167 -126.501 -60.5s-38.5 -95.5 -38.5 -165.5zM491.003 931c9.33301 -14.667 21.667 -31.168 37 -49.501s31 -36.166 47 -53.499l41 -44v-13h-111c-17.333 10.667 -35 22.5 -53 35.5s-35.667 27.833 -53 44.5c-17.333 -16.667 -34.833 -31.5 -52.5 -44.5
s-35.167 -24.833 -52.5 -35.5h-111v13l42 44.5c16 17 31.5 34.667 46.5 53s27.167 34.833 36.5 49.5h183z" />
    <glyph glyph-name="Otilde" unicode="&#xd5;" horiz-adv-x="796" 
d="M741 358c0 -74 -11.998 -138.5 -35.998 -193.5s-61.167 -97.833 -111.5 -128.5s-115.5 -46 -195.5 -46c-78.667 0 -143.334 15.333 -194.001 46s-88.167 73.667 -112.5 129s-36.5 120 -36.5 194s12.167 138.333 36.5 193s61.833 97.167 112.5 127.5
s115.667 45.5 195 45.5s144.166 -15.167 194.499 -45.5s87.5 -73 111.5 -128s36 -119.5 36 -193.5zM234.002 358c0 -70 12.834 -125 38.501 -165s67.5 -60 125.5 -60c58.667 0 100.667 20 126 60s38 95 38 165s-12.5 125.167 -37.5 165.5s-66.833 60.5 -125.5 60.5
s-100.834 -20.167 -126.501 -60.5s-38.5 -95.5 -38.5 -165.5zM194.003 770c4 56 17.668 96.333 41.001 121s52.333 37 87 37c17.333 0 35 -4.16699 53 -12.5l53 -24.5c17.333 -8 34.333 -12 51 -12c8 0 16.167 3.66699 24.5 11s14.166 20.333 17.499 39h81
c-4 -55.333 -18 -95.5 -42 -120.5s-52.333 -37.5 -85 -37.5c-18.667 0 -37.167 4 -55.5 12l-53.5 24.5c-17.333 8.33301 -34 12.5 -50 12.5c-8 0 -16 -3.5 -24 -10.5s-14 -20.167 -18 -39.5h-80z" />
    <glyph glyph-name="Odieresis" unicode="&#xd6;" horiz-adv-x="796" 
d="M741 358c0 -74 -11.998 -138.5 -35.998 -193.5s-61.167 -97.833 -111.5 -128.5s-115.5 -46 -195.5 -46c-78.667 0 -143.334 15.333 -194.001 46s-88.167 73.667 -112.5 129s-36.5 120 -36.5 194s12.167 138.333 36.5 193s61.833 97.167 112.5 127.5
s115.667 45.5 195 45.5s144.166 -15.167 194.499 -45.5s87.5 -73 111.5 -128s36 -119.5 36 -193.5zM234.002 358c0 -70 12.834 -125 38.501 -165s67.5 -60 125.5 -60c58.667 0 100.667 20 126 60s38 95 38 165s-12.5 125.167 -37.5 165.5s-66.833 60.5 -125.5 60.5
s-100.834 -20.167 -126.501 -60.5s-38.5 -95.5 -38.5 -165.5zM216.003 853c0 24.667 7 42.667 21 54s31.667 17 53 17c20.667 0 38.5 -5.66699 53.5 -17s22.5 -29.333 22.5 -54c0 -24 -7.5 -41.667 -22.5 -53s-32.833 -17 -53.5 -17c-21.333 0 -39 5.66699 -53 17
s-21 29 -21 53zM430.003 853c0 24.667 7.16699 42.667 21.5 54s32.5 17 54.5 17c20 0 37.5 -5.66699 52.5 -17s22.5 -29.333 22.5 -54c0 -24 -7.5 -41.667 -22.5 -53s-32.5 -17 -52.5 -17c-22 0 -40.167 5.66699 -54.5 17s-21.5 29 -21.5 53z" />
    <glyph glyph-name="multiply" unicode="&#xd7;" horiz-adv-x="578" 
d="M429 575l83 -80l-142 -142l140 -141l-81 -81l-142 140l-140 -139l-80 81l137 140l-138 140l81 82l140 -138z" />
    <glyph glyph-name="Oslash" unicode="&#xd8;" horiz-adv-x="796" 
d="M741 358c0 -74 -12 -138.501 -36 -193.501s-61.167 -97.833 -111.5 -128.5s-115.5 -46 -195.5 -46c-60 0 -112.667 9 -158 27l-42 -65l-86 57l43 63c-34.667 32.667 -60 73.334 -76 122.001s-24 103.667 -24 165c0 74 12.167 138.333 36.5 193s61.833 97.167 112.5 127.5
s115.667 45.5 195 45.5c32.667 0 62.667 -2.66699 90 -8s52.333 -13 75 -23l39 60l85 -53l-42 -63c32.667 -32 56.667 -72 72 -120s23 -101.333 23 -160zM234 357.999c0 -26.667 1.66699 -51.332 5 -73.999s8.66602 -43 15.999 -61l224 343
c-11.333 5.33301 -23.666 9.66602 -36.999 12.999s-27.666 5 -42.999 5c-58.667 0 -100.834 -20.167 -126.501 -60.5s-38.5 -95.5 -38.5 -165.5zM562 358.001c0 50 -6 92 -18 126l-220 -338c10.667 -4 22 -7.16699 34 -9.5s25.333 -3.5 40 -3.5c58.667 0 100.667 20 126 60
s38 95 38 165z" />
    <glyph glyph-name="Ugrave" unicode="&#xd9;" horiz-adv-x="756" 
d="M677 714l-0.000976562 -446.997c0 -54 -11 -101.833 -33 -143.5s-55.5 -74.334 -100.5 -98.001s-101.167 -35.5 -168.5 -35.5c-96 0 -169.333 24.667 -220 74s-76 116.666 -76 201.999v448h171v-429c0 -55.333 10.833 -94.5 32.5 -117.5s53.834 -34.5 96.501 -34.5
c44.667 0 77.167 12.167 97.5 36.5s30.5 63.166 30.5 116.499v428h170zM364.999 931.003c10 -14.667 22.501 -31.166 37.501 -49.499l45 -53l38.5 -44.5v-13h-112c-13.333 8.66699 -28.833 19.5 -46.5 32.5l-55 41.5l-53.5 42c-16.667 13.333 -30.334 24.666 -41.001 33.999
v10h187z" />
    <glyph glyph-name="Uacute" unicode="&#xda;" horiz-adv-x="756" 
d="M677 714l-0.000976562 -446.997c0 -54 -11 -101.833 -33 -143.5s-55.5 -74.334 -100.5 -98.001s-101.167 -35.5 -168.5 -35.5c-96 0 -169.333 24.667 -220 74s-76 116.666 -76 201.999v448h171v-429c0 -55.333 10.833 -94.5 32.5 -117.5s53.834 -34.5 96.501 -34.5
c44.667 0 77.167 12.167 97.5 36.5s30.5 63.166 30.5 116.499v428h170zM591.999 931.003l0.000976562 -10.001c-10.667 -9.33301 -24.334 -20.666 -41.001 -33.999l-53.5 -42l-55 -41.5c-17.667 -13 -33.167 -23.833 -46.5 -32.5h-112v13l39 44.5
c15.333 17 30.333 34.667 45 53s27 34.833 37 49.5h187z" />
    <glyph glyph-name="Ucircumflex" unicode="&#xdb;" horiz-adv-x="756" 
d="M677 714l-0.000976562 -446.997c0 -54 -11 -101.833 -33 -143.5s-55.5 -74.334 -100.5 -98.001s-101.167 -35.5 -168.5 -35.5c-96 0 -169.333 24.667 -220 74s-76 116.666 -76 201.999v448h171v-429c0 -55.333 10.833 -94.5 32.5 -117.5s53.834 -34.5 96.501 -34.5
c44.667 0 77.167 12.167 97.5 36.5s30.5 63.166 30.5 116.499v428h170zM470.999 931.003c9.33301 -14.667 21.667 -31.168 37 -49.501s31 -36.166 47 -53.499l41 -44v-13h-111c-17.333 10.667 -35 22.5 -53 35.5s-35.667 27.833 -53 44.5
c-17.333 -16.667 -34.833 -31.5 -52.5 -44.5s-35.167 -24.833 -52.5 -35.5h-111v13l42 44.5c16 17 31.5 34.667 46.5 53s27.167 34.833 36.5 49.5h183z" />
    <glyph glyph-name="Udieresis" unicode="&#xdc;" horiz-adv-x="756" 
d="M677 714l-0.000976562 -446.997c0 -54 -11 -101.833 -33 -143.5s-55.5 -74.334 -100.5 -98.001s-101.167 -35.5 -168.5 -35.5c-96 0 -169.333 24.667 -220 74s-76 116.666 -76 201.999v448h171v-429c0 -55.333 10.833 -94.5 32.5 -117.5s53.834 -34.5 96.501 -34.5
c44.667 0 77.167 12.167 97.5 36.5s30.5 63.166 30.5 116.499v428h170zM195.999 853.003c0 24.667 7 42.667 21 54s31.667 17 53 17c20.667 0 38.5 -5.66699 53.5 -17s22.5 -29.333 22.5 -54c0 -24 -7.5 -41.667 -22.5 -53s-32.833 -17 -53.5 -17
c-21.333 0 -39 5.66699 -53 17s-21 29 -21 53zM409.999 853.003c0 24.667 7.16699 42.667 21.5 54s32.5 17 54.5 17c20 0 37.5 -5.66699 52.5 -17s22.5 -29.333 22.5 -54c0 -24 -7.5 -41.667 -22.5 -53s-32.5 -17 -52.5 -17c-22 0 -40.167 5.66699 -54.5 17
s-21.5 29 -21.5 53z" />
    <glyph glyph-name="Yacute" unicode="&#xdd;" horiz-adv-x="642" 
d="M321 433l137 281h184l-236 -436v-278h-170v273l-236 441h185zM535 931l0.000976562 -10.001c-10.667 -9.33301 -24.334 -20.666 -41.001 -33.999l-53.5 -42l-55 -41.5c-17.667 -13 -33.167 -23.833 -46.5 -32.5h-112v13l39 44.5c15.333 17 30.333 34.667 45 53
s27 34.833 37 49.5h187z" />
    <glyph glyph-name="Thorn" unicode="&#xde;" horiz-adv-x="628" 
d="M589 379c0 -42 -8.5 -81.332 -25.5 -117.999s-45.167 -66.334 -84.5 -89.001s-92.333 -34 -159 -34h-66v-138h-170v714h170v-108h72c89.333 0 155.5 -20.167 198.5 -60.5s64.5 -95.833 64.5 -166.5zM254 277.001l43 -0.000976562c36.667 0 65.667 7.83301 87 23.5
s32 41.834 32 78.501c0 28.667 -8.33301 50.5 -25 65.5s-43.667 22.5 -81 22.5h-56v-190z" />
    <glyph glyph-name="germandbls" unicode="&#xdf;" horiz-adv-x="729" 
d="M630 594c0 -23.333 -4.50293 -43.8369 -13.5029 -61.5039s-20.333 -33.167 -34 -46.5s-27.334 -25 -41.001 -35s-25 -18.833 -34 -26.5s-13.5 -15.167 -13.5 -22.5c0 -13.333 8.66699 -24.666 26 -33.999s43.333 -25.666 78 -48.999
c32.667 -20.667 57.334 -42.5 74.001 -65.5s25 -53.833 25 -92.5c0 -56 -19 -98.5 -57 -127.5s-93.333 -43.5 -166 -43.5c-38 0 -69.667 2.33301 -95 7s-48.333 12.334 -69 23.001v129c10.667 -6.66699 24 -13 40 -19s32.667 -11 50 -15s33 -6 47 -6
c23.333 0 41.833 4.16699 55.5 12.5s20.5 21.166 20.5 38.499c0 9.33301 -2.16699 17.833 -6.5 25.5s-13 16.167 -26 25.5s-32.833 21.333 -59.5 36c-40.667 22.667 -69 43.5 -85 62.5s-24 41.833 -24 68.5c0 20.667 4.5 38.334 13.5 53.001s20.333 27.334 34 38.001
l41 30.5c13.667 9.66699 25 20.167 34 31.5s13.5 24.666 13.5 39.999c0 19.333 -9.5 34.833 -28.5 46.5s-43.833 17.5 -74.5 17.5c-36 0 -64 -8.5 -84 -25.5s-30 -41.833 -30 -74.5v-535h-169v547c0 48.667 12.333 89 37 121s58.334 56.167 101.001 72.5s91 24.5 145 24.5
c52.667 0 99.834 -6.5 141.501 -19.5s74.334 -32.167 98.001 -57.5s35.5 -56.666 35.5 -93.999z" />
    <glyph glyph-name="agrave" unicode="&#xe0;" horiz-adv-x="613" 
d="M318 560c71.333 0 126.669 -16.501 166.002 -49.501s59 -81.833 59 -146.5v-364h-117l-33 74h-4c-23.333 -29.333 -48 -50.666 -74 -63.999s-61.667 -20 -107 -20c-48.667 0 -89 14.333 -121 43s-48 73 -48 133c0 58.667 20.5 102 61.5 130s101.167 43.667 180.5 47l94 3
v16c0 26.667 -6.83301 46 -20.5 58s-32.5 18 -56.5 18c-24.667 0 -49.834 -3.83301 -75.501 -11.5s-51.834 -17.167 -78.501 -28.5l-51 112c30 16 64 28.333 102 37s79 13 123 13zM375.003 249.999l-51 -2c-42 -1.33301 -71.333 -8.83301 -88 -22.5s-25 -32.167 -25 -55.5
c0 -21.333 5.83301 -36.5 17.5 -45.5s27.167 -13.5 46.5 -13.5c28 0 51.667 8.5 71 25.5s29 40.167 29 69.5v44zM293.003 765.999c10 -14.667 22.501 -31.166 37.501 -49.499l45 -53l38.5 -44.5v-13h-112c-13.333 8.66699 -28.833 19.5 -46.5 32.5l-55 41.5l-53.5 42
c-16.667 13.333 -30.334 24.666 -41.001 33.999v10h187z" />
    <glyph glyph-name="aacute" unicode="&#xe1;" horiz-adv-x="613" 
d="M318 560c71.333 0 126.669 -16.501 166.002 -49.501s59 -81.833 59 -146.5v-364h-117l-33 74h-4c-23.333 -29.333 -48 -50.666 -74 -63.999s-61.667 -20 -107 -20c-48.667 0 -89 14.333 -121 43s-48 73 -48 133c0 58.667 20.5 102 61.5 130s101.167 43.667 180.5 47l94 3
v16c0 26.667 -6.83301 46 -20.5 58s-32.5 18 -56.5 18c-24.667 0 -49.834 -3.83301 -75.501 -11.5s-51.834 -17.167 -78.501 -28.5l-51 112c30 16 64 28.333 102 37s79 13 123 13zM375.003 249.999l-51 -2c-42 -1.33301 -71.333 -8.83301 -88 -22.5s-25 -32.167 -25 -55.5
c0 -21.333 5.83301 -36.5 17.5 -45.5s27.167 -13.5 46.5 -13.5c28 0 51.667 8.5 71 25.5s29 40.167 29 69.5v44zM520.003 765.999l0.000976562 -10.001c-10.667 -9.33301 -24.334 -20.666 -41.001 -33.999l-53.5 -42l-55 -41.5c-17.667 -13 -33.167 -23.833 -46.5 -32.5
h-112v13l39 44.5c15.333 17 30.333 34.667 45 53s27 34.833 37 49.5h187z" />
    <glyph glyph-name="acircumflex" unicode="&#xe2;" horiz-adv-x="613" 
d="M318 560c71.333 0 126.669 -16.501 166.002 -49.501s59 -81.833 59 -146.5v-364h-117l-33 74h-4c-23.333 -29.333 -48 -50.666 -74 -63.999s-61.667 -20 -107 -20c-48.667 0 -89 14.333 -121 43s-48 73 -48 133c0 58.667 20.5 102 61.5 130s101.167 43.667 180.5 47l94 3
v16c0 26.667 -6.83301 46 -20.5 58s-32.5 18 -56.5 18c-24.667 0 -49.834 -3.83301 -75.501 -11.5s-51.834 -17.167 -78.501 -28.5l-51 112c30 16 64 28.333 102 37s79 13 123 13zM375.003 249.999l-51 -2c-42 -1.33301 -71.333 -8.83301 -88 -22.5s-25 -32.167 -25 -55.5
c0 -21.333 5.83301 -36.5 17.5 -45.5s27.167 -13.5 46.5 -13.5c28 0 51.667 8.5 71 25.5s29 40.167 29 69.5v44zM399.003 765.999c9.33301 -14.667 21.667 -31.168 37 -49.501s31 -36.166 47 -53.499l41 -44v-13h-111c-17.333 10.667 -35 22.5 -53 35.5
s-35.667 27.833 -53 44.5c-17.333 -16.667 -34.833 -31.5 -52.5 -44.5s-35.167 -24.833 -52.5 -35.5h-111v13l42 44.5c16 17 31.5 34.667 46.5 53s27.167 34.833 36.5 49.5h183z" />
    <glyph glyph-name="atilde" unicode="&#xe3;" horiz-adv-x="613" 
d="M318 560c71.333 0 126.669 -16.501 166.002 -49.501s59 -81.833 59 -146.5v-364h-117l-33 74h-4c-23.333 -29.333 -48 -50.666 -74 -63.999s-61.667 -20 -107 -20c-48.667 0 -89 14.333 -121 43s-48 73 -48 133c0 58.667 20.5 102 61.5 130s101.167 43.667 180.5 47l94 3
v16c0 26.667 -6.83301 46 -20.5 58s-32.5 18 -56.5 18c-24.667 0 -49.834 -3.83301 -75.501 -11.5s-51.834 -17.167 -78.501 -28.5l-51 112c30 16 64 28.333 102 37s79 13 123 13zM375.003 249.999l-51 -2c-42 -1.33301 -71.333 -8.83301 -88 -22.5s-25 -32.167 -25 -55.5
c0 -21.333 5.83301 -36.5 17.5 -45.5s27.167 -13.5 46.5 -13.5c28 0 51.667 8.5 71 25.5s29 40.167 29 69.5v44zM102.003 604.999c4 56 17.668 96.333 41.001 121s52.333 37 87 37c17.333 0 35 -4.16699 53 -12.5l53 -24.5c17.333 -8 34.333 -12 51 -12
c8 0 16.167 3.66699 24.5 11s14.166 20.333 17.499 39h81c-4 -55.333 -18 -95.5 -42 -120.5s-52.333 -37.5 -85 -37.5c-18.667 0 -37.167 4 -55.5 12l-53.5 24.5c-17.333 8.33301 -34 12.5 -50 12.5c-8 0 -16 -3.5 -24 -10.5s-14 -20.167 -18 -39.5h-80z" />
    <glyph glyph-name="adieresis" unicode="&#xe4;" horiz-adv-x="613" 
d="M318 560c71.333 0 126.669 -16.501 166.002 -49.501s59 -81.833 59 -146.5v-364h-117l-33 74h-4c-23.333 -29.333 -48 -50.666 -74 -63.999s-61.667 -20 -107 -20c-48.667 0 -89 14.333 -121 43s-48 73 -48 133c0 58.667 20.5 102 61.5 130s101.167 43.667 180.5 47l94 3
v16c0 26.667 -6.83301 46 -20.5 58s-32.5 18 -56.5 18c-24.667 0 -49.834 -3.83301 -75.501 -11.5s-51.834 -17.167 -78.501 -28.5l-51 112c30 16 64 28.333 102 37s79 13 123 13zM375.003 249.999l-51 -2c-42 -1.33301 -71.333 -8.83301 -88 -22.5s-25 -32.167 -25 -55.5
c0 -21.333 5.83301 -36.5 17.5 -45.5s27.167 -13.5 46.5 -13.5c28 0 51.667 8.5 71 25.5s29 40.167 29 69.5v44zM124.003 687.999c0 24.667 7 42.667 21 54s31.667 17 53 17c20.667 0 38.5 -5.66699 53.5 -17s22.5 -29.333 22.5 -54c0 -24 -7.5 -41.667 -22.5 -53
s-32.833 -17 -53.5 -17c-21.333 0 -39 5.66699 -53 17s-21 29 -21 53zM338.003 687.999c0 24.667 7.16699 42.667 21.5 54s32.5 17 54.5 17c20 0 37.5 -5.66699 52.5 -17s22.5 -29.333 22.5 -54c0 -24 -7.5 -41.667 -22.5 -53s-32.5 -17 -52.5 -17
c-22 0 -40.167 5.66699 -54.5 17s-21.5 29 -21.5 53z" />
    <glyph glyph-name="aring" unicode="&#xe5;" horiz-adv-x="613" 
d="M318 560c71.333 0 126.669 -16.501 166.002 -49.501s59 -81.833 59 -146.5v-364h-117l-33 74h-4c-23.333 -29.333 -48 -50.666 -74 -63.999s-61.667 -20 -107 -20c-48.667 0 -89 14.333 -121 43s-48 73 -48 133c0 58.667 20.5 102 61.5 130s101.167 43.667 180.5 47l94 3
v16c0 26.667 -6.83301 46 -20.5 58s-32.5 18 -56.5 18c-24.667 0 -49.834 -3.83301 -75.501 -11.5s-51.834 -17.167 -78.501 -28.5l-51 112c30 16 64 28.333 102 37s79 13 123 13zM375.003 249.999l-51 -2c-42 -1.33301 -71.333 -8.83301 -88 -22.5s-25 -32.167 -25 -55.5
c0 -21.333 5.83301 -36.5 17.5 -45.5s27.167 -13.5 46.5 -13.5c28 0 51.667 8.5 71 25.5s29 40.167 29 69.5v44zM307.003 604.999c-37.333 0 -67.5 10.499 -90.5 31.499s-34.5 50.167 -34.5 87.5s11.5 66.5 34.5 87.5s53.167 31.5 90.5 31.5c35.333 0 65.5 -10.5 90.5 -31.5
s37.5 -49.833 37.5 -86.5c0 -37.333 -12.333 -66.666 -37 -87.999s-55 -32 -91 -32zM307.003 679.998c12.667 0 23.167 4 31.5 12s12.5 18.667 12.5 32s-4.16699 24 -12.5 32s-18.833 12 -31.5 12s-23.334 -4 -32.001 -12s-13 -18.667 -13 -32s3.83301 -24 11.5 -32
s18.834 -12 33.501 -12z" />
    <glyph glyph-name="ae" unicode="&#xe6;" horiz-adv-x="925" 
d="M647 559c46 0 86.6719 -9.49902 122.005 -28.499s63.166 -47.167 83.499 -84.5s30.5 -83.333 30.5 -138v-77h-347c1.33301 -35.333 13.333 -63.833 36 -85.5s54.667 -32.5 96 -32.5c29.333 0 59.333 3.16699 90 9.5s61.334 17.166 92.001 32.499v-125
c-27.333 -14 -55.833 -24.167 -85.5 -30.5s-67.167 -9.5 -112.5 -9.5c-43.333 0 -83.333 8 -120 24s-67 40.333 -91 73c-20.667 -23.333 -41 -42.166 -61 -56.499s-43 -24.666 -69 -30.999s-58.333 -9.5 -97 -9.5c-30.667 0 -59.334 6.33301 -86.001 19s-48.167 32 -64.5 58
s-24.5 59.333 -24.5 100c0 59.333 21 102.666 63 129.999s100.667 42.666 176 45.999l92 3v26c0 24 -7 41 -21 51s-31.667 15 -53 15c-24.667 0 -49.834 -3.5 -75.501 -10.5s-50.834 -16.167 -75.501 -27.5l-51 111c30 15.333 63.167 27.333 99.5 36s74.166 13 113.499 13
c70.667 0 126 -18.667 166 -56c22 18.667 46.667 32.5 74 41.5s60.666 13.5 99.999 13.5zM640.005 442.001c-28.667 0 -51.998 -8.00098 -69.998 -24.001s-28.333 -42 -31 -78h189c-0.666992 28.667 -8.33398 52.834 -23.001 72.501s-36.334 29.5 -65.001 29.5zM370.007 250
l-48.001 -2.00293c-42 -1.33301 -70.833 -9.16602 -86.5 -23.499s-23.5 -33.166 -23.5 -56.499c0 -21.333 5.66699 -36.166 17 -44.499s26.333 -12.5 45 -12.5c26.667 0 49.334 8.5 68.001 25.5s28 40.167 28 69.5v44z" />
    <glyph glyph-name="ccedilla" unicode="&#xe7;" horiz-adv-x="526" 
d="M308 -10c-82.667 0 -147.333 22.499 -194 67.499s-70 116.5 -70 214.5c0 66.667 12 121.167 36 163.5s56.833 73.5 98.5 93.5s89.5 30 143.5 30c36 0 68.333 -3.66699 97 -11s54.667 -16.666 78 -27.999l-49 -127c-23.333 9.33301 -45 17 -65 23s-40.333 9 -61 9
c-34.667 0 -61.167 -12.5 -79.5 -37.5s-27.5 -63.167 -27.5 -114.5s9.66699 -88.833 29 -112.5s45.666 -35.5 78.999 -35.5c28.667 0 56 4.16699 82 12.5s50.667 20.166 74 35.499v-138c-23.333 -15.333 -48.166 -26.666 -74.499 -33.999s-58.5 -11 -96.5 -11z
M418.001 -122.001c0 -37.333 -11.667 -66.335 -35 -87.002s-59.333 -31 -108 -31c-18.667 0 -35.5 1.33301 -50.5 4s-27.833 5.66699 -38.5 9v88c10.667 -3.33301 22 -6 34 -8s23.333 -3 34 -3s19.5 2.33301 26.5 7s10.5 12 10.5 22c0 12 -5.66699 22 -17 30
s-31 14.333 -59 19l34 72h95l-11 -30c20 -5.33301 39.167 -15.166 57.5 -29.499s27.5 -35.166 27.5 -62.499z" />
    <glyph glyph-name="egrave" unicode="&#xe8;" horiz-adv-x="603" 
d="M309 559c77.333 0 138.668 -21.167 184.001 -63.5s68 -104.5 68 -186.5v-78h-347c1.33301 -36 13 -64.667 35 -86s53.333 -32 94 -32c35.333 0 67.333 3.33301 96 10s58.334 17.334 89.001 32.001v-125c-26.667 -14 -55.334 -24.167 -86.001 -30.5
s-68.334 -9.5 -113.001 -9.5c-55.333 0 -104.5 10 -147.5 30s-76.667 50.667 -101 92s-36.5 94.333 -36.5 159c0 97.333 24.333 169.666 73 216.999s112.667 71 192 71zM312.002 442c-26 0 -47.498 -8.33105 -64.498 -24.998s-27.167 -42.334 -30.5 -77.001h189
c-0.666992 29.333 -8.83398 53.666 -24.501 72.999s-38.834 29 -69.501 29zM289.004 766.002c10 -14.667 22.501 -31.166 37.501 -49.499l45 -53l38.5 -44.5v-13h-112c-13.333 8.66699 -28.833 19.5 -46.5 32.5l-55 41.5l-53.5 42
c-16.667 13.333 -30.334 24.666 -41.001 33.999v10h187z" />
    <glyph glyph-name="eacute" unicode="&#xe9;" horiz-adv-x="603" 
d="M309 559c77.333 0 138.668 -21.167 184.001 -63.5s68 -104.5 68 -186.5v-78h-347c1.33301 -36 13 -64.667 35 -86s53.333 -32 94 -32c35.333 0 67.333 3.33301 96 10s58.334 17.334 89.001 32.001v-125c-26.667 -14 -55.334 -24.167 -86.001 -30.5
s-68.334 -9.5 -113.001 -9.5c-55.333 0 -104.5 10 -147.5 30s-76.667 50.667 -101 92s-36.5 94.333 -36.5 159c0 97.333 24.333 169.666 73 216.999s112.667 71 192 71zM312.002 442c-26 0 -47.498 -8.33105 -64.498 -24.998s-27.167 -42.334 -30.5 -77.001h189
c-0.666992 29.333 -8.83398 53.666 -24.501 72.999s-38.834 29 -69.501 29zM515.004 766.002l0.000976562 -10.001c-10.667 -9.33301 -24.334 -20.666 -41.001 -33.999l-53.5 -42l-55 -41.5c-17.667 -13 -33.167 -23.833 -46.5 -32.5h-112v13l39 44.5
c15.333 17 30.333 34.667 45 53s27 34.833 37 49.5h187z" />
    <glyph glyph-name="ecircumflex" unicode="&#xea;" horiz-adv-x="603" 
d="M309 559c77.333 0 138.668 -21.167 184.001 -63.5s68 -104.5 68 -186.5v-78h-347c1.33301 -36 13 -64.667 35 -86s53.333 -32 94 -32c35.333 0 67.333 3.33301 96 10s58.334 17.334 89.001 32.001v-125c-26.667 -14 -55.334 -24.167 -86.001 -30.5
s-68.334 -9.5 -113.001 -9.5c-55.333 0 -104.5 10 -147.5 30s-76.667 50.667 -101 92s-36.5 94.333 -36.5 159c0 97.333 24.333 169.666 73 216.999s112.667 71 192 71zM312.002 442c-26 0 -47.498 -8.33105 -64.498 -24.998s-27.167 -42.334 -30.5 -77.001h189
c-0.666992 29.333 -8.83398 53.666 -24.501 72.999s-38.834 29 -69.501 29zM395.004 766.002c9.33301 -14.667 21.667 -31.168 37 -49.501s31 -36.166 47 -53.499l41 -44v-13h-111c-17.333 10.667 -35 22.5 -53 35.5s-35.667 27.833 -53 44.5
c-17.333 -16.667 -34.833 -31.5 -52.5 -44.5s-35.167 -24.833 -52.5 -35.5h-111v13l42 44.5c16 17 31.5 34.667 46.5 53s27.167 34.833 36.5 49.5h183z" />
    <glyph glyph-name="edieresis" unicode="&#xeb;" horiz-adv-x="603" 
d="M309 559c77.333 0 138.668 -21.167 184.001 -63.5s68 -104.5 68 -186.5v-78h-347c1.33301 -36 13 -64.667 35 -86s53.333 -32 94 -32c35.333 0 67.333 3.33301 96 10s58.334 17.334 89.001 32.001v-125c-26.667 -14 -55.334 -24.167 -86.001 -30.5
s-68.334 -9.5 -113.001 -9.5c-55.333 0 -104.5 10 -147.5 30s-76.667 50.667 -101 92s-36.5 94.333 -36.5 159c0 97.333 24.333 169.666 73 216.999s112.667 71 192 71zM312.002 442c-26 0 -47.498 -8.33105 -64.498 -24.998s-27.167 -42.334 -30.5 -77.001h189
c-0.666992 29.333 -8.83398 53.666 -24.501 72.999s-38.834 29 -69.501 29zM119.004 688.002c0 24.667 7 42.667 21 54s31.667 17 53 17c20.667 0 38.5 -5.66699 53.5 -17s22.5 -29.333 22.5 -54c0 -24 -7.5 -41.667 -22.5 -53s-32.833 -17 -53.5 -17
c-21.333 0 -39 5.66699 -53 17s-21 29 -21 53zM333.004 688.002c0 24.667 7.16699 42.667 21.5 54s32.5 17 54.5 17c20 0 37.5 -5.66699 52.5 -17s22.5 -29.333 22.5 -54c0 -24 -7.5 -41.667 -22.5 -53s-32.5 -17 -52.5 -17c-22 0 -40.167 5.66699 -54.5 17
s-21.5 29 -21.5 53z" />
    <glyph glyph-name="igrave" unicode="&#xec;" horiz-adv-x="314" 
d="M241 0h-168v549h168v-549zM144 766c10 -14.667 22.501 -31.166 37.501 -49.499l45 -53l38.5 -44.5v-13h-112c-13.333 8.66699 -28.833 19.5 -46.5 32.5l-55 41.5l-53.5 42c-16.667 13.333 -30.334 24.666 -41.001 33.999v10h187z" />
    <glyph glyph-name="iacute" unicode="&#xed;" horiz-adv-x="314" 
d="M241 0h-168v549h168v-549zM371 766l0.000976562 -10.001c-10.667 -9.33301 -24.334 -20.666 -41.001 -33.999l-53.5 -42l-55 -41.5c-17.667 -13 -33.167 -23.833 -46.5 -32.5h-112v13l39 44.5c15.333 17 30.333 34.667 45 53s27 34.833 37 49.5h187z" />
    <glyph glyph-name="icircumflex" unicode="&#xee;" horiz-adv-x="314" 
d="M241 0h-168v549h168v-549zM250 766c9.33301 -14.667 21.667 -31.168 37 -49.501s31 -36.166 47 -53.499l41 -44v-13h-111c-17.333 10.667 -35 22.5 -53 35.5s-35.667 27.833 -53 44.5c-17.333 -16.667 -34.833 -31.5 -52.5 -44.5s-35.167 -24.833 -52.5 -35.5h-111v13
l42 44.5c16 17 31.5 34.667 46.5 53s27.167 34.833 36.5 49.5h183z" />
    <glyph glyph-name="idieresis" unicode="&#xef;" horiz-adv-x="314" 
d="M241 0h-168v549h168v-549zM-25 688c0 24.667 7 42.667 21 54s31.667 17 53 17c20.667 0 38.5 -5.66699 53.5 -17s22.5 -29.333 22.5 -54c0 -24 -7.5 -41.667 -22.5 -53s-32.833 -17 -53.5 -17c-21.333 0 -39 5.66699 -53 17s-21 29 -21 53zM189 688
c0 24.667 7.16699 42.667 21.5 54s32.5 17 54.5 17c20 0 37.5 -5.66699 52.5 -17s22.5 -29.333 22.5 -54c0 -24 -7.5 -41.667 -22.5 -53s-32.5 -17 -52.5 -17c-22 0 -40.167 5.66699 -54.5 17s-21.5 29 -21.5 53z" />
    <glyph glyph-name="eth" unicode="&#xf0;" horiz-adv-x="629" 
d="M229 766c24 -10.667 46.666 -21.5 67.999 -32.5s41 -22.5 59 -34.5l107 67l52 -81l-77 -49c47.333 -45.333 83.333 -96.166 108 -152.499s37 -123.833 37 -202.5c0 -60.667 -11 -112.834 -33 -156.501s-53.333 -77 -94 -100s-88.667 -34.5 -144 -34.5
c-52 0 -98.167 9.66699 -138.5 29s-72 47.666 -95 84.999s-34.5 83 -34.5 137s10.167 99.5 30.5 136.5s48.166 65 83.499 84s75.666 28.5 120.999 28.5c32.667 0 59.334 -3.66699 80.001 -11s36.334 -18.666 47.001 -33.999l4 2c-10.667 23.333 -22.5 44.5 -35.5 63.5
s-28.833 37.833 -47.5 56.5l-102 -64l-52 82l78 49c-21.333 14 -45.666 29 -72.999 45zM313.999 368c-35.333 0 -60.5 -10.3311 -75.5 -30.998s-22.5 -52.667 -22.5 -96c0 -38.667 7.66699 -69.834 23 -93.501s40.333 -35.5 75 -35.5s59.5 12.5 74.5 37.5
s22.5 62.833 22.5 113.5c0 27.333 -7.83301 51.666 -23.5 72.999s-40.167 32 -73.5 32z" />
    <glyph glyph-name="ntilde" unicode="&#xf1;" horiz-adv-x="663" 
d="M399 559c58 0 104.832 -15.833 140.499 -47.5s53.5 -82.834 53.5 -153.501v-358h-168v311c0 38 -6.33301 66.667 -19 86s-32.667 29 -60 29c-41.333 0 -69.166 -15.167 -83.499 -45.5s-21.5 -73.833 -21.5 -130.5v-250h-169v549h128l23 -71h8
c17.333 26.667 40.5 46.834 69.5 60.501s61.833 20.5 98.5 20.5zM126.999 605c4 56 17.668 96.333 41.001 121s52.333 37 87 37c17.333 0 35 -4.16699 53 -12.5l53 -24.5c17.333 -8 34.333 -12 51 -12c8 0 16.167 3.66699 24.5 11s14.166 20.333 17.499 39h81
c-4 -55.333 -18 -95.5 -42 -120.5s-52.333 -37.5 -85 -37.5c-18.667 0 -37.167 4 -55.5 12l-53.5 24.5c-17.333 8.33301 -34 12.5 -50 12.5c-8 0 -16 -3.5 -24 -10.5s-14 -20.167 -18 -39.5h-80z" />
    <glyph glyph-name="ograve" unicode="&#xf2;" horiz-adv-x="627" 
d="M583 276c0 -92 -24.167 -162.667 -72.5 -212s-114.5 -74 -198.5 -74c-52 0 -98.167 11 -138.5 33s-72 54.333 -95 97s-34.5 94.667 -34.5 156c0 90.667 24 160.5 72 209.5s114.333 73.5 199 73.5c52 0 98.167 -11 138.5 -33s72 -54 95 -96s34.5 -93.333 34.5 -154z
M215 276c0 -50.667 7.66699 -89.334 23 -116.001s40.666 -40 75.999 -40c34.667 0 59.667 13.333 75 40s23 65.334 23 116.001s-7.66699 88.834 -23 114.501s-40.666 38.5 -75.999 38.5c-34.667 0 -59.667 -12.833 -75 -38.5s-23 -63.834 -23 -114.501zM301 766
c10 -14.667 22.501 -31.166 37.501 -49.499l45 -53l38.5 -44.5v-13h-112c-13.333 8.66699 -28.833 19.5 -46.5 32.5l-55 41.5l-53.5 42c-16.667 13.333 -30.334 24.666 -41.001 33.999v10h187z" />
    <glyph glyph-name="oacute" unicode="&#xf3;" horiz-adv-x="627" 
d="M583 276c0 -92 -24.167 -162.667 -72.5 -212s-114.5 -74 -198.5 -74c-52 0 -98.167 11 -138.5 33s-72 54.333 -95 97s-34.5 94.667 -34.5 156c0 90.667 24 160.5 72 209.5s114.333 73.5 199 73.5c52 0 98.167 -11 138.5 -33s72 -54 95 -96s34.5 -93.333 34.5 -154z
M215 276c0 -50.667 7.66699 -89.334 23 -116.001s40.666 -40 75.999 -40c34.667 0 59.667 13.333 75 40s23 65.334 23 116.001s-7.66699 88.834 -23 114.501s-40.666 38.5 -75.999 38.5c-34.667 0 -59.667 -12.833 -75 -38.5s-23 -63.834 -23 -114.501zM528 766
l0.000976562 -10.001c-10.667 -9.33301 -24.334 -20.666 -41.001 -33.999l-53.5 -42l-55 -41.5c-17.667 -13 -33.167 -23.833 -46.5 -32.5h-112v13l39 44.5c15.333 17 30.333 34.667 45 53s27 34.833 37 49.5h187z" />
    <glyph glyph-name="ocircumflex" unicode="&#xf4;" horiz-adv-x="627" 
d="M583 276c0 -92 -24.167 -162.667 -72.5 -212s-114.5 -74 -198.5 -74c-52 0 -98.167 11 -138.5 33s-72 54.333 -95 97s-34.5 94.667 -34.5 156c0 90.667 24 160.5 72 209.5s114.333 73.5 199 73.5c52 0 98.167 -11 138.5 -33s72 -54 95 -96s34.5 -93.333 34.5 -154z
M215 276c0 -50.667 7.66699 -89.334 23 -116.001s40.666 -40 75.999 -40c34.667 0 59.667 13.333 75 40s23 65.334 23 116.001s-7.66699 88.834 -23 114.501s-40.666 38.5 -75.999 38.5c-34.667 0 -59.667 -12.833 -75 -38.5s-23 -63.834 -23 -114.501zM407 766
c9.33301 -14.667 21.667 -31.168 37 -49.501s31 -36.166 47 -53.499l41 -44v-13h-111c-17.333 10.667 -35 22.5 -53 35.5s-35.667 27.833 -53 44.5c-17.333 -16.667 -34.833 -31.5 -52.5 -44.5s-35.167 -24.833 -52.5 -35.5h-111v13l42 44.5c16 17 31.5 34.667 46.5 53
s27.167 34.833 36.5 49.5h183z" />
    <glyph glyph-name="otilde" unicode="&#xf5;" horiz-adv-x="627" 
d="M583 276c0 -92 -24.167 -162.667 -72.5 -212s-114.5 -74 -198.5 -74c-52 0 -98.167 11 -138.5 33s-72 54.333 -95 97s-34.5 94.667 -34.5 156c0 90.667 24 160.5 72 209.5s114.333 73.5 199 73.5c52 0 98.167 -11 138.5 -33s72 -54 95 -96s34.5 -93.333 34.5 -154z
M215 276c0 -50.667 7.66699 -89.334 23 -116.001s40.666 -40 75.999 -40c34.667 0 59.667 13.333 75 40s23 65.334 23 116.001s-7.66699 88.834 -23 114.501s-40.666 38.5 -75.999 38.5c-34.667 0 -59.667 -12.833 -75 -38.5s-23 -63.834 -23 -114.501zM109 605
c4 56 17.668 96.333 41.001 121s52.333 37 87 37c17.333 0 35 -4.16699 53 -12.5l53 -24.5c17.333 -8 34.333 -12 51 -12c8 0 16.167 3.66699 24.5 11s14.166 20.333 17.499 39h81c-4 -55.333 -18 -95.5 -42 -120.5s-52.333 -37.5 -85 -37.5c-18.667 0 -37.167 4 -55.5 12
l-53.5 24.5c-17.333 8.33301 -34 12.5 -50 12.5c-8 0 -16 -3.5 -24 -10.5s-14 -20.167 -18 -39.5h-80z" />
    <glyph glyph-name="odieresis" unicode="&#xf6;" horiz-adv-x="627" 
d="M583 276c0 -92 -24.167 -162.667 -72.5 -212s-114.5 -74 -198.5 -74c-52 0 -98.167 11 -138.5 33s-72 54.333 -95 97s-34.5 94.667 -34.5 156c0 90.667 24 160.5 72 209.5s114.333 73.5 199 73.5c52 0 98.167 -11 138.5 -33s72 -54 95 -96s34.5 -93.333 34.5 -154z
M215 276c0 -50.667 7.66699 -89.334 23 -116.001s40.666 -40 75.999 -40c34.667 0 59.667 13.333 75 40s23 65.334 23 116.001s-7.66699 88.834 -23 114.501s-40.666 38.5 -75.999 38.5c-34.667 0 -59.667 -12.833 -75 -38.5s-23 -63.834 -23 -114.501zM131 688
c0 24.667 7 42.667 21 54s31.667 17 53 17c20.667 0 38.5 -5.66699 53.5 -17s22.5 -29.333 22.5 -54c0 -24 -7.5 -41.667 -22.5 -53s-32.833 -17 -53.5 -17c-21.333 0 -39 5.66699 -53 17s-21 29 -21 53zM345 688c0 24.667 7.16699 42.667 21.5 54s32.5 17 54.5 17
c20 0 37.5 -5.66699 52.5 -17s22.5 -29.333 22.5 -54c0 -24 -7.5 -41.667 -22.5 -53s-32.5 -17 -52.5 -17c-22 0 -40.167 5.66699 -54.5 17s-21.5 29 -21.5 53z" />
    <glyph glyph-name="divide" unicode="&#xf7;" horiz-adv-x="578" 
d="M288 454c-19.333 0 -36 6.16699 -50 18.5s-21 32.166 -21 59.499c0 29.333 7 49.666 21 60.999s30.667 17 50 17c18.667 0 35.334 -5.66699 50.001 -17s22 -31.666 22 -60.999c0 -27.333 -7.33301 -47.166 -22 -59.499s-31.334 -18.5 -50.001 -18.5zM44 293v119h490v-119
h-490zM288 95c-19.333 0 -36 6.16699 -50 18.5s-21 32.166 -21 59.499c0 28.667 7 48.834 21 60.501s30.667 17.5 50 17.5c18.667 0 35.334 -5.83301 50.001 -17.5s22 -31.834 22 -60.501c0 -27.333 -7.33301 -47.166 -22 -59.499s-31.334 -18.5 -50.001 -18.5z" />
    <glyph glyph-name="oslash" unicode="&#xf8;" horiz-adv-x="640" 
d="M596 276c0 -92 -24.832 -162.667 -74.499 -212s-117.167 -74 -202.5 -74c-40.667 0 -78.334 6.66699 -113.001 20l-37 -56l-79 51l36 54c-26 24.667 -46.167 55.167 -60.5 91.5s-21.5 78.166 -21.5 125.499c0 90.667 24.667 160.5 74 209.5s117.333 73.5 204 73.5
c41.333 0 80.333 -7.33301 117 -22l31 46l78 -52l-31 -45c24.667 -24 44 -53.667 58 -89s21 -75.666 21 -120.999zM210.001 276c0 -14.667 0.666016 -28.333 1.99902 -41s3.33301 -24.667 6 -36l148 226c-13.333 6 -28.666 9 -45.999 9c-39.333 0 -67.5 -13.167 -84.5 -39.5
s-25.5 -65.833 -25.5 -118.5zM430 276.001c0 24.667 -2 47 -6 67l-145 -222c6 -2 12.5 -3.33301 19.5 -4s14.5 -1 22.5 -1c40 0 68.167 13.5 84.5 40.5s24.5 66.833 24.5 119.5z" />
    <glyph glyph-name="ugrave" unicode="&#xf9;" horiz-adv-x="663" 
d="M591 549v-549.002h-128l-22 70h-10c-17.333 -28 -41 -48.333 -71 -61s-62 -19 -96 -19c-56.667 0 -103.167 15.833 -139.5 47.5s-54.5 82.834 -54.5 153.501v358h169v-311c0 -37.333 6.16699 -65.666 18.5 -84.999s32.166 -29 59.499 -29c40.667 0 68.334 15 83.001 45
s22 73.333 22 130v250h169zM319 765.998c10 -14.667 22.501 -31.166 37.501 -49.499l45 -53l38.5 -44.5v-13h-112c-13.333 8.66699 -28.833 19.5 -46.5 32.5l-55 41.5l-53.5 42c-16.667 13.333 -30.334 24.666 -41.001 33.999v10h187z" />
    <glyph glyph-name="uacute" unicode="&#xfa;" horiz-adv-x="663" 
d="M591 549v-549.002h-128l-22 70h-10c-17.333 -28 -41 -48.333 -71 -61s-62 -19 -96 -19c-56.667 0 -103.167 15.833 -139.5 47.5s-54.5 82.834 -54.5 153.501v358h169v-311c0 -37.333 6.16699 -65.666 18.5 -84.999s32.166 -29 59.499 -29c40.667 0 68.334 15 83.001 45
s22 73.333 22 130v250h169zM545 765.998l0.000976562 -10.001c-10.667 -9.33301 -24.334 -20.666 -41.001 -33.999l-53.5 -42l-55 -41.5c-17.667 -13 -33.167 -23.833 -46.5 -32.5h-112v13l39 44.5c15.333 17 30.333 34.667 45 53s27 34.833 37 49.5h187z" />
    <glyph glyph-name="ucircumflex" unicode="&#xfb;" horiz-adv-x="663" 
d="M591 549v-549.002h-128l-22 70h-10c-17.333 -28 -41 -48.333 -71 -61s-62 -19 -96 -19c-56.667 0 -103.167 15.833 -139.5 47.5s-54.5 82.834 -54.5 153.501v358h169v-311c0 -37.333 6.16699 -65.666 18.5 -84.999s32.166 -29 59.499 -29c40.667 0 68.334 15 83.001 45
s22 73.333 22 130v250h169zM425 765.998c9.33301 -14.667 21.667 -31.168 37 -49.501s31 -36.166 47 -53.499l41 -44v-13h-111c-17.333 10.667 -35 22.5 -53 35.5s-35.667 27.833 -53 44.5c-17.333 -16.667 -34.833 -31.5 -52.5 -44.5s-35.167 -24.833 -52.5 -35.5h-111v13
l42 44.5c16 17 31.5 34.667 46.5 53s27.167 34.833 36.5 49.5h183z" />
    <glyph glyph-name="udieresis" unicode="&#xfc;" horiz-adv-x="663" 
d="M591 549v-549.002h-128l-22 70h-10c-17.333 -28 -41 -48.333 -71 -61s-62 -19 -96 -19c-56.667 0 -103.167 15.833 -139.5 47.5s-54.5 82.834 -54.5 153.501v358h169v-311c0 -37.333 6.16699 -65.666 18.5 -84.999s32.166 -29 59.499 -29c40.667 0 68.334 15 83.001 45
s22 73.333 22 130v250h169zM149 687.998c0 24.667 7 42.667 21 54s31.667 17 53 17c20.667 0 38.5 -5.66699 53.5 -17s22.5 -29.333 22.5 -54c0 -24 -7.5 -41.667 -22.5 -53s-32.833 -17 -53.5 -17c-21.333 0 -39 5.66699 -53 17s-21 29 -21 53zM363 687.998
c0 24.667 7.16699 42.667 21.5 54s32.5 17 54.5 17c20 0 37.5 -5.66699 52.5 -17s22.5 -29.333 22.5 -54c0 -24 -7.5 -41.667 -22.5 -53s-32.5 -17 -52.5 -17c-22 0 -40.167 5.66699 -54.5 17s-21.5 29 -21.5 53z" />
    <glyph glyph-name="yacute" unicode="&#xfd;" horiz-adv-x="588" 
d="M0 549l179.999 -0.00195312l99 -311c7.33301 -24 12 -50.333 14 -79h3c2 15.333 4.5 29.333 7.5 42s6.16699 24.667 9.5 36l99 312h176l-226 -603c-22.667 -61.333 -53.667 -107.666 -93 -138.999s-89.666 -47 -150.999 -47c-17.333 0 -32.166 0.833008 -44.499 2.5
s-23.166 3.5 -32.499 5.5v133c7.33301 -1.33301 16.166 -2.66602 26.499 -3.99902s21.166 -2 32.499 -2c31.333 0 55.5 9.33301 72.5 28s29.833 40.667 38.5 66l6 17zM507.999 765.998l0.000976562 -10.001c-10.667 -9.33301 -24.334 -20.666 -41.001 -33.999l-53.5 -42
l-55 -41.5c-17.667 -13 -33.167 -23.833 -46.5 -32.5h-112v13l39 44.5c15.333 17 30.333 34.667 45 53s27 34.833 37 49.5h187z" />
    <glyph glyph-name="thorn" unicode="&#xfe;" horiz-adv-x="638" 
d="M594 276c0 -94 -19.167 -165.168 -57.5 -213.501s-87.5 -72.5 -147.5 -72.5c-36.667 0 -67 6.5 -91 19.5s-43 28.167 -57 45.5h-7c2 -10 3.66699 -22.333 5 -37s2 -27.334 2 -38.001v-220h-169v1000h169v-180c0 -21.333 -1 -41.166 -3 -59.499s-3.66699 -32.5 -5 -42.5h8
c12.667 22.667 31.5 41.834 56.5 57.501s56.5 23.5 94.5 23.5c59.333 0 107.833 -23.833 145.5 -71.5s56.5 -118.167 56.5 -211.5zM422 277.999c0 49.333 -6.99902 86.333 -20.999 111s-36.333 37 -67 37c-34 0 -57.833 -11 -71.5 -33s-20.834 -55.667 -21.501 -101v-15
c0 -48.667 6.83301 -86 20.5 -112s38.5 -39 74.5 -39c30.667 0 52.667 13 66 39s20 63.667 20 113z" />
    <glyph glyph-name="ydieresis" unicode="&#xff;" horiz-adv-x="588" 
d="M0 549l179.999 -0.00195312l99 -311c7.33301 -24 12 -50.333 14 -79h3c2 15.333 4.5 29.333 7.5 42s6.16699 24.667 9.5 36l99 312h176l-226 -603c-22.667 -61.333 -53.667 -107.666 -93 -138.999s-89.666 -47 -150.999 -47c-17.333 0 -32.166 0.833008 -44.499 2.5
s-23.166 3.5 -32.499 5.5v133c7.33301 -1.33301 16.166 -2.66602 26.499 -3.99902s21.166 -2 32.499 -2c31.333 0 55.5 9.33301 72.5 28s29.833 40.667 38.5 66l6 17zM110.999 687.998c0 24.667 7 42.667 21 54s31.667 17 53 17c20.667 0 38.5 -5.66699 53.5 -17
s22.5 -29.333 22.5 -54c0 -24 -7.5 -41.667 -22.5 -53s-32.833 -17 -53.5 -17c-21.333 0 -39 5.66699 -53 17s-21 29 -21 53zM324.999 687.998c0 24.667 7.16699 42.667 21.5 54s32.5 17 54.5 17c20 0 37.5 -5.66699 52.5 -17s22.5 -29.333 22.5 -54
c0 -24 -7.5 -41.667 -22.5 -53s-32.5 -17 -52.5 -17c-22 0 -40.167 5.66699 -54.5 17s-21.5 29 -21.5 53z" />
    <glyph glyph-name="Amacron" unicode="&#x100;" horiz-adv-x="707" 
d="M521 0l-44 153h-247l-44 -153h-186l243 717h218l246 -717h-186zM439 295l-42.001 142.999l-13.5 48.5l-17 62.5c-5.66699 21.333 -10.167 39.333 -13.5 54l-13 -54.5l-16 -63c-5.33301 -20.333 -9.66602 -36.166 -12.999 -47.499l-42 -143h170zM525.999 879.999v-109
h-342v109h342z" />
    <glyph glyph-name="amacron" unicode="&#x101;" horiz-adv-x="613" 
d="M318 560c71.333 0 126.669 -16.501 166.002 -49.501s59 -81.833 59 -146.5v-364h-117l-33 74h-4c-23.333 -29.333 -48 -50.666 -74 -63.999s-61.667 -20 -107 -20c-48.667 0 -89 14.333 -121 43s-48 73 -48 133c0 58.667 20.5 102 61.5 130s101.167 43.667 180.5 47l94 3
v16c0 26.667 -6.83301 46 -20.5 58s-32.5 18 -56.5 18c-24.667 0 -49.834 -3.83301 -75.501 -11.5s-51.834 -17.167 -78.501 -28.5l-51 112c30 16 64 28.333 102 37s79 13 123 13zM375.003 249.999l-51 -2c-42 -1.33301 -71.333 -8.83301 -88 -22.5s-25 -32.167 -25 -55.5
c0 -21.333 5.83301 -36.5 17.5 -45.5s27.167 -13.5 46.5 -13.5c28 0 51.667 8.5 71 25.5s29 40.167 29 69.5v44zM479.003 714.999v-109h-342v109h342z" />
    <glyph glyph-name="Abreve" unicode="&#x102;" horiz-adv-x="707" 
d="M521 0l-44 153h-247l-44 -153h-186l243 717h218l246 -717h-186zM439 295l-42.001 142.999l-13.5 48.5l-17 62.5c-5.66699 21.333 -10.167 39.333 -13.5 54l-13 -54.5l-16 -63c-5.33301 -20.333 -9.66602 -36.166 -12.999 -47.499l-42 -143h170zM550.999 942.999
c-3.33301 -50.667 -22.499 -92 -57.499 -124s-81.167 -48 -138.5 -48c-60.667 0 -107.334 15.5 -140.001 46.5s-50.334 72.833 -53.001 125.5h92c4.66699 -28 15.667 -45.333 33 -52s40 -10 68 -10c22.667 0 43.834 3.83301 63.501 11.5s32.167 24.5 37.5 50.5h95z" />
    <glyph glyph-name="abreve" unicode="&#x103;" horiz-adv-x="613" 
d="M318 560c71.333 0 126.669 -16.501 166.002 -49.501s59 -81.833 59 -146.5v-364h-117l-33 74h-4c-23.333 -29.333 -48 -50.666 -74 -63.999s-61.667 -20 -107 -20c-48.667 0 -89 14.333 -121 43s-48 73 -48 133c0 58.667 20.5 102 61.5 130s101.167 43.667 180.5 47l94 3
v16c0 26.667 -6.83301 46 -20.5 58s-32.5 18 -56.5 18c-24.667 0 -49.834 -3.83301 -75.501 -11.5s-51.834 -17.167 -78.501 -28.5l-51 112c30 16 64 28.333 102 37s79 13 123 13zM375.003 249.999l-51 -2c-42 -1.33301 -71.333 -8.83301 -88 -22.5s-25 -32.167 -25 -55.5
c0 -21.333 5.83301 -36.5 17.5 -45.5s27.167 -13.5 46.5 -13.5c28 0 51.667 8.5 71 25.5s29 40.167 29 69.5v44zM504.003 777.999c-3.33301 -50.667 -22.499 -92 -57.499 -124s-81.167 -48 -138.5 -48c-60.667 0 -107.334 15.5 -140.001 46.5s-50.334 72.833 -53.001 125.5
h92c4.66699 -28 15.667 -45.333 33 -52s40 -10 68 -10c22.667 0 43.834 3.83301 63.501 11.5s32.167 24.5 37.5 50.5h95z" />
    <glyph glyph-name="Aogonek" unicode="&#x104;" horiz-adv-x="707" 
d="M521 0l-44 153h-247l-44 -153h-186l243 717h218l246 -717h-186zM439 295l-42.001 142.999l-13.5 48.5l-17 62.5c-5.66699 21.333 -10.167 39.333 -13.5 54l-13 -54.5l-16 -63c-5.33301 -20.333 -9.66602 -36.166 -12.999 -47.499l-42 -143h170zM592.999 -105.001
c0 -12.667 3.50098 -21.835 10.501 -27.502s16.167 -8.5 27.5 -8.5c9.33301 0 19.5 1 30.5 3s19.833 4.33301 26.5 7v-97c-10.667 -3.33301 -22.334 -6.16602 -35.001 -8.49902s-27.667 -3.5 -45 -3.5c-37.333 0 -68 10.333 -92 31s-36 47.667 -36 81
c0 52.667 37.333 102.334 112 149.001l69 -21c-22.667 -21.333 -39.667 -40 -51 -56s-17 -32.333 -17 -49z" />
    <glyph glyph-name="aogonek" unicode="&#x105;" horiz-adv-x="613" 
d="M318 560c71.333 0 126.669 -16.501 166.002 -49.501s59 -81.833 59 -146.5v-364h-117l-33 74h-4c-23.333 -29.333 -48 -50.666 -74 -63.999s-61.667 -20 -107 -20c-48.667 0 -89 14.333 -121 43s-48 73 -48 133c0 58.667 20.5 102 61.5 130s101.167 43.667 180.5 47l94 3
v16c0 26.667 -6.83301 46 -20.5 58s-32.5 18 -56.5 18c-24.667 0 -49.834 -3.83301 -75.501 -11.5s-51.834 -17.167 -78.501 -28.5l-51 112c30 16 64 28.333 102 37s79 13 123 13zM375.003 249.999l-51 -2c-42 -1.33301 -71.333 -8.83301 -88 -22.5s-25 -32.167 -25 -55.5
c0 -21.333 5.83301 -36.5 17.5 -45.5s27.167 -13.5 46.5 -13.5c28 0 51.667 8.5 71 25.5s29 40.167 29 69.5v44zM455.003 -105.001c0 -12.667 3.50098 -21.835 10.501 -27.502s16.167 -8.5 27.5 -8.5c9.33301 0 19.5 1 30.5 3s19.833 4.33301 26.5 7v-97
c-10.667 -3.33301 -22.334 -6.16602 -35.001 -8.49902s-27.667 -3.5 -45 -3.5c-37.333 0 -68 10.333 -92 31s-36 47.667 -36 81c0 52.667 37.333 102.334 112 149.001l69 -21c-22.667 -21.333 -39.667 -40 -51 -56s-17 -32.333 -17 -49z" />
    <glyph glyph-name="Cacute" unicode="&#x106;" horiz-adv-x="643" 
d="M394 583c-52.667 0 -93.167 -20.1689 -121.5 -60.502s-42.5 -96.166 -42.5 -167.499c0 -72.667 13.667 -128.167 41 -166.5s70 -57.5 128 -57.5c30 0 59.667 3.83301 89 11.5s60.333 17.5 93 29.5v-144c-31.333 -13.333 -63 -23 -95 -29s-66.667 -9 -104 -9
c-76 0 -138 15.333 -186 46s-83.5 73.334 -106.5 128.001s-34.5 118.667 -34.5 192c0 72 13.167 135.667 39.5 191s64.833 98.666 115.5 129.999s112.334 47 185.001 47c35.333 0 71.333 -4.16699 108 -12.5s72 -20.833 106 -37.5l-53 -136
c-26.667 12.667 -53.334 23.334 -80.001 32.001s-54 13 -82 13zM585 930.998l0.000976562 -10.001c-10.667 -9.33301 -24.334 -20.666 -41.001 -33.999l-53.5 -42l-55 -41.5c-17.667 -13 -33.167 -23.833 -46.5 -32.5h-112v13l39 44.5c15.333 17 30.333 34.667 45 53
s27 34.833 37 49.5h187z" />
    <glyph glyph-name="cacute" unicode="&#x107;" horiz-adv-x="526" 
d="M308 -10c-82.667 0 -147.333 22.499 -194 67.499s-70 116.5 -70 214.5c0 66.667 12 121.167 36 163.5s56.833 73.5 98.5 93.5s89.5 30 143.5 30c36 0 68.333 -3.66699 97 -11s54.667 -16.666 78 -27.999l-49 -127c-23.333 9.33301 -45 17 -65 23s-40.333 9 -61 9
c-34.667 0 -61.167 -12.5 -79.5 -37.5s-27.5 -63.167 -27.5 -114.5s9.66699 -88.833 29 -112.5s45.666 -35.5 78.999 -35.5c28.667 0 56 4.16699 82 12.5s50.667 20.166 74 35.499v-138c-23.333 -15.333 -48.166 -26.666 -74.499 -33.999s-58.5 -11 -96.5 -11z
M503.001 765.999l0.000976562 -10.001c-10.667 -9.33301 -24.334 -20.666 -41.001 -33.999l-53.5 -42l-55 -41.5c-17.667 -13 -33.167 -23.833 -46.5 -32.5h-112v13l39 44.5c15.333 17 30.333 34.667 45 53s27 34.833 37 49.5h187z" />
    <glyph glyph-name="Ccircumflex" unicode="&#x108;" horiz-adv-x="643" 
d="M394 583c-52.667 0 -93.167 -20.1689 -121.5 -60.502s-42.5 -96.166 -42.5 -167.499c0 -72.667 13.667 -128.167 41 -166.5s70 -57.5 128 -57.5c30 0 59.667 3.83301 89 11.5s60.333 17.5 93 29.5v-144c-31.333 -13.333 -63 -23 -95 -29s-66.667 -9 -104 -9
c-76 0 -138 15.333 -186 46s-83.5 73.334 -106.5 128.001s-34.5 118.667 -34.5 192c0 72 13.167 135.667 39.5 191s64.833 98.666 115.5 129.999s112.334 47 185.001 47c35.333 0 71.333 -4.16699 108 -12.5s72 -20.833 106 -37.5l-53 -136
c-26.667 12.667 -53.334 23.334 -80.001 32.001s-54 13 -82 13zM464 930.998c9.33301 -14.667 21.667 -31.168 37 -49.501s31 -36.166 47 -53.499l41 -44v-13h-111c-17.333 10.667 -35 22.5 -53 35.5s-35.667 27.833 -53 44.5c-17.333 -16.667 -34.833 -31.5 -52.5 -44.5
s-35.167 -24.833 -52.5 -35.5h-111v13l42 44.5c16 17 31.5 34.667 46.5 53s27.167 34.833 36.5 49.5h183z" />
    <glyph glyph-name="ccircumflex" unicode="&#x109;" horiz-adv-x="526" 
d="M308 -10c-82.667 0 -147.333 22.499 -194 67.499s-70 116.5 -70 214.5c0 66.667 12 121.167 36 163.5s56.833 73.5 98.5 93.5s89.5 30 143.5 30c36 0 68.333 -3.66699 97 -11s54.667 -16.666 78 -27.999l-49 -127c-23.333 9.33301 -45 17 -65 23s-40.333 9 -61 9
c-34.667 0 -61.167 -12.5 -79.5 -37.5s-27.5 -63.167 -27.5 -114.5s9.66699 -88.833 29 -112.5s45.666 -35.5 78.999 -35.5c28.667 0 56 4.16699 82 12.5s50.667 20.166 74 35.499v-138c-23.333 -15.333 -48.166 -26.666 -74.499 -33.999s-58.5 -11 -96.5 -11z
M383.001 765.999c9.33301 -14.667 21.667 -31.168 37 -49.501s31 -36.166 47 -53.499l41 -44v-13h-111c-17.333 10.667 -35 22.5 -53 35.5s-35.667 27.833 -53 44.5c-17.333 -16.667 -34.833 -31.5 -52.5 -44.5s-35.167 -24.833 -52.5 -35.5h-111v13l42 44.5
c16 17 31.5 34.667 46.5 53s27.167 34.833 36.5 49.5h183z" />
    <glyph glyph-name="Cdot" unicode="&#x10a;" horiz-adv-x="643" 
d="M394 583c-52.667 0 -93.167 -20.1689 -121.5 -60.502s-42.5 -96.166 -42.5 -167.499c0 -72.667 13.667 -128.167 41 -166.5s70 -57.5 128 -57.5c30 0 59.667 3.83301 89 11.5s60.333 17.5 93 29.5v-144c-31.333 -13.333 -63 -23 -95 -29s-66.667 -9 -104 -9
c-76 0 -138 15.333 -186 46s-83.5 73.334 -106.5 128.001s-34.5 118.667 -34.5 192c0 72 13.167 135.667 39.5 191s64.833 98.666 115.5 129.999s112.334 47 185.001 47c35.333 0 71.333 -4.16699 108 -12.5s72 -20.833 106 -37.5l-53 -136
c-26.667 12.667 -53.334 23.334 -80.001 32.001s-54 13 -82 13zM373 931.998c24.667 0 46 -5.33301 64 -16s27 -31.334 27 -62.001c0 -30 -9 -50.5 -27 -61.5s-39.333 -16.5 -64 -16.5c-25.333 0 -46.666 5.5 -63.999 16.5s-26 31.5 -26 61.5
c0 30.667 8.66699 51.334 26 62.001s38.666 16 63.999 16z" />
    <glyph glyph-name="cdot" unicode="&#x10b;" horiz-adv-x="526" 
d="M308 -10c-82.667 0 -147.333 22.499 -194 67.499s-70 116.5 -70 214.5c0 66.667 12 121.167 36 163.5s56.833 73.5 98.5 93.5s89.5 30 143.5 30c36 0 68.333 -3.66699 97 -11s54.667 -16.666 78 -27.999l-49 -127c-23.333 9.33301 -45 17 -65 23s-40.333 9 -61 9
c-34.667 0 -61.167 -12.5 -79.5 -37.5s-27.5 -63.167 -27.5 -114.5s9.66699 -88.833 29 -112.5s45.666 -35.5 78.999 -35.5c28.667 0 56 4.16699 82 12.5s50.667 20.166 74 35.499v-138c-23.333 -15.333 -48.166 -26.666 -74.499 -33.999s-58.5 -11 -96.5 -11z
M291.001 766.999c24.667 0 46 -5.33301 64 -16s27 -31.334 27 -62.001c0 -30 -9 -50.5 -27 -61.5s-39.333 -16.5 -64 -16.5c-25.333 0 -46.666 5.5 -63.999 16.5s-26 31.5 -26 61.5c0 30.667 8.66699 51.334 26 62.001s38.666 16 63.999 16z" />
    <glyph glyph-name="Ccaron" unicode="&#x10c;" horiz-adv-x="643" 
d="M394 583c-52.667 0 -93.167 -20.1689 -121.5 -60.502s-42.5 -96.166 -42.5 -167.499c0 -72.667 13.667 -128.167 41 -166.5s70 -57.5 128 -57.5c30 0 59.667 3.83301 89 11.5s60.333 17.5 93 29.5v-144c-31.333 -13.333 -63 -23 -95 -29s-66.667 -9 -104 -9
c-76 0 -138 15.333 -186 46s-83.5 73.334 -106.5 128.001s-34.5 118.667 -34.5 192c0 72 13.167 135.667 39.5 191s64.833 98.666 115.5 129.999s112.334 47 185.001 47c35.333 0 71.333 -4.16699 108 -12.5s72 -20.833 106 -37.5l-53 -136
c-26.667 12.667 -53.334 23.334 -80.001 32.001s-54 13 -82 13zM282 770.998c-9.33301 14.667 -21.501 31.166 -36.501 49.499s-30.5 36 -46.5 53l-42 44.5v13h111c17.333 -10.667 34.833 -22.5 52.5 -35.5s35.167 -27.833 52.5 -44.5c17.333 16.667 35 31.5 53 44.5
s35.667 24.833 53 35.5h111v-13l-41 -44c-16 -17.333 -31.667 -35.166 -47 -53.499s-27.666 -34.833 -36.999 -49.5h-183z" />
    <glyph glyph-name="ccaron" unicode="&#x10d;" horiz-adv-x="526" 
d="M308 -10c-82.667 0 -147.333 22.499 -194 67.499s-70 116.5 -70 214.5c0 66.667 12 121.167 36 163.5s56.833 73.5 98.5 93.5s89.5 30 143.5 30c36 0 68.333 -3.66699 97 -11s54.667 -16.666 78 -27.999l-49 -127c-23.333 9.33301 -45 17 -65 23s-40.333 9 -61 9
c-34.667 0 -61.167 -12.5 -79.5 -37.5s-27.5 -63.167 -27.5 -114.5s9.66699 -88.833 29 -112.5s45.666 -35.5 78.999 -35.5c28.667 0 56 4.16699 82 12.5s50.667 20.166 74 35.499v-138c-23.333 -15.333 -48.166 -26.666 -74.499 -33.999s-58.5 -11 -96.5 -11z
M200.001 605.999c-9.33301 14.667 -21.501 31.166 -36.501 49.499s-30.5 36 -46.5 53l-42 44.5v13h111c17.333 -10.667 34.833 -22.5 52.5 -35.5s35.167 -27.833 52.5 -44.5c17.333 16.667 35 31.5 53 44.5s35.667 24.833 53 35.5h111v-13l-41 -44
c-16 -17.333 -31.667 -35.166 -47 -53.499s-27.666 -34.833 -36.999 -49.5h-183z" />
    <glyph glyph-name="Dcaron" unicode="&#x10e;" horiz-adv-x="737" 
d="M682 368c0 -122.667 -34.001 -214.667 -102.001 -276s-161.667 -92 -281 -92h-215v714h235c112.667 0 201.334 -29.5 266.001 -88.5s97 -144.833 97 -257.5zM505.999 362c0 72.667 -15.5 126.333 -46.5 161s-76.167 52 -135.5 52h-70v-435h55c67.333 0 117 18.5 149 55.5
s48 92.5 48 166.5zM278.999 770.999c-9.33301 14.667 -21.501 31.166 -36.501 49.499s-30.5 36 -46.5 53l-42 44.5v13h111c17.333 -10.667 34.833 -22.5 52.5 -35.5s35.167 -27.833 52.5 -44.5c17.333 16.667 35 31.5 53 44.5s35.667 24.833 53 35.5h111v-13l-41 -44
c-16 -17.333 -31.667 -35.166 -47 -53.499s-27.666 -34.833 -36.999 -49.5h-183z" />
    <glyph glyph-name="dcaron" unicode="&#x10f;" horiz-adv-x="638" 
d="M245 -10c-59.333 0 -107.667 24.001 -145 72.001s-56 118.667 -56 212c0 94 19 165 57 213s87.667 72 149 72c38.667 0 70 -7.66699 94 -23s43.333 -34.333 58 -57h4c-2 12 -4.16699 29.167 -6.5 51.5s-3.5 44.5 -3.5 66.5v163h169v-760h-128l-34 71h-7
c-14 -22.667 -32.833 -41.834 -56.5 -57.501s-55.167 -23.5 -94.5 -23.5zM308.999 124.001c36 0 61.5 11 76.5 33s22.833 55.333 23.5 100v15c0 49.333 -7.16699 86.833 -21.5 112.5s-41.166 38.5 -80.499 38.5c-28.667 0 -51.334 -12.667 -68.001 -38s-25 -63.333 -25 -114
c0 -50 8.5 -87 25.5 -111s40.167 -36 69.5 -36zM782.999 760.001l-0.00292969 -10.001c-11.333 -23.333 -23.666 -47.166 -36.999 -71.499s-28.666 -50.5 -45.999 -78.5h-100v13c5.33301 19.333 10.833 43.333 16.5 72s9.83398 53.667 12.501 75h154z" />
    <glyph glyph-name="Dcroat" unicode="&#x110;" horiz-adv-x="737" 
d="M319 714c112.667 0 201.333 -29.5 266 -88.5s97 -144.833 97 -257.5c0 -122.667 -34 -214.667 -102 -276s-161.667 -92 -281 -92h-215v284h-65v138h65v292h235zM322.999 575l-69.001 -0.000976562v-153h110v-138h-110v-144h55c131.333 0 197 74 197 222
c0 72.667 -15.667 126.334 -47 161.001s-76.666 52 -135.999 52z" />
    <glyph glyph-name="dcroat" unicode="&#x111;" horiz-adv-x="655" 
d="M241 -10c-58 0 -105.332 22.5 -141.999 67.5s-55 110.5 -55 196.5c0 89.333 19.333 156 58 200s88.667 66 150 66c38 0 69.167 -7.66699 93.5 -23s44.166 -34.333 59.499 -57h4c-0.666992 2.66699 -2 10.334 -4 23.001s-4 28 -6 46s-3 35.667 -3 53v16h-135v106h135v76
h169v-76h76v-106h-76v-578h-133l-36 71h-6c-14.667 -22.667 -33.667 -41.834 -57 -57.501s-54 -23.5 -92 -23.5zM314.001 124c34.667 0 59 9.66602 73 28.999s21.333 48.333 22 87v13c0 42.667 -7.66699 75.167 -23 97.5s-40.333 33.5 -75 33.5
c-27.333 0 -49 -10.667 -65 -32s-24 -54.666 -24 -99.999c0 -38.667 7.66699 -69.667 23 -93s38.333 -35 69 -35z" />
    <glyph glyph-name="Emacron" unicode="&#x112;" horiz-adv-x="555" 
d="M501 0h-417v714h417v-138h-247v-137h229v-138h-229v-161h247v-140zM468 880v-109h-342v109h342z" />
    <glyph glyph-name="emacron" unicode="&#x113;" horiz-adv-x="603" 
d="M309 559c77.333 0 138.668 -21.167 184.001 -63.5s68 -104.5 68 -186.5v-78h-347c1.33301 -36 13 -64.667 35 -86s53.333 -32 94 -32c35.333 0 67.333 3.33301 96 10s58.334 17.334 89.001 32.001v-125c-26.667 -14 -55.334 -24.167 -86.001 -30.5
s-68.334 -9.5 -113.001 -9.5c-55.333 0 -104.5 10 -147.5 30s-76.667 50.667 -101 92s-36.5 94.333 -36.5 159c0 97.333 24.333 169.666 73 216.999s112.667 71 192 71zM312.002 442c-26 0 -47.498 -8.33105 -64.498 -24.998s-27.167 -42.334 -30.5 -77.001h189
c-0.666992 29.333 -8.83398 53.666 -24.501 72.999s-38.834 29 -69.501 29zM475.004 715.002v-109h-342v109h342z" />
    <glyph glyph-name="Ebreve" unicode="&#x114;" horiz-adv-x="555" 
d="M501 0h-417v714h417v-138h-247v-137h229v-138h-229v-161h247v-140zM493 943c-3.33301 -50.667 -22.499 -92 -57.499 -124s-81.167 -48 -138.5 -48c-60.667 0 -107.334 15.5 -140.001 46.5s-50.334 72.833 -53.001 125.5h92c4.66699 -28 15.667 -45.333 33 -52
s40 -10 68 -10c22.667 0 43.834 3.83301 63.501 11.5s32.167 24.5 37.5 50.5h95z" />
    <glyph glyph-name="ebreve" unicode="&#x115;" horiz-adv-x="603" 
d="M309 559c77.333 0 138.668 -21.167 184.001 -63.5s68 -104.5 68 -186.5v-78h-347c1.33301 -36 13 -64.667 35 -86s53.333 -32 94 -32c35.333 0 67.333 3.33301 96 10s58.334 17.334 89.001 32.001v-125c-26.667 -14 -55.334 -24.167 -86.001 -30.5
s-68.334 -9.5 -113.001 -9.5c-55.333 0 -104.5 10 -147.5 30s-76.667 50.667 -101 92s-36.5 94.333 -36.5 159c0 97.333 24.333 169.666 73 216.999s112.667 71 192 71zM312.002 442c-26 0 -47.498 -8.33105 -64.498 -24.998s-27.167 -42.334 -30.5 -77.001h189
c-0.666992 29.333 -8.83398 53.666 -24.501 72.999s-38.834 29 -69.501 29zM499.004 778.002c-3.33301 -50.667 -22.499 -92 -57.499 -124s-81.167 -48 -138.5 -48c-60.667 0 -107.334 15.5 -140.001 46.5s-50.334 72.833 -53.001 125.5h92
c4.66699 -28 15.667 -45.333 33 -52s40 -10 68 -10c22.667 0 43.834 3.83301 63.501 11.5s32.167 24.5 37.5 50.5h95z" />
    <glyph glyph-name="Edotaccent" unicode="&#x116;" horiz-adv-x="555" 
d="M501 0h-417v714h417v-138h-247v-137h229v-138h-229v-161h247v-140zM297 932c24.667 0 46 -5.33301 64 -16s27 -31.334 27 -62.001c0 -30 -9 -50.5 -27 -61.5s-39.333 -16.5 -64 -16.5c-25.333 0 -46.666 5.5 -63.999 16.5s-26 31.5 -26 61.5
c0 30.667 8.66699 51.334 26 62.001s38.666 16 63.999 16z" />
    <glyph glyph-name="edotaccent" unicode="&#x117;" horiz-adv-x="603" 
d="M309 559c77.333 0 138.668 -21.167 184.001 -63.5s68 -104.5 68 -186.5v-78h-347c1.33301 -36 13 -64.667 35 -86s53.333 -32 94 -32c35.333 0 67.333 3.33301 96 10s58.334 17.334 89.001 32.001v-125c-26.667 -14 -55.334 -24.167 -86.001 -30.5
s-68.334 -9.5 -113.001 -9.5c-55.333 0 -104.5 10 -147.5 30s-76.667 50.667 -101 92s-36.5 94.333 -36.5 159c0 97.333 24.333 169.666 73 216.999s112.667 71 192 71zM312.002 442c-26 0 -47.498 -8.33105 -64.498 -24.998s-27.167 -42.334 -30.5 -77.001h189
c-0.666992 29.333 -8.83398 53.666 -24.501 72.999s-38.834 29 -69.501 29zM303.004 767.002c24.667 0 46 -5.33301 64 -16s27 -31.334 27 -62.001c0 -30 -9 -50.5 -27 -61.5s-39.333 -16.5 -64 -16.5c-25.333 0 -46.666 5.5 -63.999 16.5s-26 31.5 -26 61.5
c0 30.667 8.66699 51.334 26 62.001s38.666 16 63.999 16z" />
    <glyph glyph-name="Eogonek" unicode="&#x118;" horiz-adv-x="555" 
d="M501 0h-417v714h417v-138h-247v-137h229v-138h-229v-161h247v-140zM407 -105c0 -12.667 3.50098 -21.835 10.501 -27.502s16.167 -8.5 27.5 -8.5c9.33301 0 19.5 1 30.5 3s19.833 4.33301 26.5 7v-97c-10.667 -3.33301 -22.334 -6.16602 -35.001 -8.49902
s-27.667 -3.5 -45 -3.5c-37.333 0 -68 10.333 -92 31s-36 47.667 -36 81c0 52.667 37.333 102.334 112 149.001l69 -21c-22.667 -21.333 -39.667 -40 -51 -56s-17 -32.333 -17 -49z" />
    <glyph glyph-name="eogonek" unicode="&#x119;" horiz-adv-x="603" 
d="M429 -102c0 -13.333 3.83203 -23.168 11.499 -29.501s17.167 -9.5 28.5 -9.5c10 0 20 1 30 3s18.333 4.33301 25 7v-97c-10.667 -3.33301 -22.334 -6.16602 -35.001 -8.49902s-27.667 -3.5 -45 -3.5c-37.333 0 -68 10.333 -92 31s-36 47.667 -36 81
c0 42 23.667 82 71 120c-17.333 -1.33301 -36.666 -2 -57.999 -2c-55.333 0 -104.5 10 -147.5 30s-76.667 50.667 -101 92s-36.5 94.333 -36.5 159c0 97.333 24.333 169.666 73 216.999s112.667 71 192 71c77.333 0 138.666 -21.167 183.999 -63.5s68 -104.5 68 -186.5v-78
h-347c1.33301 -36 13 -64.667 35 -86s53.333 -32 94 -32c35.333 0 67.333 3.33301 96 10s58.334 17.334 89.001 32.001v-125c-26.667 -23.333 -47.167 -42.833 -61.5 -58.5s-24.166 -29.167 -29.499 -40.5s-8 -22.333 -8 -33zM311.999 441.998
c-26 0 -47.498 -8.33105 -64.498 -24.998s-27.167 -42.334 -30.5 -77.001h189c-0.666992 29.333 -8.83398 53.666 -24.501 72.999s-38.834 29 -69.501 29z" />
    <glyph glyph-name="Ecaron" unicode="&#x11a;" horiz-adv-x="555" 
d="M501 0h-417v714h417v-138h-247v-137h229v-138h-229v-161h247v-140zM206 771c-9.33301 14.667 -21.501 31.166 -36.501 49.499s-30.5 36 -46.5 53l-42 44.5v13h111c17.333 -10.667 34.833 -22.5 52.5 -35.5s35.167 -27.833 52.5 -44.5c17.333 16.667 35 31.5 53 44.5
s35.667 24.833 53 35.5h111v-13l-41 -44c-16 -17.333 -31.667 -35.166 -47 -53.499s-27.666 -34.833 -36.999 -49.5h-183z" />
    <glyph glyph-name="ecaron" unicode="&#x11b;" horiz-adv-x="603" 
d="M309 559c77.333 0 138.668 -21.167 184.001 -63.5s68 -104.5 68 -186.5v-78h-347c1.33301 -36 13 -64.667 35 -86s53.333 -32 94 -32c35.333 0 67.333 3.33301 96 10s58.334 17.334 89.001 32.001v-125c-26.667 -14 -55.334 -24.167 -86.001 -30.5
s-68.334 -9.5 -113.001 -9.5c-55.333 0 -104.5 10 -147.5 30s-76.667 50.667 -101 92s-36.5 94.333 -36.5 159c0 97.333 24.333 169.666 73 216.999s112.667 71 192 71zM312.002 442c-26 0 -47.498 -8.33105 -64.498 -24.998s-27.167 -42.334 -30.5 -77.001h189
c-0.666992 29.333 -8.83398 53.666 -24.501 72.999s-38.834 29 -69.501 29zM212.004 606.002c-9.33301 14.667 -21.501 31.166 -36.501 49.499s-30.5 36 -46.5 53l-42 44.5v13h111c17.333 -10.667 34.833 -22.5 52.5 -35.5s35.167 -27.833 52.5 -44.5
c17.333 16.667 35 31.5 53 44.5s35.667 24.833 53 35.5h111v-13l-41 -44c-16 -17.333 -31.667 -35.166 -47 -53.499s-27.666 -34.833 -36.999 -49.5h-183z" />
    <glyph glyph-name="Gcircumflex" unicode="&#x11c;" horiz-adv-x="731" 
d="M362 409h294.998v-377c-37.333 -12.667 -77.833 -22.834 -121.5 -30.501s-91.167 -11.5 -142.5 -11.5c-104.667 0 -187.167 30.833 -247.5 92.5s-90.5 153.5 -90.5 275.5c0 74.667 14.333 139.334 43 194.001s70.834 97 126.501 127s123.834 45 204.501 45
c40.667 0 80.167 -4 118.5 -12s72.166 -18.667 101.499 -32l-55 -135c-23.333 11.333 -48.833 20.5 -76.5 27.5s-57.167 10.5 -88.5 10.5c-43.333 0 -79.833 -9.83301 -109.5 -29.5s-51.834 -46.667 -66.501 -81s-22 -73.5 -22 -117.5
c0 -68.667 14.167 -123.167 42.5 -163.5s72.5 -60.5 132.5 -60.5c16.667 0 32.834 1 48.501 3s28.834 4 39.501 6v132h-132v137zM492.998 931c9.33301 -14.667 21.667 -31.168 37 -49.501s31 -36.166 47 -53.499l41 -44v-13h-111c-17.333 10.667 -35 22.5 -53 35.5
s-35.667 27.833 -53 44.5c-17.333 -16.667 -34.833 -31.5 -52.5 -44.5s-35.167 -24.833 -52.5 -35.5h-111v13l42 44.5c16 17 31.5 34.667 46.5 53s27.167 34.833 36.5 49.5h183z" />
    <glyph glyph-name="gcircumflex" unicode="&#x11d;" horiz-adv-x="638" 
d="M249 559c36 0 66.5 -7 91.5 -21s46.167 -33.333 63.5 -58h4l13 69h144v-550c0 -78 -23.5 -137.333 -70.5 -178s-117.833 -61 -212.5 -61c-41.333 0 -78.833 2.33301 -112.5 7s-66.167 13 -97.5 25v137c33.333 -14 66.5 -24.5 99.5 -31.5s69.833 -10.5 110.5 -10.5
c76.667 0 115 35 115 105v11c0 20 1.66699 42.667 5 68h-5c-16 -25.333 -36.5 -45.166 -61.5 -59.499s-54.833 -21.5 -89.5 -21.5c-62 0 -111.167 24.667 -147.5 74s-54.5 119.333 -54.5 210c0 91.333 18.5 161.666 55.5 210.999s86.833 74 149.5 74zM308 426
c-62 0 -93.001 -51.668 -93.001 -155.001c0 -51.333 7.66699 -89.166 23 -113.499s39.333 -36.5 72 -36.5c34.667 0 59.834 10.5 75.501 31.5s23.5 54.833 23.5 101.5v21c0 51.333 -7.5 89.333 -22.5 114s-41.167 37 -78.5 37zM406.999 765.999
c9.33301 -14.667 21.667 -31.168 37 -49.501s31 -36.166 47 -53.499l41 -44v-13h-111c-17.333 10.667 -35 22.5 -53 35.5s-35.667 27.833 -53 44.5c-17.333 -16.667 -34.833 -31.5 -52.5 -44.5s-35.167 -24.833 -52.5 -35.5h-111v13l42 44.5c16 17 31.5 34.667 46.5 53
s27.167 34.833 36.5 49.5h183z" />
    <glyph glyph-name="Gbreve" unicode="&#x11e;" horiz-adv-x="731" 
d="M362 409h294.998v-377c-37.333 -12.667 -77.833 -22.834 -121.5 -30.501s-91.167 -11.5 -142.5 -11.5c-104.667 0 -187.167 30.833 -247.5 92.5s-90.5 153.5 -90.5 275.5c0 74.667 14.333 139.334 43 194.001s70.834 97 126.501 127s123.834 45 204.501 45
c40.667 0 80.167 -4 118.5 -12s72.166 -18.667 101.499 -32l-55 -135c-23.333 11.333 -48.833 20.5 -76.5 27.5s-57.167 10.5 -88.5 10.5c-43.333 0 -79.833 -9.83301 -109.5 -29.5s-51.834 -46.667 -66.501 -81s-22 -73.5 -22 -117.5
c0 -68.667 14.167 -123.167 42.5 -163.5s72.5 -60.5 132.5 -60.5c16.667 0 32.834 1 48.501 3s28.834 4 39.501 6v132h-132v137zM597.998 943c-3.33301 -50.667 -22.499 -92 -57.499 -124s-81.167 -48 -138.5 -48c-60.667 0 -107.334 15.5 -140.001 46.5
s-50.334 72.833 -53.001 125.5h92c4.66699 -28 15.667 -45.333 33 -52s40 -10 68 -10c22.667 0 43.834 3.83301 63.501 11.5s32.167 24.5 37.5 50.5h95z" />
    <glyph glyph-name="gbreve" unicode="&#x11f;" horiz-adv-x="638" 
d="M249 559c36 0 66.5 -7 91.5 -21s46.167 -33.333 63.5 -58h4l13 69h144v-550c0 -78 -23.5 -137.333 -70.5 -178s-117.833 -61 -212.5 -61c-41.333 0 -78.833 2.33301 -112.5 7s-66.167 13 -97.5 25v137c33.333 -14 66.5 -24.5 99.5 -31.5s69.833 -10.5 110.5 -10.5
c76.667 0 115 35 115 105v11c0 20 1.66699 42.667 5 68h-5c-16 -25.333 -36.5 -45.166 -61.5 -59.499s-54.833 -21.5 -89.5 -21.5c-62 0 -111.167 24.667 -147.5 74s-54.5 119.333 -54.5 210c0 91.333 18.5 161.666 55.5 210.999s86.833 74 149.5 74zM308 426
c-62 0 -93.001 -51.668 -93.001 -155.001c0 -51.333 7.66699 -89.166 23 -113.499s39.333 -36.5 72 -36.5c34.667 0 59.834 10.5 75.501 31.5s23.5 54.833 23.5 101.5v21c0 51.333 -7.5 89.333 -22.5 114s-41.167 37 -78.5 37zM510.999 777.999
c-3.33301 -50.667 -22.499 -92 -57.499 -124s-81.167 -48 -138.5 -48c-60.667 0 -107.334 15.5 -140.001 46.5s-50.334 72.833 -53.001 125.5h92c4.66699 -28 15.667 -45.333 33 -52s40 -10 68 -10c22.667 0 43.834 3.83301 63.501 11.5s32.167 24.5 37.5 50.5h95z" />
    <glyph glyph-name="Gdot" unicode="&#x120;" horiz-adv-x="731" 
d="M362 409h294.998v-377c-37.333 -12.667 -77.833 -22.834 -121.5 -30.501s-91.167 -11.5 -142.5 -11.5c-104.667 0 -187.167 30.833 -247.5 92.5s-90.5 153.5 -90.5 275.5c0 74.667 14.333 139.334 43 194.001s70.834 97 126.501 127s123.834 45 204.501 45
c40.667 0 80.167 -4 118.5 -12s72.166 -18.667 101.499 -32l-55 -135c-23.333 11.333 -48.833 20.5 -76.5 27.5s-57.167 10.5 -88.5 10.5c-43.333 0 -79.833 -9.83301 -109.5 -29.5s-51.834 -46.667 -66.501 -81s-22 -73.5 -22 -117.5
c0 -68.667 14.167 -123.167 42.5 -163.5s72.5 -60.5 132.5 -60.5c16.667 0 32.834 1 48.501 3s28.834 4 39.501 6v132h-132v137zM401.998 932c24.667 0 46 -5.33301 64 -16s27 -31.334 27 -62.001c0 -30 -9 -50.5 -27 -61.5s-39.333 -16.5 -64 -16.5
c-25.333 0 -46.666 5.5 -63.999 16.5s-26 31.5 -26 61.5c0 30.667 8.66699 51.334 26 62.001s38.666 16 63.999 16z" />
    <glyph glyph-name="gdot" unicode="&#x121;" horiz-adv-x="638" 
d="M249 559c36 0 66.5 -7 91.5 -21s46.167 -33.333 63.5 -58h4l13 69h144v-550c0 -78 -23.5 -137.333 -70.5 -178s-117.833 -61 -212.5 -61c-41.333 0 -78.833 2.33301 -112.5 7s-66.167 13 -97.5 25v137c33.333 -14 66.5 -24.5 99.5 -31.5s69.833 -10.5 110.5 -10.5
c76.667 0 115 35 115 105v11c0 20 1.66699 42.667 5 68h-5c-16 -25.333 -36.5 -45.166 -61.5 -59.499s-54.833 -21.5 -89.5 -21.5c-62 0 -111.167 24.667 -147.5 74s-54.5 119.333 -54.5 210c0 91.333 18.5 161.666 55.5 210.999s86.833 74 149.5 74zM308 426
c-62 0 -93.001 -51.668 -93.001 -155.001c0 -51.333 7.66699 -89.166 23 -113.499s39.333 -36.5 72 -36.5c34.667 0 59.834 10.5 75.501 31.5s23.5 54.833 23.5 101.5v21c0 51.333 -7.5 89.333 -22.5 114s-41.167 37 -78.5 37zM314.999 766.999c24.667 0 46 -5.33301 64 -16
s27 -31.334 27 -62.001c0 -30 -9 -50.5 -27 -61.5s-39.333 -16.5 -64 -16.5c-25.333 0 -46.666 5.5 -63.999 16.5s-26 31.5 -26 61.5c0 30.667 8.66699 51.334 26 62.001s38.666 16 63.999 16z" />
    <glyph glyph-name="uni0122" unicode="&#x122;" horiz-adv-x="731" 
d="M362 409h294.998v-377c-37.333 -12.667 -77.833 -22.834 -121.5 -30.501s-91.167 -11.5 -142.5 -11.5c-104.667 0 -187.167 30.833 -247.5 92.5s-90.5 153.5 -90.5 275.5c0 74.667 14.333 139.334 43 194.001s70.834 97 126.501 127s123.834 45 204.501 45
c40.667 0 80.167 -4 118.5 -12s72.166 -18.667 101.499 -32l-55 -135c-23.333 11.333 -48.833 20.5 -76.5 27.5s-57.167 10.5 -88.5 10.5c-43.333 0 -79.833 -9.83301 -109.5 -29.5s-51.834 -46.667 -66.501 -81s-22 -73.5 -22 -117.5
c0 -68.667 14.167 -123.167 42.5 -163.5s72.5 -60.5 132.5 -60.5c16.667 0 32.834 1 48.501 3s28.834 4 39.501 6v132h-132v137zM475.998 -61l0.000976562 -10c-10.667 -24.667 -22.5 -49.167 -35.5 -73.5s-28.5 -49.833 -46.5 -76.5h-99v13
c5.33301 20.667 10.666 45.167 15.999 73.5s9 52.833 11 73.5h154z" />
    <glyph glyph-name="uni0123" unicode="&#x123;" horiz-adv-x="638" 
d="M249 559c36 0 66.5 -7 91.5 -21s46.167 -33.333 63.5 -58h4l13 69h144v-550c0 -78 -23.5 -137.333 -70.5 -178s-117.833 -61 -212.5 -61c-41.333 0 -78.833 2.33301 -112.5 7s-66.167 13 -97.5 25v137c33.333 -14 66.5 -24.5 99.5 -31.5s69.833 -10.5 110.5 -10.5
c76.667 0 115 35 115 105v11c0 20 1.66699 42.667 5 68h-5c-16 -25.333 -36.5 -45.166 -61.5 -59.499s-54.833 -21.5 -89.5 -21.5c-62 0 -111.167 24.667 -147.5 74s-54.5 119.333 -54.5 210c0 91.333 18.5 161.666 55.5 210.999s86.833 74 149.5 74zM308 426
c-62 0 -93.001 -51.668 -93.001 -155.001c0 -51.333 7.66699 -89.166 23 -113.499s39.333 -36.5 72 -36.5c34.667 0 59.834 10.5 75.501 31.5s23.5 54.833 23.5 101.5v21c0 51.333 -7.5 89.333 -22.5 114s-41.167 37 -78.5 37zM401.999 765.999v-13
c-5.33301 -20.667 -10.5 -45 -15.5 -73s-8.5 -52.667 -10.5 -74h-155v10l37.5 71.5c13 24.333 27.833 50.5 44.5 78.5h99z" />
    <glyph glyph-name="Hcircumflex" unicode="&#x124;" horiz-adv-x="765" 
d="M681 0h-170v300h-256v-300h-171v714h171v-273h256v273h170v-714zM476 931c9.33301 -14.667 21.667 -31.168 37 -49.501s31 -36.166 47 -53.499l41 -44v-13h-111c-17.333 10.667 -35 22.5 -53 35.5s-35.667 27.833 -53 44.5c-17.333 -16.667 -34.833 -31.5 -52.5 -44.5
s-35.167 -24.833 -52.5 -35.5h-111v13l42 44.5c16 17 31.5 34.667 46.5 53s27.167 34.833 36.5 49.5h183z" />
    <glyph glyph-name="hcircumflex" unicode="&#x125;" horiz-adv-x="663" 
d="M241 760l-0.000976562 -133c0 -33.333 -1 -63.166 -3 -89.499s-3.66699 -45.5 -5 -57.5h9c17.333 28.667 39.333 49 66 61s56.334 18 89.001 18c38 0 71.667 -7 101 -21s52.5 -35.833 69.5 -65.5s25.5 -67.834 25.5 -114.501v-358h-169v311c0 76.667 -26 115 -78 115
c-40 0 -67.5 -15.167 -82.5 -45.5s-22.5 -73.5 -22.5 -129.5v-251h-169v760h169zM251.999 977c9.33301 -14.667 21.667 -31.168 37 -49.501s31 -36.166 47 -53.499l41 -44v-13h-111c-17.333 10.667 -35 22.5 -53 35.5s-35.667 27.833 -53 44.5
c-17.333 -16.667 -34.833 -31.5 -52.5 -44.5s-35.167 -24.833 -52.5 -35.5h-111v13l42 44.5c16 17 31.5 34.667 46.5 53s27.167 34.833 36.5 49.5h183z" />
    <glyph glyph-name="Hbar" unicode="&#x126;" horiz-adv-x="773" 
d="M88 0v522h-88v104h88v88h170v-88h256v88h171v-88h88v-104h-88v-522h-171v300h-256v-300h-170zM258 441h256v81h-256v-81z" />
    <glyph glyph-name="hbar" unicode="&#x127;" horiz-adv-x="668" 
d="M245 760l-0.000976562 -75.999h136v-106h-136v-15c0 -21.333 -0.833008 -43.833 -2.5 -67.5s-3.16699 -41.834 -4.5 -54.501h10c17.333 28 39 48.167 65 60.5s56 18.5 90 18.5c56.667 0 103.334 -15.833 140.001 -47.5s55 -82.5 55 -152.5v-320h-169v272
c0 76.667 -26 115 -78 115c-40 0 -67.667 -15.167 -83 -45.5s-23 -73.833 -23 -130.5v-211h-168v578h-76v106h76v76h168z" />
    <glyph glyph-name="Itilde" unicode="&#x128;" horiz-adv-x="413" 
d="M380 0h-347v97l88 37v446l-88 37v97h347v-97l-88 -37v-446l88 -37v-97zM2 770c4 56 17.668 96.333 41.001 121s52.333 37 87 37c17.333 0 35 -4.16699 53 -12.5l53 -24.5c17.333 -8 34.333 -12 51 -12c8 0 16.167 3.66699 24.5 11s14.166 20.333 17.499 39h81
c-4 -55.333 -18 -95.5 -42 -120.5s-52.333 -37.5 -85 -37.5c-18.667 0 -37.167 4 -55.5 12l-53.5 24.5c-17.333 8.33301 -34 12.5 -50 12.5c-8 0 -16 -3.5 -24 -10.5s-14 -20.167 -18 -39.5h-80z" />
    <glyph glyph-name="itilde" unicode="&#x129;" horiz-adv-x="314" 
d="M241 0h-168v549h168v-549zM-47 605c4 56 17.668 96.333 41.001 121s52.333 37 87 37c17.333 0 35 -4.16699 53 -12.5l53 -24.5c17.333 -8 34.333 -12 51 -12c8 0 16.167 3.66699 24.5 11s14.166 20.333 17.499 39h81c-4 -55.333 -18 -95.5 -42 -120.5
s-52.333 -37.5 -85 -37.5c-18.667 0 -37.167 4 -55.5 12l-53.5 24.5c-17.333 8.33301 -34 12.5 -50 12.5c-8 0 -16 -3.5 -24 -10.5s-14 -20.167 -18 -39.5h-80z" />
    <glyph glyph-name="Imacron" unicode="&#x12a;" horiz-adv-x="413" 
d="M380 0h-347v97l88 37v446l-88 37v97h347v-97l-88 -37v-446l88 -37v-97zM379 880v-109h-342v109h342z" />
    <glyph glyph-name="imacron" unicode="&#x12b;" horiz-adv-x="314" 
d="M241 0h-168v549h168v-549zM330 715v-109h-342v109h342z" />
    <glyph glyph-name="Ibreve" unicode="&#x12c;" horiz-adv-x="413" 
d="M380 0h-347v97l88 37v446l-88 37v97h347v-97l-88 -37v-446l88 -37v-97zM404 943c-3.33301 -50.667 -22.499 -92 -57.499 -124s-81.167 -48 -138.5 -48c-60.667 0 -107.334 15.5 -140.001 46.5s-50.334 72.833 -53.001 125.5h92c4.66699 -28 15.667 -45.333 33 -52
s40 -10 68 -10c22.667 0 43.834 3.83301 63.501 11.5s32.167 24.5 37.5 50.5h95z" />
    <glyph glyph-name="ibreve" unicode="&#x12d;" horiz-adv-x="314" 
d="M241 0h-168v549h168v-549zM355 778c-3.33301 -50.667 -22.499 -92 -57.499 -124s-81.167 -48 -138.5 -48c-60.667 0 -107.334 15.5 -140.001 46.5s-50.334 72.833 -53.001 125.5h92c4.66699 -28 15.667 -45.333 33 -52s40 -10 68 -10
c22.667 0 43.834 3.83301 63.501 11.5s32.167 24.5 37.5 50.5h95z" />
    <glyph glyph-name="Iogonek" unicode="&#x12e;" horiz-adv-x="413" 
d="M380 0h-347v97l88 37v446l-88 37v97h347v-97l-88 -37v-446l88 -37v-97zM286 -105c0 -12.667 3.50098 -21.835 10.501 -27.502s16.167 -8.5 27.5 -8.5c9.33301 0 19.5 1 30.5 3s19.833 4.33301 26.5 7v-97c-10.667 -3.33301 -22.334 -6.16602 -35.001 -8.49902
s-27.667 -3.5 -45 -3.5c-37.333 0 -68 10.333 -92 31s-36 47.667 -36 81c0 52.667 37.333 102.334 112 149.001l69 -21c-22.667 -21.333 -39.667 -40 -51 -56s-17 -32.333 -17 -49z" />
    <glyph glyph-name="iogonek" unicode="&#x12f;" horiz-adv-x="314" 
d="M158 767c24.667 0 45.834 -5.33301 63.501 -16s26.5 -31.334 26.5 -62.001c0 -30 -8.83301 -50.5 -26.5 -61.5s-38.834 -16.5 -63.501 -16.5c-25.333 0 -46.833 5.5 -64.5 16.5s-26.5 31.5 -26.5 61.5c0 30.667 8.83301 51.334 26.5 62.001s39.167 16 64.5 16zM241 549
v-549h-168v549h168zM160 -105c0 -12.667 3.50098 -21.835 10.501 -27.502s16.167 -8.5 27.5 -8.5c9.33301 0 19.5 1 30.5 3s19.833 4.33301 26.5 7v-97c-10.667 -3.33301 -22.334 -6.16602 -35.001 -8.49902s-27.667 -3.5 -45 -3.5c-37.333 0 -68 10.333 -92 31
s-36 47.667 -36 81c0 52.667 37.333 102.334 112 149.001l69 -21c-22.667 -21.333 -39.667 -40 -51 -56s-17 -32.333 -17 -49z" />
    <glyph glyph-name="Idotaccent" unicode="&#x130;" horiz-adv-x="413" 
d="M380 0h-347v97l88 37v446l-88 37v97h347v-97l-88 -37v-446l88 -37v-97zM208 932c24.667 0 46 -5.33301 64 -16s27 -31.334 27 -62.001c0 -30 -9 -50.5 -27 -61.5s-39.333 -16.5 -64 -16.5c-25.333 0 -46.666 5.5 -63.999 16.5s-26 31.5 -26 61.5
c0 30.667 8.66699 51.334 26 62.001s38.666 16 63.999 16z" />
    <glyph glyph-name="dotlessi" unicode="&#x131;" horiz-adv-x="314" 
d="M241 0h-168v549h168v-549z" />
    <glyph glyph-name="IJ" unicode="&#x132;" horiz-adv-x="753" 
d="M380 0h-347v97l88 37v446l-88 37v97h347v-97l-88 -37v-446l88 -37v-97zM431 -216c-21.333 0 -39.667 1 -55 3s-28.333 4.33301 -39 7v137l33.5 -6.5c11.667 -2.33301 24.167 -3.5 37.5 -3.5c30 0 52.667 9.33301 68 28s23 52 23 100v665h171v-657
c0 -66 -10.167 -119 -30.5 -159s-48.5 -69 -84.5 -87s-77.333 -27 -124 -27z" />
    <glyph glyph-name="ij" unicode="&#x133;" horiz-adv-x="628" 
d="M158 767c24.667 0 45.834 -5.33301 63.501 -16s26.5 -31.334 26.5 -62.001c0 -30 -8.83301 -50.5 -26.5 -61.5s-38.834 -16.5 -63.501 -16.5c-25.333 0 -46.833 5.5 -64.5 16.5s-26.5 31.5 -26.5 61.5c0 30.667 8.83301 51.334 26.5 62.001s39.167 16 64.5 16zM241 549
v-549h-168v549h168zM381 689c0 30.667 8.83301 51.334 26.5 62.001s38.834 16 63.501 16s46 -5.33301 64 -16s27 -31.334 27 -62.001c0 -30 -9 -50.5 -27 -61.5s-39.333 -16.5 -64 -16.5s-45.834 5.5 -63.501 16.5s-26.5 31.5 -26.5 61.5zM356 -240
c-16 0 -33.501 1.16699 -52.501 3.5s-34.833 5.16602 -47.5 8.49902v132c11.333 -2.66699 21.833 -4.83398 31.5 -6.50098s20.834 -2.5 33.501 -2.5c18 0 33.333 5.5 46 16.5s19 33.167 19 66.5v571h169v-602c0 -33.333 -6.5 -64.166 -19.5 -92.499s-34 -51.166 -63 -68.499
s-67.833 -26 -116.5 -26z" />
    <glyph glyph-name="Jcircumflex" unicode="&#x134;" horiz-adv-x="341" 
d="M18 -216c-21.333 0 -39.667 1 -55 3s-28.333 4.33301 -39 7v137l33.5 -6.5c11.667 -2.33301 24.167 -3.5 37.5 -3.5c30 0 52.667 9.33301 68 28s23 52 23 100v665h171v-657c0 -66 -10.167 -119 -30.5 -159s-48.5 -69 -84.5 -87s-77.333 -27 -124 -27zM262.999 931
c9.33301 -14.667 21.667 -31.168 37 -49.501s31 -36.166 47 -53.499l41 -44v-13h-111c-17.333 10.667 -35 22.5 -53 35.5s-35.667 27.833 -53 44.5c-17.333 -16.667 -34.833 -31.5 -52.5 -44.5s-35.167 -24.833 -52.5 -35.5h-111v13l42 44.5c16 17 31.5 34.667 46.5 53
s27.167 34.833 36.5 49.5h183z" />
    <glyph glyph-name="jcircumflex" unicode="&#x135;" horiz-adv-x="314" 
d="M42 -240c-16 0 -33.501 1.16699 -52.501 3.5s-34.833 5.16602 -47.5 8.49902v132c11.333 -2.66699 21.833 -4.83398 31.5 -6.50098s20.834 -2.5 33.501 -2.5c18 0 33.333 5.5 46 16.5s19 33.167 19 66.5v571h169v-602c0 -33.333 -6.5 -64.166 -19.5 -92.499
s-34 -51.166 -63 -68.499s-67.833 -26 -116.5 -26zM249.999 766c9.33301 -14.667 21.667 -31.168 37 -49.501s31 -36.166 47 -53.499l41 -44v-13h-111c-17.333 10.667 -35 22.5 -53 35.5s-35.667 27.833 -53 44.5c-17.333 -16.667 -34.833 -31.5 -52.5 -44.5
s-35.167 -24.833 -52.5 -35.5h-111v13l42 44.5c16 17 31.5 34.667 46.5 53s27.167 34.833 36.5 49.5h183z" />
    <glyph glyph-name="uni0136" unicode="&#x136;" horiz-adv-x="675" 
d="M675 0l-194 -0.000976562l-165 288l-61 -40v-248h-171v714h171v-319c8.66699 14.667 18.167 29.334 28.5 44.001l30.5 43l174 232h187l-238 -318zM444 -61.001l0.000976562 -10c-10.667 -24.667 -22.5 -49.167 -35.5 -73.5s-28.5 -49.833 -46.5 -76.5h-99v13
c5.33301 20.667 10.666 45.167 15.999 73.5s9 52.833 11 73.5h154z" />
    <glyph glyph-name="uni0137" unicode="&#x137;" horiz-adv-x="638" 
d="M241 760l0.000976562 -321c0 -21.333 -0.833008 -44 -2.5 -68s-3.83398 -46.667 -6.50098 -68h3l26 37.5c12 17 24 32.833 36 47.5l140 161h188l-205 -236l218 -313h-193l-141 210l-63 -49v-161h-169v760h169zM409.001 -61l0.000976562 -10
c-10.667 -24.667 -22.5 -49.167 -35.5 -73.5s-28.5 -49.833 -46.5 -76.5h-99v13c5.33301 20.667 10.666 45.167 15.999 73.5s9 52.833 11 73.5h154z" />
    <glyph glyph-name="kgreenlandic" unicode="&#x138;" horiz-adv-x="638" 
d="M627 549l-207.001 -246l218 -303h-191l-139 202l-67 -46v-156h-169v549h169v-132c0 -23.333 -0.5 -45 -1.5 -65s-1.83301 -38 -2.5 -54h3c9.33301 11.333 19.333 24.333 30 39s22.334 29.667 35.001 45l137 167h185z" />
    <glyph glyph-name="Lacute" unicode="&#x139;" horiz-adv-x="573" 
d="M84 0v714h170v-575h283v-139h-453zM380 931l0.000976562 -10.001c-10.667 -9.33301 -24.334 -20.666 -41.001 -33.999l-53.5 -42l-55 -41.5c-17.667 -13 -33.167 -23.833 -46.5 -32.5h-112v13l39 44.5c15.333 17 30.333 34.667 45 53s27 34.833 37 49.5h187z" />
    <glyph glyph-name="lacute" unicode="&#x13a;" horiz-adv-x="313" 
d="M241 0h-169v760h169v-760zM371 977l0.000976562 -10.001c-10.667 -9.33301 -24.334 -20.666 -41.001 -33.999l-53.5 -42l-55 -41.5c-17.667 -13 -33.167 -23.833 -46.5 -32.5h-112v13l39 44.5c15.333 17 30.333 34.667 45 53s27 34.833 37 49.5h187z" />
    <glyph glyph-name="uni013B" unicode="&#x13b;" horiz-adv-x="573" 
d="M84 0v714h170v-575h283v-139h-453zM399 -61l0.000976562 -10c-10.667 -24.667 -22.5 -49.167 -35.5 -73.5s-28.5 -49.833 -46.5 -76.5h-99v13c5.33301 20.667 10.666 45.167 15.999 73.5s9 52.833 11 73.5h154z" />
    <glyph glyph-name="uni013C" unicode="&#x13c;" horiz-adv-x="313" 
d="M241 0h-169v760h169v-760zM247 -61l0.000976562 -10c-10.667 -24.667 -22.5 -49.167 -35.5 -73.5s-28.5 -49.833 -46.5 -76.5h-99v13c5.33301 20.667 10.666 45.167 15.999 73.5s9 52.833 11 73.5h154z" />
    <glyph glyph-name="Lcaron" unicode="&#x13d;" horiz-adv-x="573" 
d="M84 0v714h170v-575h283v-139h-453zM566 714l-0.00292969 -10.001c-11.333 -23.333 -23.666 -47.166 -36.999 -71.499s-28.666 -50.5 -45.999 -78.5h-100v13c5.33301 19.333 10.833 43.333 16.5 72s9.83398 53.667 12.501 75h154z" />
    <glyph glyph-name="lcaron" unicode="&#x13e;" horiz-adv-x="313" 
d="M241 0h-169v760h169v-760zM453 760l-0.00292969 -10.001c-11.333 -23.333 -23.666 -47.166 -36.999 -71.499s-28.666 -50.5 -45.999 -78.5h-100v13c5.33301 19.333 10.833 43.333 16.5 72s9.83398 53.667 12.501 75h154z" />
    <glyph glyph-name="Ldot" unicode="&#x13f;" horiz-adv-x="573" 
d="M84 0v714h170v-575h283v-139h-453zM442 472c24.667 0 46 -5.33301 64 -16s27 -31.334 27 -62.001c0 -30 -9 -50.5 -27 -61.5s-39.333 -16.5 -64 -16.5c-25.333 0 -46.666 5.5 -63.999 16.5s-26 31.5 -26 61.5c0 30.667 8.66699 51.334 26 62.001s38.666 16 63.999 16z
" />
    <glyph glyph-name="ldot" unicode="&#x140;" horiz-adv-x="395" 
d="M241 0h-169v760h169v-760zM353 457c24.667 0 46 -5.33301 64 -16s27 -31.334 27 -62.001c0 -30 -9 -50.5 -27 -61.5s-39.333 -16.5 -64 -16.5c-25.333 0 -46.666 5.5 -63.999 16.5s-26 31.5 -26 61.5c0 30.667 8.66699 51.334 26 62.001s38.666 16 63.999 16z" />
    <glyph glyph-name="Lslash" unicode="&#x141;" horiz-adv-x="585" 
d="M96 0v238l-41 -24l-61 108l102 61v331h171v-226l85 53l64 -107l-149 -92v-203h283v-139h-454z" />
    <glyph glyph-name="lslash" unicode="&#x142;" horiz-adv-x="357" 
d="M95 0v216l-47 -26l-61 107l108 64v399h168v-297l44 27l64 -107l-108 -65v-318h-168z" />
    <glyph glyph-name="Nacute" unicode="&#x143;" horiz-adv-x="823" 
d="M739 0h-220l-288 523h-4c0.666992 -12.667 1.5 -29.667 2.5 -51s2.16699 -44.5 3.5 -69.5s2.33301 -49.167 3 -72.5v-330h-152v714h219l287 -517h3c-0.666992 12 -1.5 28.333 -2.5 49s-2 43.167 -3 67.5s-1.5 47.5 -1.5 69.5v331h153v-714zM625 931l0.000976562 -10.001
c-10.667 -9.33301 -24.334 -20.666 -41.001 -33.999l-53.5 -42l-55 -41.5c-17.667 -13 -33.167 -23.833 -46.5 -32.5h-112v13l39 44.5c15.333 17 30.333 34.667 45 53s27 34.833 37 49.5h187z" />
    <glyph glyph-name="nacute" unicode="&#x144;" horiz-adv-x="663" 
d="M399 559c58 0 104.832 -15.833 140.499 -47.5s53.5 -82.834 53.5 -153.501v-358h-168v311c0 38 -6.33301 66.667 -19 86s-32.667 29 -60 29c-41.333 0 -69.166 -15.167 -83.499 -45.5s-21.5 -73.833 -21.5 -130.5v-250h-169v549h128l23 -71h8
c17.333 26.667 40.5 46.834 69.5 60.501s61.833 20.5 98.5 20.5zM544.999 766l0.000976562 -10.001c-10.667 -9.33301 -24.334 -20.666 -41.001 -33.999l-53.5 -42l-55 -41.5c-17.667 -13 -33.167 -23.833 -46.5 -32.5h-112v13l39 44.5c15.333 17 30.333 34.667 45 53
s27 34.833 37 49.5h187z" />
    <glyph glyph-name="uni0145" unicode="&#x145;" horiz-adv-x="823" 
d="M739 0h-220l-288 523h-4c0.666992 -12.667 1.5 -29.667 2.5 -51s2.16699 -44.5 3.5 -69.5s2.33301 -49.167 3 -72.5v-330h-152v714h219l287 -517h3c-0.666992 12 -1.5 28.333 -2.5 49s-2 43.167 -3 67.5s-1.5 47.5 -1.5 69.5v331h153v-714zM502 -61l0.000976562 -10
c-10.667 -24.667 -22.5 -49.167 -35.5 -73.5s-28.5 -49.833 -46.5 -76.5h-99v13c5.33301 20.667 10.666 45.167 15.999 73.5s9 52.833 11 73.5h154z" />
    <glyph glyph-name="uni0146" unicode="&#x146;" horiz-adv-x="663" 
d="M399 559c58 0 104.832 -15.833 140.499 -47.5s53.5 -82.834 53.5 -153.501v-358h-168v311c0 38 -6.33301 66.667 -19 86s-32.667 29 -60 29c-41.333 0 -69.166 -15.167 -83.499 -45.5s-21.5 -73.833 -21.5 -130.5v-250h-169v549h128l23 -71h8
c17.333 26.667 40.5 46.834 69.5 60.501s61.833 20.5 98.5 20.5zM421.999 -61l0.000976562 -10c-10.667 -24.667 -22.5 -49.167 -35.5 -73.5s-28.5 -49.833 -46.5 -76.5h-99v13c5.33301 20.667 10.666 45.167 15.999 73.5s9 52.833 11 73.5h154z" />
    <glyph glyph-name="Ncaron" unicode="&#x147;" horiz-adv-x="823" 
d="M739 0h-220l-288 523h-4c0.666992 -12.667 1.5 -29.667 2.5 -51s2.16699 -44.5 3.5 -69.5s2.33301 -49.167 3 -72.5v-330h-152v714h219l287 -517h3c-0.666992 12 -1.5 28.333 -2.5 49s-2 43.167 -3 67.5s-1.5 47.5 -1.5 69.5v331h153v-714zM322 771
c-9.33301 14.667 -21.501 31.166 -36.501 49.499s-30.5 36 -46.5 53l-42 44.5v13h111c17.333 -10.667 34.833 -22.5 52.5 -35.5s35.167 -27.833 52.5 -44.5c17.333 16.667 35 31.5 53 44.5s35.667 24.833 53 35.5h111v-13l-41 -44c-16 -17.333 -31.667 -35.166 -47 -53.499
s-27.666 -34.833 -36.999 -49.5h-183z" />
    <glyph glyph-name="ncaron" unicode="&#x148;" horiz-adv-x="663" 
d="M399 559c58 0 104.832 -15.833 140.499 -47.5s53.5 -82.834 53.5 -153.501v-358h-168v311c0 38 -6.33301 66.667 -19 86s-32.667 29 -60 29c-41.333 0 -69.166 -15.167 -83.499 -45.5s-21.5 -73.833 -21.5 -130.5v-250h-169v549h128l23 -71h8
c17.333 26.667 40.5 46.834 69.5 60.501s61.833 20.5 98.5 20.5zM241.999 606c-9.33301 14.667 -21.501 31.166 -36.501 49.499s-30.5 36 -46.5 53l-42 44.5v13h111c17.333 -10.667 34.833 -22.5 52.5 -35.5s35.167 -27.833 52.5 -44.5c17.333 16.667 35 31.5 53 44.5
s35.667 24.833 53 35.5h111v-13l-41 -44c-16 -17.333 -31.667 -35.166 -47 -53.499s-27.666 -34.833 -36.999 -49.5h-183z" />
    <glyph glyph-name="napostrophe" unicode="&#x149;" horiz-adv-x="798" 
d="M534 559c58 0 104.832 -15.833 140.499 -47.5s53.5 -82.834 53.5 -153.501v-358h-168v311c0 38 -6.33301 66.667 -19 86s-32.667 29 -60 29c-41.333 0 -69.166 -15.167 -83.499 -45.5s-21.5 -73.833 -21.5 -130.5v-250h-169v549h128l23 -71h8
c17.333 26.667 40.5 46.834 69.5 60.501s61.833 20.5 98.5 20.5zM199.999 714l7 -11c-6 -24 -13.667 -51 -23 -81s-19.333 -60 -30 -90s-21.667 -57.333 -33 -82h-120c9.33301 42.667 18.5 88 27.5 136s15.833 90.667 20.5 128h151z" />
    <glyph glyph-name="Eng" unicode="&#x14a;" horiz-adv-x="823" 
d="M499 -223c-22.667 0 -42.499 1.00195 -59.499 3.00195s-31.167 4.33301 -42.5 7v133c12 -2.66699 24.667 -5 38 -7s28 -3 44 -3c38 0 66 7.33301 84 22s28 37.667 30 69l-362 522h-4c0 -4.66699 0.5 -14.334 1.5 -29.001l3.5 -52.5
c1.33301 -20.333 2.33301 -41.333 3 -63s1 -41.5 1 -59.5v-319h-152v714h210l296 -419h4c-0.666992 4 -1.33398 13.5 -2.00098 28.5s-1.5 32.667 -2.5 53s-1.83301 41.166 -2.5 62.499s-1 40.333 -1 57v218h153v-716c0 -49.333 -10.167 -90.5 -30.5 -123.5
s-48.5 -57.5 -84.5 -73.5s-77.667 -24 -125 -24z" />
    <glyph glyph-name="eng" unicode="&#x14b;" horiz-adv-x="663" 
d="M405 -240c-15.333 0 -32.165 1.16797 -50.498 3.50098s-33.5 5.16602 -45.5 8.49902v132c10.667 -2.66699 20.167 -4.83398 28.5 -6.50098s18.166 -2.5 29.499 -2.5c15.333 0 28.666 5.5 39.999 16.5s17 33.167 17 66.5v347c0 67.333 -26 101 -78 101
c-41.333 0 -69.166 -15.167 -83.499 -45.5s-21.5 -73.833 -21.5 -130.5v-250h-169v549h128l22 -69h11c17.333 28 41.166 48.167 71.499 60.5s62.166 18.5 95.499 18.5c37.333 0 70.5 -7 99.5 -21s51.833 -35.833 68.5 -65.5s25 -67.834 25 -114.501v-411
c0 -33.333 -6.16699 -64.166 -18.5 -92.499s-32.166 -51.166 -59.499 -68.499s-64 -26 -110 -26z" />
    <glyph glyph-name="Omacron" unicode="&#x14c;" horiz-adv-x="796" 
d="M741 358c0 -74 -11.998 -138.5 -35.998 -193.5s-61.167 -97.833 -111.5 -128.5s-115.5 -46 -195.5 -46c-78.667 0 -143.334 15.333 -194.001 46s-88.167 73.667 -112.5 129s-36.5 120 -36.5 194s12.167 138.333 36.5 193s61.833 97.167 112.5 127.5
s115.667 45.5 195 45.5s144.166 -15.167 194.499 -45.5s87.5 -73 111.5 -128s36 -119.5 36 -193.5zM234.002 358c0 -70 12.834 -125 38.501 -165s67.5 -60 125.5 -60c58.667 0 100.667 20 126 60s38 95 38 165s-12.5 125.167 -37.5 165.5s-66.833 60.5 -125.5 60.5
s-100.834 -20.167 -126.501 -60.5s-38.5 -95.5 -38.5 -165.5zM571.003 880v-109h-342v109h342z" />
    <glyph glyph-name="omacron" unicode="&#x14d;" horiz-adv-x="627" 
d="M583 276c0 -92 -24.167 -162.667 -72.5 -212s-114.5 -74 -198.5 -74c-52 0 -98.167 11 -138.5 33s-72 54.333 -95 97s-34.5 94.667 -34.5 156c0 90.667 24 160.5 72 209.5s114.333 73.5 199 73.5c52 0 98.167 -11 138.5 -33s72 -54 95 -96s34.5 -93.333 34.5 -154z
M215 276c0 -50.667 7.66699 -89.334 23 -116.001s40.666 -40 75.999 -40c34.667 0 59.667 13.333 75 40s23 65.334 23 116.001s-7.66699 88.834 -23 114.501s-40.666 38.5 -75.999 38.5c-34.667 0 -59.667 -12.833 -75 -38.5s-23 -63.834 -23 -114.501zM487 715v-109h-342
v109h342z" />
    <glyph glyph-name="Obreve" unicode="&#x14e;" horiz-adv-x="796" 
d="M741 358c0 -74 -11.998 -138.5 -35.998 -193.5s-61.167 -97.833 -111.5 -128.5s-115.5 -46 -195.5 -46c-78.667 0 -143.334 15.333 -194.001 46s-88.167 73.667 -112.5 129s-36.5 120 -36.5 194s12.167 138.333 36.5 193s61.833 97.167 112.5 127.5
s115.667 45.5 195 45.5s144.166 -15.167 194.499 -45.5s87.5 -73 111.5 -128s36 -119.5 36 -193.5zM234.002 358c0 -70 12.834 -125 38.501 -165s67.5 -60 125.5 -60c58.667 0 100.667 20 126 60s38 95 38 165s-12.5 125.167 -37.5 165.5s-66.833 60.5 -125.5 60.5
s-100.834 -20.167 -126.501 -60.5s-38.5 -95.5 -38.5 -165.5zM596.003 943c-3.33301 -50.667 -22.499 -92 -57.499 -124s-81.167 -48 -138.5 -48c-60.667 0 -107.334 15.5 -140.001 46.5s-50.334 72.833 -53.001 125.5h92c4.66699 -28 15.667 -45.333 33 -52s40 -10 68 -10
c22.667 0 43.834 3.83301 63.501 11.5s32.167 24.5 37.5 50.5h95z" />
    <glyph glyph-name="obreve" unicode="&#x14f;" horiz-adv-x="627" 
d="M583 276c0 -92 -24.167 -162.667 -72.5 -212s-114.5 -74 -198.5 -74c-52 0 -98.167 11 -138.5 33s-72 54.333 -95 97s-34.5 94.667 -34.5 156c0 90.667 24 160.5 72 209.5s114.333 73.5 199 73.5c52 0 98.167 -11 138.5 -33s72 -54 95 -96s34.5 -93.333 34.5 -154z
M215 276c0 -50.667 7.66699 -89.334 23 -116.001s40.666 -40 75.999 -40c34.667 0 59.667 13.333 75 40s23 65.334 23 116.001s-7.66699 88.834 -23 114.501s-40.666 38.5 -75.999 38.5c-34.667 0 -59.667 -12.833 -75 -38.5s-23 -63.834 -23 -114.501zM511 778
c-3.33301 -50.667 -22.499 -92 -57.499 -124s-81.167 -48 -138.5 -48c-60.667 0 -107.334 15.5 -140.001 46.5s-50.334 72.833 -53.001 125.5h92c4.66699 -28 15.667 -45.333 33 -52s40 -10 68 -10c22.667 0 43.834 3.83301 63.501 11.5s32.167 24.5 37.5 50.5h95z" />
    <glyph glyph-name="Ohungarumlaut" unicode="&#x150;" horiz-adv-x="796" 
d="M741 358c0 -74 -11.998 -138.5 -35.998 -193.5s-61.167 -97.833 -111.5 -128.5s-115.5 -46 -195.5 -46c-78.667 0 -143.334 15.333 -194.001 46s-88.167 73.667 -112.5 129s-36.5 120 -36.5 194s12.167 138.333 36.5 193s61.833 97.167 112.5 127.5
s115.667 45.5 195 45.5s144.166 -15.167 194.499 -45.5s87.5 -73 111.5 -128s36 -119.5 36 -193.5zM234.002 358c0 -70 12.834 -125 38.501 -165s67.5 -60 125.5 -60c58.667 0 100.667 20 126 60s38 95 38 165s-12.5 125.167 -37.5 165.5s-66.833 60.5 -125.5 60.5
s-100.834 -20.167 -126.501 -60.5s-38.5 -95.5 -38.5 -165.5zM701.003 931l0.000976562 -10c-5.33301 -8.66699 -14.833 -19.667 -28.5 -33s-29.334 -27.333 -47.001 -42s-35.167 -28.5 -52.5 -41.5l-45 -33.5h-88v13l32.5 45l36 53c11.667 18 21.5 34.333 29.5 49h163z
M491.004 931l-0.00195312 -10c-5.33301 -8.66699 -14.833 -19.667 -28.5 -33s-29.167 -27.333 -46.5 -42s-34.666 -28.5 -51.999 -41.5l-45 -33.5h-88v13l32 45l35.5 53c11.667 18 21.834 34.333 30.501 49h162z" />
    <glyph glyph-name="ohungarumlaut" unicode="&#x151;" horiz-adv-x="627" 
d="M583 276c0 -92 -24.167 -162.667 -72.5 -212s-114.5 -74 -198.5 -74c-52 0 -98.167 11 -138.5 33s-72 54.333 -95 97s-34.5 94.667 -34.5 156c0 90.667 24 160.5 72 209.5s114.333 73.5 199 73.5c52 0 98.167 -11 138.5 -33s72 -54 95 -96s34.5 -93.333 34.5 -154z
M215 276c0 -50.667 7.66699 -89.334 23 -116.001s40.666 -40 75.999 -40c34.667 0 59.667 13.333 75 40s23 65.334 23 116.001s-7.66699 88.834 -23 114.501s-40.666 38.5 -75.999 38.5c-34.667 0 -59.667 -12.833 -75 -38.5s-23 -63.834 -23 -114.501zM616 766
l0.000976562 -10c-5.33301 -8.66699 -14.833 -19.667 -28.5 -33s-29.334 -27.333 -47.001 -42s-35.167 -28.5 -52.5 -41.5l-45 -33.5h-88v13l32.5 45l36 53c11.667 18 21.5 34.333 29.5 49h163zM406.001 766l-0.00195312 -10c-5.33301 -8.66699 -14.833 -19.667 -28.5 -33
s-29.167 -27.333 -46.5 -42s-34.666 -28.5 -51.999 -41.5l-45 -33.5h-88v13l32 45l35.5 53c11.667 18 21.834 34.333 30.501 49h162z" />
    <glyph glyph-name="OE" unicode="&#x152;" horiz-adv-x="966" 
d="M379 725c17.333 0 37.333 -1 60 -3s41.334 -4.66699 56.001 -8h417v-138h-255v-137h237v-138h-237v-161h255v-140h-420c-14 -2.66699 -32.167 -5 -54.5 -7s-42.166 -3 -59.499 -3c-72.667 0 -132.834 15.333 -180.501 46s-83.334 73.667 -107.001 129
s-35.5 120 -35.5 194s11.667 138.333 35 193s59 97.167 107 127.5s108.667 45.5 182 45.5zM379 584c-50.667 0 -87.834 -20.167 -111.501 -60.5s-35.5 -95.5 -35.5 -165.5s11.833 -125 35.5 -165s60.5 -60 110.5 -60c20 0 40 1.66699 60 5s36.333 8.33301 49 15v409
c-11.333 6.66699 -27.166 12 -47.499 16s-40.5 6 -60.5 6z" />
    <glyph glyph-name="oe" unicode="&#x153;" horiz-adv-x="979" 
d="M690 559c74 0 133.498 -21.167 178.498 -63.5s67.5 -104.833 67.5 -187.5v-77h-353c2 -35.333 14.5 -63.833 37.5 -85.5s55.5 -32.5 97.5 -32.5c31.333 0 62.333 3.16699 93 9.5s61.667 17.166 93 32.499v-125c-28 -14 -57.167 -24.167 -87.5 -30.5
s-68.166 -9.5 -113.499 -9.5c-39.333 0 -75.666 5.83301 -108.999 17.5s-62.333 29.834 -87 54.501c-23.333 -24 -51.5 -42 -84.5 -54s-69.5 -18 -109.5 -18c-52 0 -98.333 11 -139 33s-72.5 54.333 -95.5 97s-34.5 94.667 -34.5 156c0 90.667 23.667 160.5 71 209.5
s113.666 73.5 198.999 73.5c36.667 0 70.834 -5.83301 102.501 -17.5s59.167 -28.834 82.5 -51.501c24 22.667 51.667 39.834 83 51.501s67.333 17.5 108 17.5zM685.998 442c-26.667 0 -49 -8.00098 -67 -24.001s-28.667 -42 -32 -78h195
c-0.666992 28.667 -9 52.834 -25 72.501s-39.667 29.5 -71 29.5zM312.998 428.999c-34.667 0 -59.667 -12.833 -75 -38.5s-23 -63.834 -23 -114.501s7.66699 -89.334 23 -116.001s40.666 -40 75.999 -40c34.667 0 59.667 13.333 75 40s23 65.334 23 116.001
s-7.66699 88.834 -23 114.501s-40.666 38.5 -75.999 38.5z" />
    <glyph glyph-name="Racute" unicode="&#x154;" horiz-adv-x="668" 
d="M304 714c192 0 288 -70.998 288 -212.998c0 -46.667 -12.167 -85.334 -36.5 -116.001s-54.833 -55.334 -91.5 -74.001l209 -311h-191l-161 268h-67v-268h-170v714h220zM297 580.002h-43v-179h43c40.667 0 71.167 7.5 91.5 22.5s30.5 38.833 30.5 71.5
c0 28.667 -9.66699 50 -29 64s-50.333 21 -93 21zM552 931.002l0.000976562 -10.001c-10.667 -9.33301 -24.334 -20.666 -41.001 -33.999l-53.5 -42l-55 -41.5c-17.667 -13 -33.167 -23.833 -46.5 -32.5h-112v13l39 44.5c15.333 17 30.333 34.667 45 53s27 34.833 37 49.5
h187z" />
    <glyph glyph-name="racute" unicode="&#x155;" horiz-adv-x="461" 
d="M391 559c8.66699 0 18.332 -0.5 28.999 -1.5s19 -2.16699 25 -3.5l-14 -158c-13.333 3.33301 -31.333 5 -54 5c-21.333 0 -42.5 -3.5 -63.5 -10.5s-38.333 -19.5 -52 -37.5s-20.5 -44 -20.5 -78v-275h-169v549h127l26 -90h7c16 27.333 37.833 50.833 65.5 70.5
s58.834 29.5 93.501 29.5zM465.998 766l0.000976562 -10.001c-10.667 -9.33301 -24.334 -20.666 -41.001 -33.999l-53.5 -42l-55 -41.5c-17.667 -13 -33.167 -23.833 -46.5 -32.5h-112v13l39 44.5c15.333 17 30.333 34.667 45 53s27 34.833 37 49.5h187z" />
    <glyph glyph-name="uni0156" unicode="&#x156;" horiz-adv-x="668" 
d="M304 714c192 0 288 -70.998 288 -212.998c0 -46.667 -12.167 -85.334 -36.5 -116.001s-54.833 -55.334 -91.5 -74.001l209 -311h-191l-161 268h-67v-268h-170v714h220zM297 580.002h-43v-179h43c40.667 0 71.167 7.5 91.5 22.5s30.5 38.833 30.5 71.5
c0 28.667 -9.66699 50 -29 64s-50.333 21 -93 21zM446 -60.998l0.000976562 -10c-10.667 -24.667 -22.5 -49.167 -35.5 -73.5s-28.5 -49.833 -46.5 -76.5h-99v13c5.33301 20.667 10.666 45.167 15.999 73.5s9 52.833 11 73.5h154z" />
    <glyph glyph-name="uni0157" unicode="&#x157;" horiz-adv-x="461" 
d="M391 559c8.66699 0 18.332 -0.5 28.999 -1.5s19 -2.16699 25 -3.5l-14 -158c-13.333 3.33301 -31.333 5 -54 5c-21.333 0 -42.5 -3.5 -63.5 -10.5s-38.333 -19.5 -52 -37.5s-20.5 -44 -20.5 -78v-275h-169v549h127l26 -90h7c16 27.333 37.833 50.833 65.5 70.5
s58.834 29.5 93.501 29.5zM249.998 -61l0.000976562 -10c-10.667 -24.667 -22.5 -49.167 -35.5 -73.5s-28.5 -49.833 -46.5 -76.5h-99v13c5.33301 20.667 10.666 45.167 15.999 73.5s9 52.833 11 73.5h154z" />
    <glyph glyph-name="Rcaron" unicode="&#x158;" horiz-adv-x="668" 
d="M304 714c192 0 288 -70.998 288 -212.998c0 -46.667 -12.167 -85.334 -36.5 -116.001s-54.833 -55.334 -91.5 -74.001l209 -311h-191l-161 268h-67v-268h-170v714h220zM297 580.002h-43v-179h43c40.667 0 71.167 7.5 91.5 22.5s30.5 38.833 30.5 71.5
c0 28.667 -9.66699 50 -29 64s-50.333 21 -93 21zM249 771.002c-9.33301 14.667 -21.501 31.166 -36.501 49.499s-30.5 36 -46.5 53l-42 44.5v13h111c17.333 -10.667 34.833 -22.5 52.5 -35.5s35.167 -27.833 52.5 -44.5c17.333 16.667 35 31.5 53 44.5
s35.667 24.833 53 35.5h111v-13l-41 -44c-16 -17.333 -31.667 -35.166 -47 -53.499s-27.666 -34.833 -36.999 -49.5h-183z" />
    <glyph glyph-name="rcaron" unicode="&#x159;" horiz-adv-x="461" 
d="M391 559c8.66699 0 18.332 -0.5 28.999 -1.5s19 -2.16699 25 -3.5l-14 -158c-13.333 3.33301 -31.333 5 -54 5c-21.333 0 -42.5 -3.5 -63.5 -10.5s-38.333 -19.5 -52 -37.5s-20.5 -44 -20.5 -78v-275h-169v549h127l26 -90h7c16 27.333 37.833 50.833 65.5 70.5
s58.834 29.5 93.501 29.5zM162.998 606c-9.33301 14.667 -21.501 31.166 -36.501 49.499s-30.5 36 -46.5 53l-42 44.5v13h111c17.333 -10.667 34.833 -22.5 52.5 -35.5s35.167 -27.833 52.5 -44.5c17.333 16.667 35 31.5 53 44.5s35.667 24.833 53 35.5h111v-13l-41 -44
c-16 -17.333 -31.667 -35.166 -47 -53.499s-27.666 -34.833 -36.999 -49.5h-183z" />
    <glyph glyph-name="Sacute" unicode="&#x15a;" horiz-adv-x="563" 
d="M526 207c0 -40.667 -9.99902 -77.501 -29.999 -110.501s-50 -59 -90 -78s-90.333 -28.5 -151 -28.5c-42.667 0 -80.5 3.66699 -113.5 11s-65.167 18.333 -96.5 33v155c36 -16.667 72.833 -30.667 110.5 -42s73.834 -17 108.501 -17c33.333 0 57.166 6 71.499 18
s21.5 27.667 21.5 47c0 23.333 -11.5 42 -34.5 56s-56.167 31 -99.5 51c-28 13.333 -55.167 28.5 -81.5 45.5s-47.833 39 -64.5 66s-25 61.833 -25 104.5c0 66.667 23 117.667 69 153s107.667 53 185 53c41.333 0 79.833 -4.66699 115.5 -14s70.167 -21.333 103.5 -36
l-54 -133c-32 14 -61.833 24.833 -89.5 32.5s-54.5 11.5 -80.5 11.5c-27.333 0 -47.666 -5.66699 -60.999 -17s-20 -25.666 -20 -42.999c0 -14 4.66699 -26.167 14 -36.5s24 -20.833 44 -31.5s46.333 -23.667 79 -39c35.333 -16 65.666 -33.333 90.999 -52
s44.666 -40.667 57.999 -66s20 -56.333 20 -93zM500.001 930.999l0.000976562 -10.001c-10.667 -9.33301 -24.334 -20.666 -41.001 -33.999l-53.5 -42l-55 -41.5c-17.667 -13 -33.167 -23.833 -46.5 -32.5h-112v13l39 44.5c15.333 17 30.333 34.667 45 53s27 34.833 37 49.5
h187z" />
    <glyph glyph-name="sacute" unicode="&#x15b;" horiz-adv-x="506" 
d="M467 166c0 -54.667 -18.8291 -97.667 -56.4961 -129s-96.5 -47 -176.5 -47c-38.667 0 -72.5 2.33301 -101.5 7s-58.167 13 -87.5 25v136c32 -14.667 65.333 -25.834 100 -33.501s64 -11.5 88 -11.5c25.333 0 43.666 3.33301 54.999 10s17 16 17 28
c0 8.66699 -2.83301 16.334 -8.5 23.001s-17 14.167 -34 22.5s-42.167 19.5 -75.5 33.5c-32.667 13.333 -59.5 27.5 -80.5 42.5s-36.667 32.667 -47 53s-15.5 45.833 -15.5 76.5c0 52 20 91.167 60 117.5s93.667 39.5 161 39.5c35.333 0 68.666 -3.66699 99.999 -11
s63.666 -18.666 96.999 -33.999l-48 -114c-26.667 12 -53 21.667 -79 29s-49.333 11 -70 11c-38.667 0 -58 -10 -58 -30c0 -8 2.83301 -14.833 8.5 -20.5s16.667 -12.334 33 -20.001s40.166 -18.167 71.499 -31.5c31.333 -12.667 58 -26 80 -40s38.667 -31.5 50 -52.5
s17 -47.5 17 -79.5zM463.004 766l0.000976562 -10.001c-10.667 -9.33301 -24.334 -20.666 -41.001 -33.999l-53.5 -42l-55 -41.5c-17.667 -13 -33.167 -23.833 -46.5 -32.5h-112v13l39 44.5c15.333 17 30.333 34.667 45 53s27 34.833 37 49.5h187z" />
    <glyph glyph-name="Scircumflex" unicode="&#x15c;" horiz-adv-x="563" 
d="M526 207c0 -40.667 -9.99902 -77.501 -29.999 -110.501s-50 -59 -90 -78s-90.333 -28.5 -151 -28.5c-42.667 0 -80.5 3.66699 -113.5 11s-65.167 18.333 -96.5 33v155c36 -16.667 72.833 -30.667 110.5 -42s73.834 -17 108.501 -17c33.333 0 57.166 6 71.499 18
s21.5 27.667 21.5 47c0 23.333 -11.5 42 -34.5 56s-56.167 31 -99.5 51c-28 13.333 -55.167 28.5 -81.5 45.5s-47.833 39 -64.5 66s-25 61.833 -25 104.5c0 66.667 23 117.667 69 153s107.667 53 185 53c41.333 0 79.833 -4.66699 115.5 -14s70.167 -21.333 103.5 -36
l-54 -133c-32 14 -61.833 24.833 -89.5 32.5s-54.5 11.5 -80.5 11.5c-27.333 0 -47.666 -5.66699 -60.999 -17s-20 -25.666 -20 -42.999c0 -14 4.66699 -26.167 14 -36.5s24 -20.833 44 -31.5s46.333 -23.667 79 -39c35.333 -16 65.666 -33.333 90.999 -52
s44.666 -40.667 57.999 -66s20 -56.333 20 -93zM379.001 930.999c9.33301 -14.667 21.667 -31.168 37 -49.501s31 -36.166 47 -53.499l41 -44v-13h-111c-17.333 10.667 -35 22.5 -53 35.5s-35.667 27.833 -53 44.5c-17.333 -16.667 -34.833 -31.5 -52.5 -44.5
s-35.167 -24.833 -52.5 -35.5h-111v13l42 44.5c16 17 31.5 34.667 46.5 53s27.167 34.833 36.5 49.5h183z" />
    <glyph glyph-name="scircumflex" unicode="&#x15d;" horiz-adv-x="506" 
d="M467 166c0 -54.667 -18.8291 -97.667 -56.4961 -129s-96.5 -47 -176.5 -47c-38.667 0 -72.5 2.33301 -101.5 7s-58.167 13 -87.5 25v136c32 -14.667 65.333 -25.834 100 -33.501s64 -11.5 88 -11.5c25.333 0 43.666 3.33301 54.999 10s17 16 17 28
c0 8.66699 -2.83301 16.334 -8.5 23.001s-17 14.167 -34 22.5s-42.167 19.5 -75.5 33.5c-32.667 13.333 -59.5 27.5 -80.5 42.5s-36.667 32.667 -47 53s-15.5 45.833 -15.5 76.5c0 52 20 91.167 60 117.5s93.667 39.5 161 39.5c35.333 0 68.666 -3.66699 99.999 -11
s63.666 -18.666 96.999 -33.999l-48 -114c-26.667 12 -53 21.667 -79 29s-49.333 11 -70 11c-38.667 0 -58 -10 -58 -30c0 -8 2.83301 -14.833 8.5 -20.5s16.667 -12.334 33 -20.001s40.166 -18.167 71.499 -31.5c31.333 -12.667 58 -26 80 -40s38.667 -31.5 50 -52.5
s17 -47.5 17 -79.5zM343.004 766c9.33301 -14.667 21.667 -31.168 37 -49.501s31 -36.166 47 -53.499l41 -44v-13h-111c-17.333 10.667 -35 22.5 -53 35.5s-35.667 27.833 -53 44.5c-17.333 -16.667 -34.833 -31.5 -52.5 -44.5s-35.167 -24.833 -52.5 -35.5h-111v13l42 44.5
c16 17 31.5 34.667 46.5 53s27.167 34.833 36.5 49.5h183z" />
    <glyph glyph-name="Scedilla" unicode="&#x15e;" horiz-adv-x="563" 
d="M526 207c0 -40.667 -9.99902 -77.501 -29.999 -110.501s-50 -59 -90 -78s-90.333 -28.5 -151 -28.5c-42.667 0 -80.5 3.66699 -113.5 11s-65.167 18.333 -96.5 33v155c36 -16.667 72.833 -30.667 110.5 -42s73.834 -17 108.501 -17c33.333 0 57.166 6 71.499 18
s21.5 27.667 21.5 47c0 23.333 -11.5 42 -34.5 56s-56.167 31 -99.5 51c-28 13.333 -55.167 28.5 -81.5 45.5s-47.833 39 -64.5 66s-25 61.833 -25 104.5c0 66.667 23 117.667 69 153s107.667 53 185 53c41.333 0 79.833 -4.66699 115.5 -14s70.167 -21.333 103.5 -36
l-54 -133c-32 14 -61.833 24.833 -89.5 32.5s-54.5 11.5 -80.5 11.5c-27.333 0 -47.666 -5.66699 -60.999 -17s-20 -25.666 -20 -42.999c0 -14 4.66699 -26.167 14 -36.5s24 -20.833 44 -31.5s46.333 -23.667 79 -39c35.333 -16 65.666 -33.333 90.999 -52
s44.666 -40.667 57.999 -66s20 -56.333 20 -93zM394.001 -122.001c0 -37.333 -11.667 -66.335 -35 -87.002s-59.333 -31 -108 -31c-18.667 0 -35.5 1.33301 -50.5 4s-27.833 5.66699 -38.5 9v88c10.667 -3.33301 22 -6 34 -8s23.333 -3 34 -3s19.5 2.33301 26.5 7
s10.5 12 10.5 22c0 12 -5.66699 22 -17 30s-31 14.333 -59 19l34 72h95l-11 -30c20 -5.33301 39.167 -15.166 57.5 -29.499s27.5 -35.166 27.5 -62.499z" />
    <glyph glyph-name="scedilla" unicode="&#x15f;" horiz-adv-x="506" 
d="M467 166c0 -54.667 -18.8291 -97.667 -56.4961 -129s-96.5 -47 -176.5 -47c-38.667 0 -72.5 2.33301 -101.5 7s-58.167 13 -87.5 25v136c32 -14.667 65.333 -25.834 100 -33.501s64 -11.5 88 -11.5c25.333 0 43.666 3.33301 54.999 10s17 16 17 28
c0 8.66699 -2.83301 16.334 -8.5 23.001s-17 14.167 -34 22.5s-42.167 19.5 -75.5 33.5c-32.667 13.333 -59.5 27.5 -80.5 42.5s-36.667 32.667 -47 53s-15.5 45.833 -15.5 76.5c0 52 20 91.167 60 117.5s93.667 39.5 161 39.5c35.333 0 68.666 -3.66699 99.999 -11
s63.666 -18.666 96.999 -33.999l-48 -114c-26.667 12 -53 21.667 -79 29s-49.333 11 -70 11c-38.667 0 -58 -10 -58 -30c0 -8 2.83301 -14.833 8.5 -20.5s16.667 -12.334 33 -20.001s40.166 -18.167 71.499 -31.5c31.333 -12.667 58 -26 80 -40s38.667 -31.5 50 -52.5
s17 -47.5 17 -79.5zM366.004 -122c0 -37.333 -11.667 -66.335 -35 -87.002s-59.333 -31 -108 -31c-18.667 0 -35.5 1.33301 -50.5 4s-27.833 5.66699 -38.5 9v88c10.667 -3.33301 22 -6 34 -8s23.333 -3 34 -3s19.5 2.33301 26.5 7s10.5 12 10.5 22c0 12 -5.66699 22 -17 30
s-31 14.333 -59 19l34 72h95l-11 -30c20 -5.33301 39.167 -15.166 57.5 -29.499s27.5 -35.166 27.5 -62.499z" />
    <glyph glyph-name="Scaron" unicode="&#x160;" horiz-adv-x="563" 
d="M526 207c0 -40.667 -9.99902 -77.501 -29.999 -110.501s-50 -59 -90 -78s-90.333 -28.5 -151 -28.5c-42.667 0 -80.5 3.66699 -113.5 11s-65.167 18.333 -96.5 33v155c36 -16.667 72.833 -30.667 110.5 -42s73.834 -17 108.501 -17c33.333 0 57.166 6 71.499 18
s21.5 27.667 21.5 47c0 23.333 -11.5 42 -34.5 56s-56.167 31 -99.5 51c-28 13.333 -55.167 28.5 -81.5 45.5s-47.833 39 -64.5 66s-25 61.833 -25 104.5c0 66.667 23 117.667 69 153s107.667 53 185 53c41.333 0 79.833 -4.66699 115.5 -14s70.167 -21.333 103.5 -36
l-54 -133c-32 14 -61.833 24.833 -89.5 32.5s-54.5 11.5 -80.5 11.5c-27.333 0 -47.666 -5.66699 -60.999 -17s-20 -25.666 -20 -42.999c0 -14 4.66699 -26.167 14 -36.5s24 -20.833 44 -31.5s46.333 -23.667 79 -39c35.333 -16 65.666 -33.333 90.999 -52
s44.666 -40.667 57.999 -66s20 -56.333 20 -93zM197.001 770.999c-9.33301 14.667 -21.501 31.166 -36.501 49.499s-30.5 36 -46.5 53l-42 44.5v13h111c17.333 -10.667 34.833 -22.5 52.5 -35.5s35.167 -27.833 52.5 -44.5c17.333 16.667 35 31.5 53 44.5
s35.667 24.833 53 35.5h111v-13l-41 -44c-16 -17.333 -31.667 -35.166 -47 -53.499s-27.666 -34.833 -36.999 -49.5h-183z" />
    <glyph glyph-name="scaron" unicode="&#x161;" horiz-adv-x="506" 
d="M467 166c0 -54.667 -18.8291 -97.667 -56.4961 -129s-96.5 -47 -176.5 -47c-38.667 0 -72.5 2.33301 -101.5 7s-58.167 13 -87.5 25v136c32 -14.667 65.333 -25.834 100 -33.501s64 -11.5 88 -11.5c25.333 0 43.666 3.33301 54.999 10s17 16 17 28
c0 8.66699 -2.83301 16.334 -8.5 23.001s-17 14.167 -34 22.5s-42.167 19.5 -75.5 33.5c-32.667 13.333 -59.5 27.5 -80.5 42.5s-36.667 32.667 -47 53s-15.5 45.833 -15.5 76.5c0 52 20 91.167 60 117.5s93.667 39.5 161 39.5c35.333 0 68.666 -3.66699 99.999 -11
s63.666 -18.666 96.999 -33.999l-48 -114c-26.667 12 -53 21.667 -79 29s-49.333 11 -70 11c-38.667 0 -58 -10 -58 -30c0 -8 2.83301 -14.833 8.5 -20.5s16.667 -12.334 33 -20.001s40.166 -18.167 71.499 -31.5c31.333 -12.667 58 -26 80 -40s38.667 -31.5 50 -52.5
s17 -47.5 17 -79.5zM160.004 606c-9.33301 14.667 -21.501 31.166 -36.501 49.499s-30.5 36 -46.5 53l-42 44.5v13h111c17.333 -10.667 34.833 -22.5 52.5 -35.5s35.167 -27.833 52.5 -44.5c17.333 16.667 35 31.5 53 44.5s35.667 24.833 53 35.5h111v-13l-41 -44
c-16 -17.333 -31.667 -35.166 -47 -53.499s-27.666 -34.833 -36.999 -49.5h-183z" />
    <glyph glyph-name="uni0162" unicode="&#x162;" horiz-adv-x="585" 
d="M377 0h-170v573h-185v141h540v-141h-185v-573zM409 -122c0 -37.333 -11.667 -66.335 -35 -87.002s-59.333 -31 -108 -31c-18.667 0 -35.5 1.33301 -50.5 4s-27.833 5.66699 -38.5 9v88c10.667 -3.33301 22 -6 34 -8s23.333 -3 34 -3s19.5 2.33301 26.5 7s10.5 12 10.5 22
c0 12 -5.66699 22 -17 30s-31 14.333 -59 19l34 72h95l-11 -30c20 -5.33301 39.167 -15.166 57.5 -29.499s27.5 -35.166 27.5 -62.499z" />
    <glyph glyph-name="uni0163" unicode="&#x163;" horiz-adv-x="446" 
d="M321 124c16.667 0 32.5 1.66797 47.5 5.00098s30.167 7.66602 45.5 12.999v-124c-18 -8 -38.667 -14.667 -62 -20s-51 -8 -83 -8c-34 0 -64.167 5.5 -90.5 16.5s-47 30 -62 57s-22.5 64.5 -22.5 112.5v247h-70v70l84 54l46 116h108v-114h146v-126h-146v-241
c0 -19.333 5.33301 -33.833 16 -43.5s25 -14.5 43 -14.5zM367 -121.999c0 -37.333 -11.667 -66.335 -35 -87.002s-59.333 -31 -108 -31c-18.667 0 -35.5 1.33301 -50.5 4s-27.833 5.66699 -38.5 9v88c10.667 -3.33301 22 -6 34 -8s23.333 -3 34 -3s19.5 2.33301 26.5 7
s10.5 12 10.5 22c0 12 -5.66699 22 -17 30s-31 14.333 -59 19l34 72h95l-11 -30c20 -5.33301 39.167 -15.166 57.5 -29.499s27.5 -35.166 27.5 -62.499z" />
    <glyph glyph-name="Tcaron" unicode="&#x164;" horiz-adv-x="585" 
d="M377 0h-170v573h-185v141h540v-141h-185v-573zM203 771c-9.33301 14.667 -21.501 31.166 -36.501 49.499s-30.5 36 -46.5 53l-42 44.5v13h111c17.333 -10.667 34.833 -22.5 52.5 -35.5s35.167 -27.833 52.5 -44.5c17.333 16.667 35 31.5 53 44.5s35.667 24.833 53 35.5
h111v-13l-41 -44c-16 -17.333 -31.667 -35.166 -47 -53.499s-27.666 -34.833 -36.999 -49.5h-183z" />
    <glyph glyph-name="tcaron" unicode="&#x165;" horiz-adv-x="446" 
d="M321 124c16.667 0 32.5 1.66797 47.5 5.00098s30.167 7.66602 45.5 12.999v-124c-18 -8 -38.667 -14.667 -62 -20s-51 -8 -83 -8c-34 0 -64.167 5.5 -90.5 16.5s-47 30 -62 57s-22.5 64.5 -22.5 112.5v247h-70v70l84 54l46 116h108v-114h146v-126h-146v-241
c0 -19.333 5.33301 -33.833 16 -43.5s25 -14.5 43 -14.5zM598 760.001l-0.00292969 -10.001c-11.333 -23.333 -23.666 -47.166 -36.999 -71.499s-28.666 -50.5 -45.999 -78.5h-100v13c5.33301 19.333 10.833 43.333 16.5 72s9.83398 53.667 12.501 75h154z" />
    <glyph glyph-name="Tbar" unicode="&#x166;" horiz-adv-x="585" 
d="M207 0v280h-112v140h112v153h-185v141h540v-141h-185v-153h113v-140h-113v-280h-170z" />
    <glyph glyph-name="tbar" unicode="&#x167;" horiz-adv-x="455" 
d="M34 231v107.001h60v85h-70v70l84 54l46 116h108v-114h146v-126h-146v-85h129v-107h-129v-49c0 -19.333 5.33301 -33.833 16 -43.5s25 -14.5 43 -14.5c16.667 0 32.5 1.66699 47.5 5s30.167 7.66602 45.5 12.999v-124c-18 -8 -38.667 -14.667 -62 -20s-51 -8 -83 -8
c-34 0 -64.167 5.5 -90.5 16.5s-47 30 -62 57s-22.5 64.5 -22.5 112.5v55h-60z" />
    <glyph glyph-name="Utilde" unicode="&#x168;" horiz-adv-x="756" 
d="M677 714l-0.000976562 -446.997c0 -54 -11 -101.833 -33 -143.5s-55.5 -74.334 -100.5 -98.001s-101.167 -35.5 -168.5 -35.5c-96 0 -169.333 24.667 -220 74s-76 116.666 -76 201.999v448h171v-429c0 -55.333 10.833 -94.5 32.5 -117.5s53.834 -34.5 96.501 -34.5
c44.667 0 77.167 12.167 97.5 36.5s30.5 63.166 30.5 116.499v428h170zM173.999 770.003c4 56 17.668 96.333 41.001 121s52.333 37 87 37c17.333 0 35 -4.16699 53 -12.5l53 -24.5c17.333 -8 34.333 -12 51 -12c8 0 16.167 3.66699 24.5 11s14.166 20.333 17.499 39h81
c-4 -55.333 -18 -95.5 -42 -120.5s-52.333 -37.5 -85 -37.5c-18.667 0 -37.167 4 -55.5 12l-53.5 24.5c-17.333 8.33301 -34 12.5 -50 12.5c-8 0 -16 -3.5 -24 -10.5s-14 -20.167 -18 -39.5h-80z" />
    <glyph glyph-name="utilde" unicode="&#x169;" horiz-adv-x="663" 
d="M591 549v-549.002h-128l-22 70h-10c-17.333 -28 -41 -48.333 -71 -61s-62 -19 -96 -19c-56.667 0 -103.167 15.833 -139.5 47.5s-54.5 82.834 -54.5 153.501v358h169v-311c0 -37.333 6.16699 -65.666 18.5 -84.999s32.166 -29 59.499 -29c40.667 0 68.334 15 83.001 45
s22 73.333 22 130v250h169zM127 604.998c4 56 17.668 96.333 41.001 121s52.333 37 87 37c17.333 0 35 -4.16699 53 -12.5l53 -24.5c17.333 -8 34.333 -12 51 -12c8 0 16.167 3.66699 24.5 11s14.166 20.333 17.499 39h81c-4 -55.333 -18 -95.5 -42 -120.5
s-52.333 -37.5 -85 -37.5c-18.667 0 -37.167 4 -55.5 12l-53.5 24.5c-17.333 8.33301 -34 12.5 -50 12.5c-8 0 -16 -3.5 -24 -10.5s-14 -20.167 -18 -39.5h-80z" />
    <glyph glyph-name="Umacron" unicode="&#x16a;" horiz-adv-x="756" 
d="M677 714l-0.000976562 -446.997c0 -54 -11 -101.833 -33 -143.5s-55.5 -74.334 -100.5 -98.001s-101.167 -35.5 -168.5 -35.5c-96 0 -169.333 24.667 -220 74s-76 116.666 -76 201.999v448h171v-429c0 -55.333 10.833 -94.5 32.5 -117.5s53.834 -34.5 96.501 -34.5
c44.667 0 77.167 12.167 97.5 36.5s30.5 63.166 30.5 116.499v428h170zM550.999 880.003v-109h-342v109h342z" />
    <glyph glyph-name="umacron" unicode="&#x16b;" horiz-adv-x="663" 
d="M591 549v-549.002h-128l-22 70h-10c-17.333 -28 -41 -48.333 -71 -61s-62 -19 -96 -19c-56.667 0 -103.167 15.833 -139.5 47.5s-54.5 82.834 -54.5 153.501v358h169v-311c0 -37.333 6.16699 -65.666 18.5 -84.999s32.166 -29 59.499 -29c40.667 0 68.334 15 83.001 45
s22 73.333 22 130v250h169zM505 714.998v-109h-342v109h342z" />
    <glyph glyph-name="Ubreve" unicode="&#x16c;" horiz-adv-x="756" 
d="M677 714l-0.000976562 -446.997c0 -54 -11 -101.833 -33 -143.5s-55.5 -74.334 -100.5 -98.001s-101.167 -35.5 -168.5 -35.5c-96 0 -169.333 24.667 -220 74s-76 116.666 -76 201.999v448h171v-429c0 -55.333 10.833 -94.5 32.5 -117.5s53.834 -34.5 96.501 -34.5
c44.667 0 77.167 12.167 97.5 36.5s30.5 63.166 30.5 116.499v428h170zM575.999 943.003c-3.33301 -50.667 -22.499 -92 -57.499 -124s-81.167 -48 -138.5 -48c-60.667 0 -107.334 15.5 -140.001 46.5s-50.334 72.833 -53.001 125.5h92c4.66699 -28 15.667 -45.333 33 -52
s40 -10 68 -10c22.667 0 43.834 3.83301 63.501 11.5s32.167 24.5 37.5 50.5h95z" />
    <glyph glyph-name="ubreve" unicode="&#x16d;" horiz-adv-x="663" 
d="M591 549v-549.002h-128l-22 70h-10c-17.333 -28 -41 -48.333 -71 -61s-62 -19 -96 -19c-56.667 0 -103.167 15.833 -139.5 47.5s-54.5 82.834 -54.5 153.501v358h169v-311c0 -37.333 6.16699 -65.666 18.5 -84.999s32.166 -29 59.499 -29c40.667 0 68.334 15 83.001 45
s22 73.333 22 130v250h169zM529 777.998c-3.33301 -50.667 -22.499 -92 -57.499 -124s-81.167 -48 -138.5 -48c-60.667 0 -107.334 15.5 -140.001 46.5s-50.334 72.833 -53.001 125.5h92c4.66699 -28 15.667 -45.333 33 -52s40 -10 68 -10
c22.667 0 43.834 3.83301 63.501 11.5s32.167 24.5 37.5 50.5h95z" />
    <glyph glyph-name="Uring" unicode="&#x16e;" horiz-adv-x="756" 
d="M677 714l-0.000976562 -446.997c0 -54 -11 -101.833 -33 -143.5s-55.5 -74.334 -100.5 -98.001s-101.167 -35.5 -168.5 -35.5c-96 0 -169.333 24.667 -220 74s-76 116.666 -76 201.999v448h171v-429c0 -55.333 10.833 -94.5 32.5 -117.5s53.834 -34.5 96.501 -34.5
c44.667 0 77.167 12.167 97.5 36.5s30.5 63.166 30.5 116.499v428h170zM378.999 770.003c-37.333 0 -67.5 10.499 -90.5 31.499s-34.5 50.167 -34.5 87.5s11.5 66.5 34.5 87.5s53.167 31.5 90.5 31.5c35.333 0 65.5 -10.5 90.5 -31.5s37.5 -49.833 37.5 -86.5
c0 -37.333 -12.333 -66.666 -37 -87.999s-55 -32 -91 -32zM378.999 845.002c12.667 0 23.167 4 31.5 12s12.5 18.667 12.5 32s-4.16699 24 -12.5 32s-18.833 12 -31.5 12s-23.334 -4 -32.001 -12s-13 -18.667 -13 -32s3.83301 -24 11.5 -32s18.834 -12 33.501 -12z" />
    <glyph glyph-name="uring" unicode="&#x16f;" horiz-adv-x="663" 
d="M591 549v-549.002h-128l-22 70h-10c-17.333 -28 -41 -48.333 -71 -61s-62 -19 -96 -19c-56.667 0 -103.167 15.833 -139.5 47.5s-54.5 82.834 -54.5 153.501v358h169v-311c0 -37.333 6.16699 -65.666 18.5 -84.999s32.166 -29 59.499 -29c40.667 0 68.334 15 83.001 45
s22 73.333 22 130v250h169zM333 604.998c-37.333 0 -67.5 10.499 -90.5 31.499s-34.5 50.167 -34.5 87.5s11.5 66.5 34.5 87.5s53.167 31.5 90.5 31.5c35.333 0 65.5 -10.5 90.5 -31.5s37.5 -49.833 37.5 -86.5c0 -37.333 -12.333 -66.666 -37 -87.999s-55 -32 -91 -32z
M333 679.997c12.667 0 23.167 4 31.5 12s12.5 18.667 12.5 32s-4.16699 24 -12.5 32s-18.833 12 -31.5 12s-23.334 -4 -32.001 -12s-13 -18.667 -13 -32s3.83301 -24 11.5 -32s18.834 -12 33.501 -12z" />
    <glyph glyph-name="Uhungarumlaut" unicode="&#x170;" horiz-adv-x="756" 
d="M677 714l-0.000976562 -446.997c0 -54 -11 -101.833 -33 -143.5s-55.5 -74.334 -100.5 -98.001s-101.167 -35.5 -168.5 -35.5c-96 0 -169.333 24.667 -220 74s-76 116.666 -76 201.999v448h171v-429c0 -55.333 10.833 -94.5 32.5 -117.5s53.834 -34.5 96.501 -34.5
c44.667 0 77.167 12.167 97.5 36.5s30.5 63.166 30.5 116.499v428h170zM680.999 931.003l0.000976562 -10c-5.33301 -8.66699 -14.833 -19.667 -28.5 -33s-29.334 -27.333 -47.001 -42s-35.167 -28.5 -52.5 -41.5l-45 -33.5h-88v13l32.5 45l36 53
c11.667 18 21.5 34.333 29.5 49h163zM471 931.003l-0.00195312 -10c-5.33301 -8.66699 -14.833 -19.667 -28.5 -33s-29.167 -27.333 -46.5 -42s-34.666 -28.5 -51.999 -41.5l-45 -33.5h-88v13l32 45l35.5 53c11.667 18 21.834 34.333 30.501 49h162z" />
    <glyph glyph-name="uhungarumlaut" unicode="&#x171;" horiz-adv-x="663" 
d="M591 549v-549.002h-128l-22 70h-10c-17.333 -28 -41 -48.333 -71 -61s-62 -19 -96 -19c-56.667 0 -103.167 15.833 -139.5 47.5s-54.5 82.834 -54.5 153.501v358h169v-311c0 -37.333 6.16699 -65.666 18.5 -84.999s32.166 -29 59.499 -29c40.667 0 68.334 15 83.001 45
s22 73.333 22 130v250h169zM634 765.998l0.000976562 -10c-5.33301 -8.66699 -14.833 -19.667 -28.5 -33s-29.334 -27.333 -47.001 -42s-35.167 -28.5 -52.5 -41.5l-45 -33.5h-88v13l32.5 45l36 53c11.667 18 21.5 34.333 29.5 49h163zM424.001 765.998l-0.00195312 -10
c-5.33301 -8.66699 -14.833 -19.667 -28.5 -33s-29.167 -27.333 -46.5 -42s-34.666 -28.5 -51.999 -41.5l-45 -33.5h-88v13l32 45l35.5 53c11.667 18 21.834 34.333 30.501 49h162z" />
    <glyph glyph-name="Uogonek" unicode="&#x172;" horiz-adv-x="756" 
d="M501 -94c0 -17.333 3.66602 -29.4971 10.999 -36.4971s16.666 -10.5 27.999 -10.5c9.33301 0 19.333 1 30 3s19.334 4.33301 26.001 7v-97c-10.667 -3.33301 -22.334 -6.16602 -35.001 -8.49902s-27.667 -3.5 -45 -3.5c-37.333 0 -68 10.667 -92 32
s-36 50.666 -36 87.999c0 39.333 15.667 77.333 47 114c-19.333 -2.66699 -39.333 -4 -60 -4c-96 0 -169.333 24.667 -220 74s-76 116.666 -76 201.999v448h171v-429c0 -55.333 10.833 -94.5 32.5 -117.5s53.834 -34.5 96.501 -34.5c44.667 0 77.167 12.167 97.5 36.5
s30.5 63.166 30.5 116.499v428h170v-447c0 -45.333 -7.66699 -86.5 -23 -123.5s-38.666 -67.5 -69.999 -91.5c-28 -29.333 -48.833 -55.333 -62.5 -78s-20.5 -45.334 -20.5 -68.001z" />
    <glyph glyph-name="uogonek" unicode="&#x173;" horiz-adv-x="663" 
d="M591 549v-549.002h-128l-22 70h-10c-17.333 -28 -41 -48.333 -71 -61s-62 -19 -96 -19c-56.667 0 -103.167 15.833 -139.5 47.5s-54.5 82.834 -54.5 153.501v358h169v-311c0 -37.333 6.16699 -65.666 18.5 -84.999s32.166 -29 59.499 -29c40.667 0 68.334 15 83.001 45
s22 73.333 22 130v250h169zM487 -105.002c0 -12.667 3.50098 -21.835 10.501 -27.502s16.167 -8.5 27.5 -8.5c9.33301 0 19.5 1 30.5 3s19.833 4.33301 26.5 7v-97c-10.667 -3.33301 -22.334 -6.16602 -35.001 -8.49902s-27.667 -3.5 -45 -3.5c-37.333 0 -68 10.333 -92 31
s-36 47.667 -36 81c0 52.667 37.333 102.334 112 149.001l69 -21c-22.667 -21.333 -39.667 -40 -51 -56s-17 -32.333 -17 -49z" />
    <glyph glyph-name="Wcircumflex" unicode="&#x174;" horiz-adv-x="1000" 
d="M993 714l-179.003 -714.002h-198l-83 345c-1.33301 6.66699 -3.66602 17.334 -6.99902 32.001s-6.66602 30.667 -9.99902 48l-9.5 50.5c-3 16.333 -4.83301 29.833 -5.5 40.5c-1.33301 -10.667 -3.5 -24.167 -6.5 -40.5l-9.5 -50.5l-9.5 -47.5
c-3 -14.333 -5.5 -25.166 -7.5 -32.499l-84 -345h-197l-180 714h166l85 -375c3.33301 -14 7.33301 -32.667 12 -56s9.16699 -47.333 13.5 -72s7.5 -44.667 9.5 -60c2.66699 21.333 6.66699 46.5 12 75.5s10.833 57 16.5 84s10.5 48.167 14.5 63.5l85 340h159l85 -340
c2.66699 -11.333 5.83398 -26.333 9.50098 -45l12 -60.5c4.33301 -21.667 8.33301 -42.834 12 -63.501s6.5 -38.667 8.5 -54c2 16.667 5.16699 36.834 9.5 60.501l13.5 70.5c4.66699 23.333 8.66699 42 12 56l85 376h166zM592.997 930.998
c9.33301 -14.667 21.667 -31.168 37 -49.501s31 -36.166 47 -53.499l41 -44v-13h-111c-17.333 10.667 -35 22.5 -53 35.5s-35.667 27.833 -53 44.5c-17.333 -16.667 -34.833 -31.5 -52.5 -44.5s-35.167 -24.833 -52.5 -35.5h-111v13l42 44.5c16 17 31.5 34.667 46.5 53
s27.167 34.833 36.5 49.5h183z" />
    <glyph glyph-name="wcircumflex" unicode="&#x175;" horiz-adv-x="881" 
d="M534 0l-49.002 214.999l-10.5 46.5c-4.33301 19 -8.66602 39.167 -12.999 60.5l-12 58.5c-3.66699 17.667 -6.5 30.834 -8.5 39.501h-4c-1.33301 -8.66699 -3.83301 -22 -7.5 -40l-12.5 -59l-13.5 -61.5c-4.33301 -19.667 -7.83301 -36.167 -10.5 -49.5l-50 -210h-179
l-153 549h166l55 -228c4 -16.667 7.83301 -36.167 11.5 -58.5s7 -44.333 10 -66s5.16699 -40.167 6.5 -55.5h3c0.666992 11.333 2.16699 25.166 4.5 41.499s5 33 8 50s5.83301 32.167 8.5 45.5s4.33398 22.333 5.00098 27l60 244h186l56 -245l9 -46.5
c4 -20.333 7.66699 -41.166 11 -62.499s5.33301 -39.333 6 -54h3c1.33301 14 3.5 32.167 6.5 54.5s6.5 45 10.5 68s8 42.167 12 57.5l57 228h164l-155 -549h-181zM532.998 765.999c9.33301 -14.667 21.667 -31.168 37 -49.501s31 -36.166 47 -53.499l41 -44v-13h-111
c-17.333 10.667 -35 22.5 -53 35.5s-35.667 27.833 -53 44.5c-17.333 -16.667 -34.833 -31.5 -52.5 -44.5s-35.167 -24.833 -52.5 -35.5h-111v13l42 44.5c16 17 31.5 34.667 46.5 53s27.167 34.833 36.5 49.5h183z" />
    <glyph glyph-name="Ycircumflex" unicode="&#x176;" horiz-adv-x="642" 
d="M321 433l137 281h184l-236 -436v-278h-170v273l-236 441h185zM414 931c9.33301 -14.667 21.667 -31.168 37 -49.501s31 -36.166 47 -53.499l41 -44v-13h-111c-17.333 10.667 -35 22.5 -53 35.5s-35.667 27.833 -53 44.5c-17.333 -16.667 -34.833 -31.5 -52.5 -44.5
s-35.167 -24.833 -52.5 -35.5h-111v13l42 44.5c16 17 31.5 34.667 46.5 53s27.167 34.833 36.5 49.5h183z" />
    <glyph glyph-name="ycircumflex" unicode="&#x177;" horiz-adv-x="588" 
d="M0 549l179.999 -0.00195312l99 -311c7.33301 -24 12 -50.333 14 -79h3c2 15.333 4.5 29.333 7.5 42s6.16699 24.667 9.5 36l99 312h176l-226 -603c-22.667 -61.333 -53.667 -107.666 -93 -138.999s-89.666 -47 -150.999 -47c-17.333 0 -32.166 0.833008 -44.499 2.5
s-23.166 3.5 -32.499 5.5v133c7.33301 -1.33301 16.166 -2.66602 26.499 -3.99902s21.166 -2 32.499 -2c31.333 0 55.5 9.33301 72.5 28s29.833 40.667 38.5 66l6 17zM386.999 765.998c9.33301 -14.667 21.667 -31.168 37 -49.501s31 -36.166 47 -53.499l41 -44v-13h-111
c-17.333 10.667 -35 22.5 -53 35.5s-35.667 27.833 -53 44.5c-17.333 -16.667 -34.833 -31.5 -52.5 -44.5s-35.167 -24.833 -52.5 -35.5h-111v13l42 44.5c16 17 31.5 34.667 46.5 53s27.167 34.833 36.5 49.5h183z" />
    <glyph glyph-name="Ydieresis" unicode="&#x178;" horiz-adv-x="642" 
d="M321 433l137 281h184l-236 -436v-278h-170v273l-236 441h185zM138 853c0 24.667 7 42.667 21 54s31.667 17 53 17c20.667 0 38.5 -5.66699 53.5 -17s22.5 -29.333 22.5 -54c0 -24 -7.5 -41.667 -22.5 -53s-32.833 -17 -53.5 -17c-21.333 0 -39 5.66699 -53 17
s-21 29 -21 53zM352 853c0 24.667 7.16699 42.667 21.5 54s32.5 17 54.5 17c20 0 37.5 -5.66699 52.5 -17s22.5 -29.333 22.5 -54c0 -24 -7.5 -41.667 -22.5 -53s-32.5 -17 -52.5 -17c-22 0 -40.167 5.66699 -54.5 17s-21.5 29 -21.5 53z" />
    <glyph glyph-name="Zacute" unicode="&#x179;" horiz-adv-x="594" 
d="M569 0h-542v108l327 467h-319v139h526v-108l-327 -467h335v-139zM518 931l0.000976562 -10.001c-10.667 -9.33301 -24.334 -20.666 -41.001 -33.999l-53.5 -42l-55 -41.5c-17.667 -13 -33.167 -23.833 -46.5 -32.5h-112v13l39 44.5c15.333 17 30.333 34.667 45 53
s27 34.833 37 49.5h187z" />
    <glyph glyph-name="zacute" unicode="&#x17a;" horiz-adv-x="497" 
d="M469 0h-443v98l242 322h-228v129h419v-106l-233 -314h243v-129zM462 766l0.000976562 -10.001c-10.667 -9.33301 -24.334 -20.666 -41.001 -33.999l-53.5 -42l-55 -41.5c-17.667 -13 -33.167 -23.833 -46.5 -32.5h-112v13l39 44.5c15.333 17 30.333 34.667 45 53
s27 34.833 37 49.5h187z" />
    <glyph glyph-name="Zdotaccent" unicode="&#x17b;" horiz-adv-x="594" 
d="M569 0h-542v108l327 467h-319v139h526v-108l-327 -467h335v-139zM306 932c24.667 0 46 -5.33301 64 -16s27 -31.334 27 -62.001c0 -30 -9 -50.5 -27 -61.5s-39.333 -16.5 -64 -16.5c-25.333 0 -46.666 5.5 -63.999 16.5s-26 31.5 -26 61.5
c0 30.667 8.66699 51.334 26 62.001s38.666 16 63.999 16z" />
    <glyph glyph-name="zdotaccent" unicode="&#x17c;" horiz-adv-x="497" 
d="M469 0h-443v98l242 322h-228v129h419v-106l-233 -314h243v-129zM250 767c24.667 0 46 -5.33301 64 -16s27 -31.334 27 -62.001c0 -30 -9 -50.5 -27 -61.5s-39.333 -16.5 -64 -16.5c-25.333 0 -46.666 5.5 -63.999 16.5s-26 31.5 -26 61.5
c0 30.667 8.66699 51.334 26 62.001s38.666 16 63.999 16z" />
    <glyph glyph-name="Zcaron" unicode="&#x17d;" horiz-adv-x="594" 
d="M569 0h-542v108l327 467h-319v139h526v-108l-327 -467h335v-139zM215 771c-9.33301 14.667 -21.501 31.166 -36.501 49.499s-30.5 36 -46.5 53l-42 44.5v13h111c17.333 -10.667 34.833 -22.5 52.5 -35.5s35.167 -27.833 52.5 -44.5c17.333 16.667 35 31.5 53 44.5
s35.667 24.833 53 35.5h111v-13l-41 -44c-16 -17.333 -31.667 -35.166 -47 -53.499s-27.666 -34.833 -36.999 -49.5h-183z" />
    <glyph glyph-name="zcaron" unicode="&#x17e;" horiz-adv-x="497" 
d="M469 0h-443v98l242 322h-228v129h419v-106l-233 -314h243v-129zM159 606c-9.33301 14.667 -21.501 31.166 -36.501 49.499s-30.5 36 -46.5 53l-42 44.5v13h111c17.333 -10.667 34.833 -22.5 52.5 -35.5s35.167 -27.833 52.5 -44.5c17.333 16.667 35 31.5 53 44.5
s35.667 24.833 53 35.5h111v-13l-41 -44c-16 -17.333 -31.667 -35.166 -47 -53.499s-27.666 -34.833 -36.999 -49.5h-183z" />
    <glyph glyph-name="longs" unicode="&#x17f;" horiz-adv-x="392" 
d="M299 638c-22.667 0 -37.999 -6.16602 -45.999 -18.499s-12 -29.5 -12 -51.5v-568h-169v574c0 51.333 8.16699 90.833 24.5 118.5s39.333 46.667 69 57s64.5 15.5 104.5 15.5c33.333 0 61.666 -2.33301 84.999 -7s43 -10.334 59 -17.001l-36 -118l-36.5 10
c-12.333 3.33301 -26.5 5 -42.5 5z" />
    <glyph glyph-name="uni0180" unicode="&#x180;" horiz-adv-x="641" 
d="M392 -10c-40.667 0 -71.6689 7 -93.002 21s-39.333 29 -54 45h-10l-28 -56h-131v576h-76v109h76v75h169v-75h139v-109h-139v-6c0 -18.667 -0.5 -36 -1.5 -52s-2.5 -32.333 -4.5 -49h6c13.333 20.667 32 38.834 56 54.501s55.667 23.5 95 23.5
c38.667 0 73.334 -8.83301 104.001 -26.5s54.834 -46.334 72.501 -86.001s26.5 -92.5 26.5 -158.5c0 -64 -9 -117.167 -27 -159.5s-42.5 -74 -73.5 -95s-66.5 -31.5 -106.5 -31.5zM340.998 127c24.667 0 44.832 12.833 60.499 38.5s23.5 63.167 23.5 112.5
c0 48.667 -7.83301 83.167 -23.5 103.5s-36.5 30.5 -62.5 30.5c-27.333 0 -49.5 -10.333 -66.5 -31s-26.167 -53 -27.5 -97v-5c0 -48.667 6.83301 -86.167 20.5 -112.5s38.834 -39.5 75.501 -39.5z" />
    <glyph glyph-name="uni0181" unicode="&#x181;" horiz-adv-x="811" 
d="M220 0l0.00488281 572.996h-26c-18.667 0 -32.334 -5 -41.001 -15s-13 -21.667 -13 -35c0 -11.333 1.16699 -20.666 3.5 -27.999s4.5 -13.666 6.5 -18.999h-133c-2.66699 5.33301 -5.33398 13 -8.00098 23s-4 22 -4 36c0 32 6 61.5 18 88.5s32.167 48.833 60.5 65.5
s66.833 25 115.5 25h248c96.667 0 170 -13 220 -39s75 -73.333 75 -142c0 -40.667 -8.83301 -75 -26.5 -103s-42.834 -45 -75.501 -51v-5c20.667 -5.33301 40.167 -13.666 58.5 -24.999s33.166 -28.333 44.499 -51s17 -53 17 -91c0 -63.333 -23.333 -113.666 -70 -150.999
s-111.334 -56 -194.001 -56h-276zM391.005 437.996h74c39.333 0 66 6 80 18s21 29.667 21 53s-8.5 39.833 -25.5 49.5s-44.5 14.5 -82.5 14.5h-67v-135zM391.005 141.996l85 0.000976562c41.333 0 69.333 7.66699 84 23s22 35.666 22 60.999c0 21.333 -7.5 39.5 -22.5 54.5
s-44.167 22.5 -87.5 22.5h-81v-161z" />
    <glyph glyph-name="uni0182" unicode="&#x182;" horiz-adv-x="642" 
d="M84 0v714.002h460v-139h-290v-125h65c64.667 0 117.667 -9.33301 159 -28s72 -44.334 92 -77.001s30 -70.334 30 -113.001c0 -72.667 -24.333 -129.5 -73 -170.5s-121.667 -61.5 -219 -61.5h-224zM254 137.002h52c39.333 0 69.5 7.16699 90.5 21.5s31.5 37.5 31.5 69.5
c0 31.333 -11.5 53.333 -34.5 66s-53.5 19 -91.5 19h-48v-176z" />
    <glyph glyph-name="uni0183" unicode="&#x183;" horiz-adv-x="641" 
d="M392 -10c-40.667 0 -71.668 7 -93.001 21s-39.333 29 -54 45h-10l-28 -56h-131v760h470v-127h-301v-59c0 -22.667 -0.833008 -44.167 -2.5 -64.5s-2.83398 -33.833 -3.50098 -40.5h6c13.333 20.667 32 38.834 56 54.501s55.667 23.5 95 23.5
c38.667 0 73.334 -8.83301 104.001 -26.5s54.834 -46.334 72.501 -86.001s26.5 -92.5 26.5 -158.5c0 -64 -9 -117.167 -27 -159.5s-42.5 -74 -73.5 -95s-66.5 -31.5 -106.5 -31.5zM340.999 127c24.667 0 44.832 12.833 60.499 38.5s23.5 63.167 23.5 112.5
c0 48.667 -7.83301 83.167 -23.5 103.5s-36.5 30.5 -62.5 30.5c-27.333 0 -49.5 -10.333 -66.5 -31s-26.167 -53 -27.5 -97v-5c0 -48.667 6.83301 -86.167 20.5 -112.5s38.834 -39.5 75.501 -39.5z" />
    <glyph glyph-name="uni0184" unicode="&#x184;" horiz-adv-x="673" 
d="M355 -12c-86.667 0 -153.833 17.332 -201.5 51.999s-71.5 91.667 -71.5 171v503h172v-266h77c70 0 127.167 -9.83301 171.5 -29.5s77 -46.667 98 -81s31.5 -73.166 31.5 -116.499c0 -71.333 -23 -128 -69 -170s-115.333 -63 -208 -63zM350.001 127.999
c31.333 0 57.167 7.16699 77.5 21.5s30.5 38.166 30.5 71.499c0 36.667 -13.5 60.334 -40.5 71.001s-63.833 16 -110.5 16h-53v-89c0 -60.667 32 -91 96 -91z" />
    <glyph glyph-name="uni0185" unicode="&#x185;" horiz-adv-x="642" 
d="M340 -10c-84 0 -149.667 24.3291 -197 72.9961s-71 117.334 -71 206.001v491h170v-173c0 -21.333 -0.666992 -41.166 -2 -59.499s-2.66602 -33.833 -3.99902 -46.5h6c14 20.667 33.5 38.834 58.5 54.501s57.167 23.5 96.5 23.5s74.166 -10.667 104.499 -32
s54.333 -53.166 72 -95.499s26.5 -94.833 26.5 -157.5c0 -65.333 -11.5 -118.833 -34.5 -160.5s-54.167 -72.667 -93.5 -93s-83.333 -30.5 -132 -30.5zM336 125.996c29.333 0 51.833 11 67.5 33s23.5 60.333 23.5 115c0 50.667 -8 88.5 -24 113.5s-37 37.5 -63 37.5
c-34.667 0 -59.667 -11 -75 -33s-23 -54 -23 -96v-30c0 -50.667 8.33301 -86.667 25 -108s39.667 -32 69 -32z" />
    <glyph glyph-name="uni0186" unicode="&#x186;" horiz-adv-x="643" 
d="M248 -10c-36.667 0 -70 3.16504 -100 9.49805s-60 15.833 -90 28.5v144c32 -12 62 -21.833 90 -29.5s57.333 -11.5 88 -11.5c58 0 101.833 19.333 131.5 58s44.5 94.334 44.5 167.001c0 70.667 -14.5 126.167 -43.5 166.5s-69.833 60.5 -122.5 60.5
c-29.333 0 -57.666 -4.16699 -84.999 -12.5s-53.333 -18.833 -78 -31.5l-48 135c32.667 16.667 69 29.167 109 37.5s79 12.5 117 12.5c72.667 0 133.167 -15 181.5 -45s84.666 -72 108.999 -126s36.5 -117 36.5 -189c0 -73.333 -12.5 -138.166 -37.5 -194.499
s-62.667 -100.333 -113 -132s-113.5 -47.5 -189.5 -47.5z" />
    <glyph glyph-name="uni0187" unicode="&#x187;" horiz-adv-x="640" 
d="M635 883c15.333 0 29.8369 -1.83008 43.5039 -5.49707s23.167 -6.83398 28.5 -9.50098v-130c-5.33301 2 -13 4.16699 -23 6.5s-20.667 3.5 -32 3.5c-14.667 0 -26.334 -4 -35.001 -12s-13 -21.667 -13 -41v-35l-55 -127c-26.667 12 -53.5 23 -80.5 33
s-53.167 15 -78.5 15c-50.667 0 -89.334 -20 -116.001 -60s-40 -95.333 -40 -166c0 -72 12.333 -127 37 -165s65 -57 121 -57c29.333 0 58.666 3.5 87.999 10.5s61.666 17.167 96.999 30.5v-145c-32.667 -14 -64.334 -24 -95.001 -30s-65.334 -9 -104.001 -9
c-74.667 0 -135.667 15.167 -183 45.5s-82.166 73 -104.499 128s-33.5 119.167 -33.5 192.5c0 72 12.667 135.667 38 191s62.833 98.666 112.5 129.999s110.834 47 183.501 47c13.333 0 26.5 -0.833008 39.5 -2.5s25.833 -3.83398 38.5 -6.50098v3
c0 38 7.5 69.167 22.5 93.5s35.167 42.333 60.5 54s53 17.5 83 17.5z" />
    <glyph glyph-name="uni0188" unicode="&#x188;" horiz-adv-x="522" 
d="M300 -10c-82 0 -145.5 21.999 -190.5 65.999s-67.5 116 -67.5 216c0 68.667 11.667 124 35 166s55.5 72.667 96.5 92s87.833 29 140.5 29c6.66699 0 13.667 -0.166992 21 -0.5s14.333 -1.16602 21 -2.49902v24c0 66.667 15.667 114.167 47 142.5s71.333 42.5 120 42.5
c15.333 0 29.666 -1.83301 42.999 -5.5s23 -7.16699 29 -10.5v-130c-6 2 -14 4.16699 -24 6.5s-20.667 3.5 -32 3.5c-15.333 0 -27 -4.16699 -35 -12.5s-12 -21.833 -12 -40.5v-62l-51 -125c-23.333 10 -45.166 18.333 -65.499 25s-40.833 10 -61.5 10
c-66 0 -99 -50.333 -99 -151c0 -52 9 -89.333 27 -112s42.667 -34 74 -34c32.667 0 61.167 4.5 85.5 13.5s47.833 21.5 70.5 37.5v-144c-24 -16 -48.667 -27.333 -74 -34s-58 -10 -98 -10z" />
    <glyph glyph-name="uni0189" unicode="&#x189;" horiz-adv-x="737" 
d="M319 714c112.667 0 201.333 -29.5 266 -88.5s97 -144.833 97 -257.5c0 -122.667 -34 -214.667 -102 -276s-161.667 -92 -281 -92h-215v284h-65v138h65v292h235zM322.999 575l-69.001 -0.000976562v-153h110v-138h-110v-144h55c131.333 0 197 74 197 222
c0 72.667 -15.667 126.334 -47 161.001s-76.666 52 -135.999 52z" />
    <glyph glyph-name="uni018A" unicode="&#x18a;" horiz-adv-x="876" 
d="M219 0v572.998h-26c-18.667 0 -32.334 -5 -41.001 -15s-13 -21.667 -13 -35c0 -11.333 1.16699 -20.666 3.5 -27.999s4.5 -13.666 6.5 -18.999h-132c-2.66699 5.33301 -5.5 13 -8.5 23s-4.5 22 -4.5 36c0 32 6.16699 61.5 18.5 88.5s32.5 48.833 60.5 65.5
s66.333 25 115 25h252c74.667 0 139.834 -13.333 195.501 -40s99 -66 130 -118s46.5 -116 46.5 -192c0 -120.667 -35 -211.5 -105 -272.5s-166.333 -91.5 -289 -91.5h-209zM391 141.998h54.001c67.333 0 117.166 18.167 149.499 54.5s48.5 90.833 48.5 163.5
c0 74 -15.5 128 -46.5 162s-75.833 51 -134.5 51h-71v-431z" />
    <glyph glyph-name="uni018B" unicode="&#x18b;" horiz-adv-x="640" 
d="M321 0c-95.333 0 -166 18.999 -212 56.999s-69 93 -69 165c0 42.667 10.5 81.334 31.5 116.001s52.833 62 95.5 82s96.667 30 162 30h57v123h-288v141h458v-714h-235zM334 136.999h52v176h-47c-38.667 0 -69.5 -6.66699 -92.5 -20s-34.5 -36 -34.5 -68
c0 -31.333 10.5 -53.833 31.5 -67.5s51.167 -20.5 90.5 -20.5z" />
    <glyph glyph-name="uni018C" unicode="&#x18c;" horiz-adv-x="641" 
d="M244 -10c-58.667 0 -107 24.167 -145 72.5s-57 119.166 -57 212.499c0 58 9 107.333 27 148s42.5 71.5 73.5 92.5s66.5 31.5 106.5 31.5c39.333 0 71.333 -7.83301 96 -23.5s43.667 -33.5 57 -53.5h5c-0.666992 2.66699 -2 10 -4 22s-3.83301 25.833 -5.5 41.5
s-2.5 29.834 -2.5 42.501v57h-300v127h470v-760h-131l-33 69h-6c-12.667 -20.667 -31 -39 -55 -55s-56 -24 -96 -24zM307 125c36 0 61.498 10.5029 76.498 31.5029s22.833 53.833 23.5 98.5v17c0 43.333 -7.16699 77.166 -21.5 101.499s-41.166 36.5 -80.499 36.5
c-28 0 -50.167 -11.833 -66.5 -35.5s-24.5 -57.834 -24.5 -102.501c0 -48.667 8.33301 -85.334 25 -110.001s39.334 -37 68.001 -37z" />
    <glyph glyph-name="uni018D" unicode="&#x18d;" horiz-adv-x="627" 
d="M281 -218c-45.333 0 -86.5 4.83203 -123.5 14.499s-73.833 23.167 -110.5 40.5l64 120c31.333 -15.333 61.5 -27.5 90.5 -36.5s56.167 -13.5 81.5 -13.5c24 0 41 3.83301 51 11.5s15 17.5 15 29.5c0 15.333 -10.333 30.333 -31 45s-54.334 34.667 -101.001 60
c-60.667 32 -104.667 68.5 -132 109.5s-41 88.833 -41 143.5c0 86 24.833 149.667 74.5 191s115.5 62 197.5 62c52 0 98 -8.66699 138 -26s71.5 -42.666 94.5 -75.999s34.5 -74 34.5 -122c0 -61.333 -16.167 -110.5 -48.5 -147.5s-77.5 -64.5 -135.5 -82.5
c32.667 -21.333 59.334 -46 80.001 -74s31 -59.667 31 -95c0 -48 -19.833 -85.667 -59.5 -113s-96.167 -41 -169.5 -41zM305 171.999c14.667 4.66699 30.333 13.001 47 25.001s30.667 28.667 42 50s17 48 17 80c0 29.333 -8.33301 53.666 -25 72.999s-40.334 29 -71.001 29
s-55 -10.167 -73 -30.5s-27 -49.5 -27 -87.5c0 -31.333 8.33301 -58.333 25 -81s38.334 -42 65.001 -58z" />
    <glyph glyph-name="uni018E" unicode="&#x18e;" horiz-adv-x="555" 
d="M54 0v140h247v161h-230v138h230v137h-247v138h417v-714h-417z" />
    <glyph glyph-name="uni018F" unicode="&#x18f;" horiz-adv-x="806" 
d="M385 584c-55.333 0 -107.33 -8.33301 -155.997 -25s-89.334 -35.667 -122.001 -57v149c31.333 19.333 70.833 36.5 118.5 51.5s104.5 22.5 170.5 22.5c71.333 0 133.666 -14.167 186.999 -42.5s94.833 -69.666 124.5 -123.999s44.5 -120.833 44.5 -199.5
c0 -120.667 -30.833 -212.334 -92.5 -275.001s-146.834 -94 -255.501 -94c-117.333 0 -203.333 34.167 -258 102.5s-82 163.166 -82 284.499v33h508c-3.33301 50.667 -19.833 92.334 -49.5 125.001s-75.5 49 -137.5 49zM407.003 126c44.667 0 82.168 13.333 112.501 40
s47.5 64.667 51.5 114h-330c1.33301 -46.667 15.166 -84 41.499 -112s67.833 -42 124.5 -42z" />
    <glyph glyph-name="uni0190" unicode="&#x190;" horiz-adv-x="642" 
d="M331 725c59.333 0 110.331 -6.99512 152.998 -20.9951s82.667 -33.333 120 -58l-72 -114c-26 16 -54.333 29.333 -85 40s-63.667 16 -99 16c-39.333 0 -68.666 -6.33301 -87.999 -19s-29 -29.334 -29 -50.001c0 -16.667 6 -31 18 -43s32.833 -21.5 62.5 -28.5
s70.834 -10.5 123.501 -10.5h48v-132h-57c-69.333 0 -122.666 -6.83301 -159.999 -20.5s-56 -36.167 -56 -67.5c0 -28.667 12.5 -51.334 37.5 -68.001s67.833 -25 128.5 -25c22 0 45.833 1.83301 71.5 5.5s51.167 9 76.5 16s48 15.5 68 25.5v-143
c-30 -12.667 -66.5 -22.334 -109.5 -29.001s-92.167 -10 -147.5 -10c-100.667 0 -175 19.667 -223 59s-72 90 -72 152c0 49.333 18 89.166 54 119.499s85.667 47.833 149 52.5v3c-34 4.66699 -64.333 13.167 -91 25.5s-47.834 29.666 -63.501 51.999s-23.5 50.5 -23.5 84.5
c0 56 23.5 101.333 70.5 136s112.167 52 195.5 52z" />
    <glyph glyph-name="uni0191" unicode="&#x191;" horiz-adv-x="559" 
d="M67 -252c-18 0 -35.001 1.66895 -51.001 5.00195s-27.333 6.66602 -34 9.99902v129c5.33301 -2 13 -4.16699 23 -6.5s20.667 -3.5 32 -3.5c14.667 0 26.834 4.66699 36.501 14s14.5 23.666 14.5 42.999v775h412v-140h-243v-160h226v-140h-226v-340
c0 -66 -16.833 -113.5 -50.5 -142.5s-80.167 -43.5 -139.5 -43.5z" />
    <glyph glyph-name="florin" unicode="&#x192;" horiz-adv-x="564" 
d="M376 743c29.333 0 56 -2.33203 80 -6.99902s44.667 -10.334 62 -17.001l-36 -117c-10.667 3.33301 -21.667 6.33301 -33 9s-23.333 4 -36 4c-18.667 0 -31.834 -6 -39.501 -18s-11.5 -29 -11.5 -51v-19h117v-126h-117v-452c0 -55.333 -14.667 -100.666 -44 -135.999
s-75.333 -53 -138 -53c-16.667 0 -34.167 1.16699 -52.5 3.5s-33.166 5.5 -44.499 9.5v131c10 -2.66699 19 -4.83398 27 -6.50098s17.667 -2.5 29 -2.5c16 0 29 5.66699 39 17s15 31.333 15 60v429h-78v82l80 43v30c0 70 15.5 118.667 46.5 146s75.833 41 134.5 41z" />
    <glyph glyph-name="uni0193" unicode="&#x193;" horiz-adv-x="724" 
d="M676 883c15.333 0 29.8301 -1.83203 43.4971 -5.49902s23.167 -6.83398 28.5 -9.50098v-130c-5.33301 2 -13 4.16699 -23 6.5s-20.667 3.5 -32 3.5c-15.333 0 -27 -4 -35 -12s-12 -21.667 -12 -41v-26l-58 -126c-20 10 -43.667 18.833 -71 26.5s-56 11.5 -86 11.5
c-39.333 0 -73.833 -9.33301 -103.5 -28s-52.667 -45 -69 -79s-24.5 -73.667 -24.5 -119c0 -42 5.16699 -79.667 15.5 -113s27.333 -59.833 51 -79.5s54.834 -29.5 93.501 -29.5c18.667 0 34.334 0.833008 47.001 2.5s24.334 2.83398 35.001 3.50098v128h-119v142h287v-378
c-38 -12.667 -77.5 -22.667 -118.5 -30s-87.833 -11 -140.5 -11c-104.667 0 -185.5 31.167 -242.5 93.5s-85.5 153.833 -85.5 274.5c0 76 14.5 141.333 43.5 196s71.5 96.667 127.5 126s124 44 204 44c26 0 52 -2 78 -6v1c0 38 7.66699 69.167 23 93.5
s35.5 42.166 60.5 53.499s52.5 17 82.5 17z" />
    <glyph glyph-name="uni0194" unicode="&#x194;" horiz-adv-x="660" 
d="M326 -240c-50.667 0 -89.167 14.333 -115.5 43s-39.5 66.334 -39.5 113.001c0 35.333 7 71 21 107s30.667 74.333 50 115l-242 576h179l109 -293c6.66699 -18 13.5 -38.667 20.5 -62s12.833 -45.666 17.5 -66.999c5.33301 21.333 11.833 43.166 19.5 65.499
s15.5 43.166 23.5 62.499l119 294h179l-258 -579c20 -37.333 37.333 -74.5 52 -111.5s22 -73.167 22 -108.5c0 -44.667 -13.5 -81.667 -40.5 -111s-65.833 -44 -116.5 -44zM327 -130c21.333 0 32 16.6689 32 50.002c0 14 -2.66699 30.833 -8 50.5s-13.333 39.5 -24 59.5
c-10.667 -18.667 -18.5 -37.834 -23.5 -57.501s-7.5 -36.834 -7.5 -51.501c0 -34 10.333 -51 31 -51z" />
    <glyph glyph-name="uni0195" unicode="&#x195;" horiz-adv-x="1003" 
d="M674 -12c-88.667 0 -153.333 17.666 -194 52.999s-61 92.333 -61 171v102c0 74 -24.667 111 -74 111c-37.333 0 -63.333 -15.333 -78 -46s-22 -73.667 -22 -129v-250h-169v760h169v-136c0 -23.333 -0.666992 -47 -2 -71s-3 -47.667 -5 -71h8
c35.333 51.333 85.333 77 150 77c56 0 102.167 -16.5 138.5 -49.5s54.5 -85.5 54.5 -157.5v-114c0 -76 28 -114 84 -114c30 0 52 10.5 66 31.5s21 56.167 21 105.5v286h170v-301c0 -87.333 -21.333 -152.166 -64 -194.499s-106.667 -63.5 -192 -63.5z" />
    <glyph glyph-name="uni0196" unicode="&#x196;" horiz-adv-x="421" 
d="M274 -10c-35.333 0 -67.332 5.83203 -95.999 17.499s-51.5 31.667 -68.5 60s-25.5 67.833 -25.5 118.5v528h181v-514c0 -21.333 5.66699 -37.666 17 -48.999s25.666 -17 42.999 -17c16.667 0 31.667 1.66699 45 5s27.333 7.66602 42 12.999v-135
c-16 -7.33301 -36 -13.666 -60 -18.999s-50 -8 -78 -8z" />
    <glyph glyph-name="uni0197" unicode="&#x197;" horiz-adv-x="407" 
d="M379 714v-97l-90 -47v-145h93v-142h-93v-139l90 -47v-97h-351v97l89 47v139h-92v142h92v145l-89 47v97h351z" />
    <glyph glyph-name="uni0198" unicode="&#x198;" horiz-adv-x="681" 
d="M582 726c18.667 0 35.001 -1.83301 49.001 -5.5s25.333 -7.5 34 -11.5v-134c-6 2.66699 -13.333 5 -22 7s-18.334 3 -29.001 3c-14 0 -27.333 -4 -40 -12s-23 -17.667 -31 -29l-104 -149l242 -395h-195l-169 285l-58 -38v-247h-171v714h171v-320l31.5 46.5l30.5 46.5
l54 85c20.667 28.667 41.167 54.667 61.5 78s42.333 41.833 66 55.5s50.167 20.5 79.5 20.5z" />
    <glyph glyph-name="uni0199" unicode="&#x199;" horiz-adv-x="648" 
d="M263 767c17.333 0 33.668 -1.83398 49.001 -5.50098s26.666 -7.16699 33.999 -10.5v-128c-5.33301 2 -13 4.16699 -23 6.5s-20.667 3.5 -32 3.5c-14 0 -25.167 -3.83301 -33.5 -11.5s-12.5 -21.167 -12.5 -40.5v-152c0 -20 -0.833008 -40 -2.5 -60s-3.5 -39.667 -5.5 -59
h2c8.66699 14.667 18.667 29.5 30 44.5s23 29.167 35 42.5l141 152h191l-218 -239l230 -310h-195l-148 211l-60 -45v-166h-169v584c0 44.667 7.83301 80.334 23.5 107.001s37.667 46 66 58s60.833 18 97.5 18z" />
    <glyph glyph-name="uni019A" unicode="&#x19a;" horiz-adv-x="327" 
d="M79 0v303h-70v122h70v335h168v-335h72v-122h-72v-303h-168z" />
    <glyph glyph-name="uni019B" unicode="&#x19b;" horiz-adv-x="638" 
d="M2 0l234 515.998l-7 18l-98 -30l-28 90l80 23c-7.33301 7.33301 -16.666 12.333 -27.999 15s-24 4 -38 4c-9.33301 0 -18.666 -0.666992 -27.999 -2s-18 -3 -26 -5v129c8.66699 2 22.167 3.83301 40.5 5.5s33.5 2.5 45.5 2.5c48 0 87.167 -8 117.5 -24
s55.166 -40.333 74.499 -73l90 29l29 -93l-79 -24l132 -366c13.333 -37.333 26.333 -61.333 39 -72s26.667 -16 42 -16c6.66699 0 13 0.5 19 1.5s12 2.16699 18 3.5v-125c-8 -4 -20.5 -7.66699 -37.5 -11s-34.167 -5 -51.5 -5c-46 0 -81.167 10.833 -105.5 32.5
s-43.5 52.167 -57.5 91.5l-39 112c-7.33301 20.667 -13.833 40 -19.5 58s-9.83398 33.667 -12.501 47h-3c-4.66699 -17.333 -10 -35.166 -16 -53.499s-12 -34.166 -18 -47.499l-95 -231h-174z" />
    <glyph glyph-name="uni019C" unicode="&#x19c;" horiz-adv-x="1045" 
d="M287 -10c-60 0 -108.833 15.666 -146.5 46.999s-56.5 82.666 -56.5 153.999v523h172v-471c0 -72.667 24.333 -109 73 -109c38 0 64.833 13.833 80.5 41.5s23.5 66.834 23.5 117.501v421h172v-471c0 -72.667 24.333 -109 73 -109c40.667 0 68.167 15.333 82.5 46
s21.5 73.334 21.5 128.001v406h173v-714h-130l-23 75h-10c-18 -28.667 -42.167 -50 -72.5 -64s-62.166 -21 -95.499 -21c-38.667 0 -71.334 7.33301 -98.001 22s-48.334 35.667 -65.001 63h-8c-37.333 -56.667 -92.666 -85 -165.999 -85z" />
    <glyph glyph-name="uni019D" unicode="&#x19d;" horiz-adv-x="832" 
d="M59 -252c-17.333 0 -32.832 1.66797 -46.499 5.00098s-23.834 6.66602 -30.501 9.99902v129c5.33301 -2 13 -4.16699 23 -6.5s20.667 -3.5 32 -3.5c14.667 0 26.834 4.66699 36.501 14s14.5 23.666 14.5 42.999v775h220l287 -515h3
c-0.666992 2.66699 -1.33398 11.5 -2.00098 26.5l-2.5 55c-1 21.667 -1.83301 43.5 -2.5 65.5s-1 41 -1 57v311h154v-714h-221l-288 521h-4c0 -3.33301 0.666992 -12.666 2 -27.999s2.5 -33.833 3.5 -55.5l3 -66.5c1 -22.667 1.5 -43 1.5 -61v-376
c0 -66 -16.833 -113.5 -50.5 -142.5s-77.5 -43.5 -131.5 -43.5z" />
    <glyph glyph-name="uni019E" unicode="&#x19e;" horiz-adv-x="663" 
d="M399 559c56.667 0 103.166 -15.832 139.499 -47.499s54.5 -82.834 54.5 -153.501v-598h-168v557c0 35.333 -6.33301 62.333 -19 81s-32.667 28 -60 28c-41.333 0 -69.166 -15.167 -83.499 -45.5s-21.5 -73.833 -21.5 -130.5v-250h-169v549h128l22 -69h10
c17.333 28 41 48.167 71 60.5s62 18.5 96 18.5z" />
    <glyph glyph-name="uni019F" unicode="&#x19f;" horiz-adv-x="796" 
d="M741 358c0 -74 -11.998 -138.5 -35.998 -193.5s-61.167 -97.833 -111.5 -128.5s-115.5 -46 -195.5 -46c-78.667 0 -143.334 15.333 -194.001 46s-88.167 73.667 -112.5 129s-36.5 120 -36.5 194s12.167 138.333 36.5 193s61.833 97.167 112.5 127.5
s115.667 45.5 195 45.5s144.166 -15.167 194.499 -45.5s87.5 -73 111.5 -128s36 -119.5 36 -193.5zM399.002 589c-51.333 0 -90.668 -13.833 -118.001 -41.5s-44.666 -66.5 -51.999 -116.5h338c-7.33301 50 -24.333 88.833 -51 116.5s-65.667 41.5 -117 41.5zM398 128
c54.667 0 95.667 15 123 45s43.333 71.333 48 124h-343c5.33301 -52.667 22 -94 50 -124s68.667 -45 122 -45z" />
    <glyph glyph-name="Ohorn" unicode="&#x1a0;" horiz-adv-x="834" 
d="M742 358c0 -74 -11.998 -138.502 -35.998 -193.502s-61.333 -97.833 -112 -128.5s-116 -46 -196 -46c-78.667 0 -143.334 15.333 -194.001 46s-88.167 73.667 -112.5 129s-36.5 120 -36.5 194s12.333 138.333 37 193s62.5 97.167 113.5 127.5s115.833 45.5 194.5 45.5
c58.667 0 109.667 -8.5 153 -25.5s78.666 -40.833 105.999 -71.5c12 12.667 21.5 30 28.5 52s10.5 48.667 10.5 80h164l7 -11c-12 -59.333 -29.833 -106.166 -53.5 -140.499s-56.5 -60.166 -98.5 -77.499c16.667 -49.333 25 -107 25 -173zM234.002 357.998
c0 -70 13 -125 39 -165s67.667 -60 125 -60c58.667 0 100.667 20 126 60s38 95 38 165c0 70.667 -12.5 126 -37.5 166s-66.833 60 -125.5 60c-58 0 -100 -20 -126 -60s-39 -95.333 -39 -166z" />
    <glyph glyph-name="ohorn" unicode="&#x1a1;" horiz-adv-x="699" 
d="M583 276c0 -92 -24.167 -162.668 -72.5 -212.001s-114.5 -74 -198.5 -74c-52 0 -98.167 11 -138.5 33s-72 54.333 -95 97s-34.5 94.667 -34.5 156c0 90.667 24 160.5 72 209.5s114.333 73.5 199 73.5c36.667 0 71.834 -5.5 105.501 -16.5s62.167 -27.5 85.5 -49.5
c22 7.33301 38 23.333 48 48s15 54.667 15 90h164l7 -11c-6.66699 -33.333 -15.667 -64.166 -27 -92.499s-28.833 -53 -52.5 -74s-56.834 -37.167 -99.501 -48.5c14.667 -36 22 -79 22 -129zM215 275.999c0 -50 7.83105 -87.667 23.498 -113s40.834 -38 75.501 -38
s59.667 12.667 75 38s23 63 23 113s-7.66699 87.167 -23 111.5s-40.666 36.5 -75.999 36.5c-34.667 0 -59.667 -12.167 -75 -36.5s-23 -61.5 -23 -111.5z" />
    <glyph glyph-name="uni01A2" unicode="&#x1a2;" horiz-adv-x="1145" 
d="M728 358c0 -74.667 -11.8359 -139.667 -35.5029 -195s-60.334 -98 -110.001 -128s-113.167 -45 -190.5 -45s-140.666 15 -189.999 45s-85.833 72.667 -109.5 128s-35.5 120.666 -35.5 195.999c0 74 11.833 138.333 35.5 193s60.334 97.167 110.001 127.5
s113.167 45.5 190.5 45.5c54 0 101 -7.66699 141 -23s73.667 -37 101 -65c24.667 24.667 54 45.5 88 62.5s74.667 25.5 122 25.5c42 0 79.333 -8.33301 112 -25s58.334 -42.5 77.001 -77.5s28 -80.5 28 -136.5v-486h-173v472c0 73.333 -30.667 110 -92 110
c-27.333 0 -48.666 -3.33301 -63.999 -10s-28.333 -14.667 -39 -24c22.667 -53.333 34 -116.666 34 -189.999zM237.997 358c0 -70.667 12 -125.665 36 -164.998s63.333 -59 118 -59c56 0 95.833 19.667 119.5 59s35.5 94.333 35.5 165c0 69.333 -11.5 124.166 -34.5 164.499
s-62.833 60.5 -119.5 60.5c-55.333 0 -95 -19.833 -119 -59.5s-36 -94.834 -36 -165.501z" />
    </font>
</defs>
</svg>
